{"glyphs":{"0":{"ha":896,"x_min":0,"x_max":0,"o":"m 447 -19 b 76 368 221 -19 76 108 l 76 604 b 447 992 76 858 221 992 b 819 604 674 992 819 858 l 819 368 b 447 -19 819 108 674 -19 m 447 111 b 674 363 600 111 674 203 l 674 613 b 447 861 674 772 590 861 b 222 613 303 861 222 769 l 222 363 b 447 111 222 200 297 111 "},"1":{"ha":604,"x_min":0,"x_max":0,"o":"m 357 869 l 335 869 l 175 542 l 21 542 l 236 972 l 503 972 l 503 0 l 357 0 "},"2":{"ha":831,"x_min":0,"x_max":0,"o":"m 67 110 b 357 451 67 314 174 394 l 442 478 b 625 682 556 514 625 572 l 625 688 b 424 861 625 793 544 861 b 215 664 299 861 215 794 l 215 642 l 71 642 l 71 663 b 424 992 71 872 224 992 b 771 690 624 992 771 872 l 771 676 b 478 349 771 489 649 403 l 396 324 b 214 144 265 283 214 243 l 214 131 l 763 131 l 763 0 l 67 0 "},"3":{"ha":842,"x_min":0,"x_max":0,"o":"m 422 -19 b 56 307 208 -19 56 103 l 56 332 l 201 332 l 201 310 b 422 111 201 188 289 111 b 633 288 554 111 633 186 l 633 300 b 436 453 633 408 546 453 l 260 453 l 260 621 l 601 822 l 601 842 l 79 842 l 79 972 l 760 972 l 760 775 l 433 581 l 433 561 l 493 561 b 779 304 640 561 779 481 l 779 288 b 422 -19 779 101 636 -19 "},"4":{"ha":875,"x_min":0,"x_max":0,"o":"m 532 199 l 40 199 l 40 368 l 413 972 l 678 972 l 678 328 l 842 328 l 842 199 l 678 199 l 678 0 l 532 0 m 532 328 l 532 881 l 510 881 l 182 347 l 182 328 "},"5":{"ha":832,"x_min":0,"x_max":0,"o":"m 419 -19 b 61 306 200 -19 61 110 l 61 321 l 210 321 l 210 307 b 418 111 210 189 286 111 b 631 317 553 111 631 192 l 631 329 b 436 528 631 450 550 528 b 276 438 340 528 299 476 l 92 438 l 92 972 l 743 972 l 743 840 l 238 840 l 238 554 l 260 554 b 467 649 286 599 349 649 b 776 331 638 649 776 533 l 776 315 b 419 -19 776 113 642 -19 "},"6":{"ha":854,"x_min":0,"x_max":0,"o":"m 432 -19 b 76 307 219 -19 76 111 l 76 643 b 439 992 76 871 222 992 b 785 693 654 992 785 874 l 638 693 b 439 861 638 789 575 861 b 222 654 300 861 222 783 l 222 538 l 244 538 b 474 632 276 583 342 632 b 792 319 646 632 792 515 l 792 303 b 432 -19 792 108 643 -19 m 433 111 b 646 306 563 111 646 186 l 646 317 b 433 514 646 436 561 514 b 222 317 307 514 222 436 l 222 306 b 433 111 222 186 306 111 "},"7":{"ha":776,"x_min":0,"x_max":0,"o":"m 196 35 b 239 206 196 104 204 142 l 588 824 l 588 842 l 40 842 l 40 972 l 738 972 l 738 800 l 372 144 b 342 29 350 104 342 78 l 342 0 l 196 0 "},"8":{"ha":849,"x_min":0,"x_max":0,"o":"m 425 -19 b 51 258 200 -19 51 88 l 51 274 b 219 493 51 411 149 476 l 219 515 b 68 721 149 536 68 599 l 68 736 b 425 992 68 892 213 992 b 782 736 636 992 782 892 l 782 721 b 631 515 782 599 701 536 l 631 493 b 797 274 701 476 797 411 l 797 258 b 425 -19 797 88 649 -19 m 425 565 b 636 708 557 565 636 617 l 636 719 b 425 861 636 810 556 861 b 213 719 293 861 213 810 l 213 708 b 425 565 213 617 292 565 m 425 111 b 651 267 567 111 651 168 l 651 278 b 425 435 651 378 568 435 b 197 278 281 435 197 378 l 197 267 b 425 111 197 168 282 111 "},"9":{"ha":854,"x_min":0,"x_max":0,"o":"m 417 -19 b 69 279 200 -19 69 100 l 218 279 b 417 111 218 183 279 111 b 632 318 554 111 632 189 l 632 435 l 611 435 b 381 340 578 389 513 340 b 64 653 210 340 64 457 l 64 669 b 422 992 64 864 211 992 b 778 665 635 992 778 863 l 778 329 b 417 -19 778 103 633 -19 m 421 458 b 632 656 547 458 632 536 l 632 667 b 421 861 632 786 549 861 b 210 667 293 861 210 786 l 210 656 b 421 458 210 536 294 458 "},"\r":{"ha":833,"x_min":0,"x_max":0,"o":""}," ":{"ha":354,"x_min":0,"x_max":0,"o":""},"A":{"ha":878,"x_min":0,"x_max":0,"o":"m 307 972 l 571 972 l 847 0 l 693 0 l 629 229 l 249 229 l 185 0 l 31 0 m 592 368 l 450 879 l 428 879 l 286 368 "},"B":{"ha":921,"x_min":0,"x_max":0,"o":"m 65 133 l 197 133 l 197 839 l 65 839 l 65 972 l 558 972 b 850 728 732 972 850 876 l 850 714 b 697 504 850 579 760 522 l 697 482 b 854 269 761 464 854 407 l 854 256 b 561 0 854 94 732 0 l 65 0 m 543 558 b 700 690 638 558 700 608 l 700 704 b 543 836 700 785 639 836 l 347 836 l 347 558 m 543 136 b 704 272 643 136 704 188 l 704 285 b 543 421 704 371 644 421 l 347 421 l 347 136 "},"C":{"ha":893,"x_min":0,"x_max":0,"o":"m 463 -19 b 76 372 225 -19 76 118 l 76 600 b 463 992 76 854 225 992 b 828 629 696 992 828 854 l 828 622 l 679 622 l 679 633 b 463 857 679 764 610 857 b 226 603 314 857 226 761 l 226 369 b 463 115 226 211 314 115 b 679 339 610 115 679 208 l 679 363 l 828 363 l 828 343 b 463 -19 828 118 696 -19 "},"D":{"ha":924,"x_min":0,"x_max":0,"o":"m 65 133 l 197 133 l 197 839 l 65 839 l 65 972 l 454 972 b 856 576 713 972 856 842 l 856 394 b 454 0 856 131 713 0 l 65 0 m 456 136 b 706 390 622 136 706 221 l 706 582 b 456 835 706 751 622 835 l 347 835 l 347 136 "},"E":{"ha":776,"x_min":0,"x_max":0,"o":"m 101 972 l 714 972 l 714 836 l 251 836 l 251 557 l 675 557 l 675 421 l 251 421 l 251 136 l 721 136 l 721 0 l 101 0 "},"F":{"ha":746,"x_min":0,"x_max":0,"o":"m 101 972 l 701 972 l 701 836 l 251 836 l 251 556 l 665 556 l 665 419 l 251 419 l 251 0 l 101 0 "},"G":{"ha":918,"x_min":0,"x_max":0,"o":"m 439 -19 b 76 372 231 -19 76 118 l 76 600 b 463 992 76 854 225 992 b 826 642 696 992 826 856 l 826 635 l 678 635 l 678 646 b 463 857 678 765 610 857 b 226 603 314 857 226 761 l 226 369 b 464 114 226 211 314 114 b 678 333 613 114 678 203 l 678 351 l 417 351 l 417 481 l 826 481 l 826 0 l 688 0 l 688 99 l 665 99 b 439 -19 642 44 589 -19 "},"H":{"ha":911,"x_min":0,"x_max":0,"o":"m 101 972 l 251 972 l 251 556 l 660 556 l 660 972 l 810 972 l 810 0 l 660 0 l 660 419 l 251 419 l 251 0 l 101 0 "},"I":{"ha":353,"x_min":0,"x_max":0,"o":"m 101 972 l 251 972 l 251 0 l 101 0 "},"J":{"ha":836,"x_min":0,"x_max":0,"o":"m 368 -19 b 50 292 172 -19 50 93 l 50 375 l 200 375 l 200 292 b 365 121 200 188 257 121 b 518 292 469 121 518 186 l 518 836 l 349 836 l 349 972 l 776 972 l 776 836 l 668 836 l 668 292 b 368 -19 668 90 558 -19 "},"K":{"ha":858,"x_min":0,"x_max":0,"o":"m 101 972 l 251 972 l 251 568 l 274 568 l 636 972 l 832 972 l 393 493 l 847 0 l 646 0 l 274 413 l 251 413 l 251 0 l 101 0 "},"L":{"ha":756,"x_min":0,"x_max":0,"o":"m 101 972 l 251 972 l 251 136 l 719 136 l 719 0 l 101 0 "},"M":{"ha":1214,"x_min":0,"x_max":0,"o":"m 101 972 l 383 972 l 596 100 l 618 100 l 831 972 l 1113 972 l 1113 0 l 967 0 l 967 867 l 944 867 l 733 0 l 481 0 l 269 867 l 247 867 l 247 0 l 101 0 "},"N":{"ha":926,"x_min":0,"x_max":0,"o":"m 101 972 l 390 972 l 654 100 l 676 100 l 676 972 l 825 972 l 825 0 l 536 0 l 272 874 l 250 874 l 250 0 l 101 0 "},"O":{"ha":935,"x_min":0,"x_max":0,"o":"m 467 -19 b 76 372 228 -19 76 118 l 76 600 b 467 992 76 854 228 992 b 858 600 706 992 858 854 l 858 372 b 467 -19 858 118 706 -19 m 467 115 b 707 367 618 115 707 211 l 707 606 b 467 857 707 761 618 857 b 226 606 315 857 226 761 l 226 367 b 467 115 226 211 315 115 "},"P":{"ha":838,"x_min":0,"x_max":0,"o":"m 101 972 l 488 972 b 796 682 667 972 796 861 l 796 664 b 488 374 796 483 661 374 l 251 374 l 251 0 l 101 0 m 472 510 b 646 665 576 510 646 568 l 646 679 b 472 836 646 778 579 836 l 251 836 l 251 510 "},"Q":{"ha":935,"x_min":0,"x_max":0,"o":"m 526 -237 b 393 -101 447 -237 393 -185 l 393 -15 b 76 372 197 11 76 146 l 76 600 b 467 992 76 854 228 992 b 858 600 706 992 858 854 l 858 372 b 540 -15 858 146 736 11 l 540 -76 b 579 -118 540 -104 554 -118 l 665 -118 l 665 -237 l 526 -237 m 467 115 b 707 367 618 115 707 211 l 707 606 b 467 857 707 761 618 857 b 226 606 315 857 226 761 l 226 367 b 467 115 226 211 315 115 "},"R":{"ha":878,"x_min":0,"x_max":0,"o":"m 101 972 l 510 972 b 814 713 690 972 814 872 l 814 697 b 664 474 814 575 747 504 l 664 451 b 781 322 735 447 781 403 l 781 0 l 631 0 l 631 301 b 547 383 631 351 606 383 l 251 383 l 251 0 l 101 0 m 493 519 b 663 672 600 519 663 576 l 663 683 b 493 836 663 778 603 836 l 251 836 l 251 519 "},"S":{"ha":847,"x_min":0,"x_max":0,"o":"m 432 -19 b 57 318 214 -19 57 100 l 57 353 l 206 353 l 206 318 b 432 113 206 179 294 113 b 642 269 569 113 642 178 b 436 424 642 363 564 394 l 385 436 b 79 717 197 479 79 546 b 415 992 79 888 214 992 b 768 683 618 992 768 888 l 768 633 l 619 633 l 619 683 b 415 860 619 808 538 860 b 228 721 296 860 228 808 b 417 569 228 633 293 597 l 468 557 b 790 272 656 515 790 447 b 432 -19 790 99 650 -19 "},"T":{"ha":817,"x_min":0,"x_max":0,"o":"m 333 836 l 35 836 l 35 972 l 782 972 l 782 836 l 483 836 l 483 0 l 333 0 "},"U":{"ha":929,"x_min":0,"x_max":0,"o":"m 465 -19 b 94 333 236 -19 94 110 l 94 972 l 246 972 l 246 329 b 465 115 246 192 324 115 b 685 329 606 115 685 192 l 685 972 l 835 972 l 835 333 b 465 -19 835 110 693 -19 "},"V":{"ha":860,"x_min":0,"x_max":0,"o":"m 31 972 l 185 972 l 421 94 l 439 94 l 674 972 l 829 972 l 560 0 l 300 0 "},"W":{"ha":1232,"x_min":0,"x_max":0,"o":"m 47 972 l 196 972 l 313 101 l 335 101 l 485 972 l 747 972 l 897 101 l 919 101 l 1035 972 l 1185 972 l 1042 0 l 779 0 l 626 883 l 604 883 l 453 0 l 189 0 "},"X":{"ha":890,"x_min":0,"x_max":0,"o":"m 336 490 l 42 972 l 214 972 l 433 597 l 456 597 l 676 972 l 849 972 l 554 490 l 853 0 l 681 0 l 456 385 l 433 385 l 210 0 l 38 0 "},"Y":{"ha":857,"x_min":0,"x_max":0,"o":"m 353 353 l 15 972 l 185 972 l 418 532 l 439 532 l 672 972 l 842 972 l 504 353 l 504 0 l 353 0 "},"Z":{"ha":801,"x_min":0,"x_max":0,"o":"m 67 194 l 578 818 l 578 838 l 82 838 l 82 972 l 732 972 l 732 778 l 221 154 l 221 135 l 738 135 l 738 0 l 67 0 "},"a":{"ha":801,"x_min":0,"x_max":0,"o":"m 318 -19 b 61 197 172 -19 61 58 b 322 408 61 336 172 408 l 531 408 l 531 453 b 383 585 531 532 483 585 b 219 460 285 585 236 533 l 86 503 b 385 704 119 611 210 704 b 671 443 563 704 671 610 l 671 161 b 710 119 671 133 685 119 l 768 119 l 768 0 l 661 0 b 553 93 597 0 553 36 l 553 97 l 531 97 b 318 -19 510 53 460 -19 m 339 99 b 531 283 453 99 531 168 l 531 297 l 331 297 b 204 201 254 297 204 264 b 339 99 204 139 254 99 "},"b":{"ha":890,"x_min":0,"x_max":0,"o":"m 501 -19 b 268 97 368 -19 303 38 l 246 97 l 246 0 l 106 0 l 106 972 l 249 972 l 249 592 l 271 592 b 501 704 303 647 368 704 b 818 353 674 704 818 574 l 818 332 b 501 -19 818 110 672 -19 m 460 106 b 674 336 583 106 674 189 l 674 349 b 460 578 674 496 585 578 b 247 349 336 578 247 496 l 247 336 b 460 106 247 189 338 106 "},"c":{"ha":822,"x_min":0,"x_max":0,"o":"m 424 -19 b 72 333 225 -19 72 111 l 72 351 b 424 704 72 572 225 704 b 758 440 621 704 732 585 l 619 411 b 426 576 607 503 547 576 b 215 349 307 576 215 493 l 215 336 b 426 108 215 192 307 108 b 624 274 547 108 607 178 l 763 242 b 424 -19 731 99 621 -19 "},"d":{"ha":890,"x_min":0,"x_max":0,"o":"m 389 -19 b 72 332 218 -19 72 110 l 72 353 b 389 704 72 574 217 704 b 619 592 522 704 588 647 l 642 592 l 642 972 l 785 972 l 785 0 l 644 0 l 644 97 l 622 97 b 389 -19 588 38 522 -19 m 429 106 b 643 336 553 106 643 189 l 643 349 b 429 578 643 496 554 578 b 217 349 306 578 217 496 l 217 336 b 429 106 217 189 307 106 "},"e":{"ha":811,"x_min":0,"x_max":0,"o":"m 419 -19 b 72 333 211 -19 72 121 l 72 350 b 414 704 72 564 213 704 b 744 357 611 704 744 565 l 744 303 l 218 303 b 422 106 222 182 307 106 b 607 225 531 106 578 161 l 726 164 b 419 -19 685 85 604 -19 m 600 413 b 413 578 592 515 519 578 b 219 413 304 578 233 515 "},"f":{"ha":610,"x_min":0,"x_max":0,"o":"m 229 564 l 38 564 l 38 685 l 229 685 l 229 835 b 367 972 229 919 282 972 l 543 972 l 543 853 l 413 853 b 372 811 386 853 372 839 l 372 685 l 569 685 l 569 564 l 372 564 l 372 0 l 229 0 "},"g":{"ha":889,"x_min":0,"x_max":0,"o":"m 72 360 b 390 704 72 575 217 704 b 622 586 524 704 589 643 l 644 586 l 644 685 l 783 685 l 783 -140 b 646 -278 783 -225 731 -278 l 185 -278 l 185 -153 l 601 -153 b 642 -111 628 -153 642 -139 l 642 107 l 619 107 b 390 -4 589 54 525 -4 b 72 339 217 -4 72 125 m 429 121 b 643 343 553 121 643 203 l 643 356 b 429 578 643 496 554 578 b 217 356 306 578 217 496 l 217 343 b 429 121 217 203 307 121 "},"h":{"ha":854,"x_min":0,"x_max":0,"o":"m 106 972 l 249 972 l 249 588 l 271 588 b 486 696 297 639 356 696 b 754 411 642 696 754 588 l 754 0 l 611 0 l 611 400 b 444 574 611 519 549 574 b 249 346 326 574 249 493 l 249 0 l 106 0 "},"i":{"ha":356,"x_min":0,"x_max":0,"o":"m 178 778 b 79 875 121 778 79 817 b 178 972 79 933 121 972 b 276 875 233 972 276 933 b 178 778 276 817 233 778 m 106 685 l 249 685 l 249 0 l 106 0 "},"j":{"ha":358,"x_min":0,"x_max":0,"o":"m 181 778 b 82 875 124 778 82 817 b 181 972 82 933 124 972 b 279 875 236 972 279 933 b 181 778 279 817 236 778 m -25 -154 l 69 -154 b 108 -112 96 -154 108 -140 l 108 685 l 251 685 l 251 -140 b 114 -278 251 -225 200 -278 l -25 -278 "},"k":{"ha":765,"x_min":0,"x_max":0,"o":"m 106 972 l 249 972 l 249 418 l 271 418 l 540 685 l 731 685 l 385 353 l 742 0 l 554 0 l 271 285 l 249 285 l 249 0 l 106 0 "},"l":{"ha":356,"x_min":0,"x_max":0,"o":"m 106 972 l 249 972 l 249 0 l 106 0 "},"m":{"ha":1190,"x_min":0,"x_max":0,"o":"m 106 685 l 246 685 l 246 604 l 268 604 b 447 696 293 651 349 696 b 640 585 550 696 608 649 l 663 585 b 860 696 693 647 749 696 b 1090 456 992 696 1090 611 l 1090 0 l 947 0 l 947 446 b 817 575 947 528 899 575 b 669 408 728 575 669 517 l 669 0 l 526 0 l 526 446 b 396 575 526 528 478 575 b 249 408 307 575 249 517 l 249 0 l 106 0 "},"n":{"ha":854,"x_min":0,"x_max":0,"o":"m 106 685 l 246 685 l 246 582 l 268 582 b 486 696 294 638 354 696 b 754 411 642 696 754 588 l 754 0 l 611 0 l 611 400 b 444 574 611 519 549 574 b 249 346 326 574 249 493 l 249 0 l 106 0 "},"o":{"ha":854,"x_min":0,"x_max":0,"o":"m 426 -19 b 72 332 221 -19 72 114 l 72 353 b 426 704 72 569 221 704 b 782 353 632 704 782 569 l 782 332 b 426 -19 782 114 632 -19 m 426 108 b 639 336 551 108 639 193 l 639 349 b 426 576 639 490 553 576 b 215 349 301 576 215 490 l 215 336 b 426 108 215 193 301 108 "},"p":{"ha":890,"x_min":0,"x_max":0,"o":"m 106 685 l 246 685 l 246 586 l 268 586 b 501 704 303 647 368 704 b 818 353 672 704 818 574 l 818 332 b 501 -19 818 111 674 -19 b 271 93 368 -19 303 38 l 249 93 l 249 -278 l 106 -278 m 460 106 b 674 336 585 106 674 189 l 674 349 b 460 578 674 496 583 578 b 247 349 338 578 247 496 l 247 336 b 460 106 247 189 336 106 "},"q":{"ha":890,"x_min":0,"x_max":0,"o":"m 642 93 l 619 93 b 389 -19 588 38 522 -19 b 72 332 217 -19 72 111 l 72 353 b 389 704 72 574 218 704 b 622 586 522 704 588 647 l 644 586 l 644 685 l 785 685 l 785 -278 l 642 -278 m 429 106 b 643 336 554 106 643 189 l 643 349 b 429 578 643 496 553 578 b 217 349 307 578 217 496 l 217 336 b 429 106 217 189 306 106 "},"r":{"ha":538,"x_min":0,"x_max":0,"o":"m 106 685 l 246 685 l 246 604 l 268 604 b 413 688 290 661 339 688 l 494 688 l 494 558 l 407 558 b 249 403 314 558 249 508 l 249 0 l 106 0 "},"s":{"ha":729,"x_min":0,"x_max":0,"o":"m 386 -19 b 64 215 211 -19 89 58 l 197 247 b 386 96 217 132 294 96 b 528 190 476 96 528 133 b 392 283 528 246 481 267 l 343 292 b 93 500 204 317 93 371 b 357 704 93 629 197 704 b 643 511 511 704 614 631 l 510 474 b 357 588 494 557 438 588 b 232 506 278 588 232 557 b 353 415 232 450 278 429 l 401 407 b 668 197 550 381 668 336 b 386 -19 668 60 557 -19 "},"t":{"ha":636,"x_min":0,"x_max":0,"o":"m 363 0 b 226 138 278 0 226 53 l 226 564 l 38 564 l 38 685 l 226 685 l 226 911 l 369 911 l 369 685 l 574 685 l 574 564 l 369 564 l 369 163 b 408 121 369 135 382 121 l 551 121 l 551 0 l 363 0 "},"u":{"ha":853,"x_min":0,"x_max":0,"o":"m 368 -12 b 99 274 211 -12 99 97 l 99 685 l 242 685 l 242 283 b 410 110 242 165 304 110 b 604 339 528 110 604 190 l 604 685 l 747 685 l 747 0 l 607 0 l 607 103 l 585 103 b 368 -12 558 46 499 -12 "},"v":{"ha":756,"x_min":0,"x_max":0,"o":"m 33 685 l 185 685 l 367 106 l 389 106 l 571 685 l 722 685 l 492 0 l 264 0 "},"w":{"ha":1100,"x_min":0,"x_max":0,"o":"m 64 685 l 207 685 l 293 96 l 315 96 l 435 685 l 667 685 l 785 96 l 807 96 l 893 685 l 1036 685 l 919 0 l 681 0 l 561 588 l 539 588 l 421 0 l 181 0 "},"x":{"ha":824,"x_min":0,"x_max":0,"o":"m 308 346 l 53 685 l 221 685 l 400 439 l 422 439 l 601 685 l 771 685 l 514 346 l 775 0 l 606 0 l 422 251 l 400 251 l 218 0 l 47 0 "},"y":{"ha":853,"x_min":0,"x_max":0,"o":"m 185 -153 l 567 -153 b 606 -111 593 -153 606 -139 l 606 100 l 583 100 b 368 -12 558 46 499 -12 b 99 272 211 -12 99 96 l 99 685 l 242 685 l 242 283 b 410 110 242 164 304 110 b 604 338 528 110 604 190 l 604 685 l 747 685 l 747 -140 b 610 -278 747 -225 694 -278 l 185 -278 "},"z":{"ha":721,"x_min":0,"x_max":0,"o":"m 78 175 l 482 544 l 482 564 l 92 564 l 92 685 l 638 685 l 638 508 l 232 139 l 232 121 l 649 121 l 649 0 l 78 0 "},"[":{"ha":482,"x_min":0,"x_max":0,"o":"m 231 -333 b 106 -208 157 -333 106 -282 l 106 917 b 231 1042 106 990 157 1042 l 457 1042 l 457 919 l 282 919 b 244 878 257 919 244 906 l 244 -169 b 282 -211 244 -197 257 -211 l 457 -211 l 457 -333 l 231 -333 "},"]":{"ha":482,"x_min":0,"x_max":0,"o":"m 24 -211 l 200 -211 b 238 -169 225 -211 238 -197 l 238 878 b 200 919 238 906 225 919 l 24 919 l 24 1042 l 250 1042 b 376 917 324 1042 376 990 l 376 -208 b 250 -333 376 -282 324 -333 l 24 -333 "},"{":{"ha":624,"x_min":0,"x_max":0,"o":"m 374 -333 b 249 -208 300 -333 249 -282 l 249 231 b 192 286 249 267 231 286 l 51 286 l 51 422 l 192 422 b 249 478 231 422 249 442 l 249 917 b 374 1042 249 990 300 1042 l 600 1042 l 600 919 l 424 919 b 386 878 399 919 386 906 l 386 476 b 281 365 386 413 346 365 l 265 365 l 265 343 l 281 343 b 386 232 346 343 386 296 l 386 -169 b 424 -211 386 -197 399 -211 l 600 -211 l 600 -333 l 374 -333 "},"}":{"ha":624,"x_min":0,"x_max":0,"o":"m 24 -211 l 200 -211 b 238 -169 225 -211 238 -197 l 238 232 b 343 343 238 296 278 343 l 360 343 l 360 365 l 343 365 b 238 476 278 365 238 413 l 238 878 b 200 919 238 906 225 919 l 24 919 l 24 1042 l 250 1042 b 376 917 324 1042 376 990 l 376 478 b 432 422 376 442 394 422 l 572 422 l 572 286 l 432 286 b 376 231 394 286 376 267 l 376 -208 b 250 -333 376 -282 324 -333 l 24 -333 "},"(":{"ha":540,"x_min":0,"x_max":0,"o":"m 528 -333 b 76 146 238 -333 76 -187 l 76 563 b 528 1042 76 896 238 1042 l 528 919 b 215 557 315 918 215 803 l 215 151 b 528 -211 215 -94 315 -210 l 528 -333 "},")":{"ha":532,"x_min":0,"x_max":0,"o":"m 6 -211 b 318 151 218 -210 318 -94 l 318 557 b 6 919 318 803 218 918 l 6 1042 b 456 563 294 1042 456 896 l 456 146 b 6 -333 456 -187 294 -333 "},"/":{"ha":526,"x_min":0,"x_max":0,"o":"m 397 972 l 540 972 l 132 -278 l -11 -278 "},"|":{"ha":346,"x_min":0,"x_max":0,"o":"m 101 1119 l 244 1119 l 244 -342 l 101 -342 "},"¦":{"ha":346,"x_min":0,"x_max":0,"o":"m 101 1119 l 244 1119 l 244 508 l 101 508 m 101 269 l 244 269 l 244 -342 l 101 -342 "},"\\":{"ha":526,"x_min":0,"x_max":0,"o":"m -14 972 l 131 972 l 539 -278 l 394 -278 "},"'":{"ha":379,"x_min":0,"x_max":0,"o":"m 107 679 l 154 679 b 211 736 194 679 211 696 l 211 781 l 190 781 b 78 883 125 781 78 824 b 190 992 78 947 125 992 b 301 879 254 992 301 946 l 301 735 b 164 597 301 643 256 597 l 107 597 "},"\"":{"ha":653,"x_min":0,"x_max":0,"o":"m 107 679 l 154 679 b 211 736 194 679 211 696 l 211 781 l 190 781 b 78 883 125 781 78 824 b 190 992 78 947 125 992 b 301 879 254 992 301 946 l 301 735 b 164 597 301 643 256 597 l 107 597 m 381 679 l 428 679 b 485 736 467 679 485 696 l 485 781 l 463 781 b 351 883 399 781 351 824 b 463 992 351 947 399 992 b 575 879 528 992 575 946 l 575 735 b 438 597 575 643 529 597 l 381 597 "},"‘":{"ha":379,"x_min":0,"x_max":0,"o":"m 272 910 l 225 910 b 168 853 186 910 168 893 l 168 808 l 190 808 b 301 706 254 808 301 765 b 190 597 301 642 254 597 b 78 710 125 597 78 643 l 78 854 b 215 992 78 946 124 992 l 272 992 "},"’":{"ha":379,"x_min":0,"x_max":0,"o":"m 107 679 l 154 679 b 211 736 194 679 211 696 l 211 781 l 190 781 b 78 883 125 781 78 824 b 190 992 78 947 125 992 b 301 879 254 992 301 946 l 301 735 b 164 597 301 643 256 597 l 107 597 "},"“":{"ha":653,"x_min":0,"x_max":0,"o":"m 546 910 l 499 910 b 442 853 458 910 442 893 l 442 808 l 463 808 b 575 706 528 808 575 765 b 463 597 575 642 528 597 b 351 710 399 597 351 643 l 351 854 b 489 992 351 946 397 992 l 546 992 m 272 910 l 225 910 b 168 853 186 910 168 893 l 168 808 l 190 808 b 301 706 254 808 301 765 b 190 597 301 642 254 597 b 78 710 125 597 78 643 l 78 854 b 215 992 78 946 124 992 l 272 992 "},"”":{"ha":653,"x_min":0,"x_max":0,"o":"m 107 679 l 154 679 b 211 736 194 679 211 696 l 211 781 l 190 781 b 78 883 125 781 78 824 b 190 992 78 947 125 992 b 301 879 254 992 301 946 l 301 735 b 164 597 301 643 256 597 l 107 597 m 381 679 l 428 679 b 485 736 467 679 485 696 l 485 781 l 463 781 b 351 883 399 781 351 824 b 463 992 351 947 399 992 b 575 879 528 992 575 946 l 575 735 b 438 597 575 643 529 597 l 381 597 "},"‚":{"ha":379,"x_min":0,"x_max":0,"o":"m 107 -107 l 154 -107 b 211 -50 194 -107 211 -90 l 211 -6 l 190 -6 b 78 97 125 -6 78 38 b 190 206 78 161 125 206 b 301 93 254 206 301 160 l 301 -51 b 164 -189 301 -143 256 -189 l 107 -189 "},"„":{"ha":653,"x_min":0,"x_max":0,"o":"m 107 -107 l 154 -107 b 211 -50 194 -107 211 -90 l 211 -6 l 190 -6 b 78 97 125 -6 78 38 b 190 206 78 161 125 206 b 301 93 254 206 301 160 l 301 -51 b 164 -189 301 -143 256 -189 l 107 -189 m 381 -107 l 428 -107 b 485 -50 467 -107 485 -90 l 485 -6 l 463 -6 b 351 97 399 -6 351 38 b 463 206 351 161 399 206 b 575 93 528 206 575 160 l 575 -51 b 438 -189 575 -143 529 -189 l 381 -189 "},".":{"ha":383,"x_min":0,"x_max":0,"o":"m 192 -19 b 78 94 126 -19 78 28 b 192 207 78 161 126 207 b 306 94 256 207 306 161 b 192 -19 306 28 256 -19 "},",":{"ha":379,"x_min":0,"x_max":0,"o":"m 107 -107 l 154 -107 b 211 -50 194 -107 211 -90 l 211 -6 l 190 -6 b 78 97 125 -6 78 38 b 190 206 78 161 125 206 b 301 93 254 206 301 160 l 301 -51 b 164 -189 301 -143 256 -189 l 107 -189 "},":":{"ha":383,"x_min":0,"x_max":0,"o":"m 192 476 b 78 590 126 476 78 524 b 192 704 78 657 126 704 b 306 590 256 704 306 657 b 192 476 306 524 256 476 m 192 -19 b 78 94 126 -19 78 28 b 192 207 78 161 126 207 b 306 94 256 207 306 161 b 192 -19 306 28 256 -19 "},";":{"ha":383,"x_min":0,"x_max":0,"o":"m 192 476 b 78 590 126 476 78 524 b 192 704 78 657 126 704 b 306 590 256 704 306 657 b 192 476 306 524 256 476 m 110 -107 l 156 -107 b 213 -50 196 -107 213 -90 l 213 -6 l 192 -6 b 79 97 128 -6 79 38 b 192 206 79 161 128 206 b 303 93 256 206 303 160 l 303 -51 b 165 -189 303 -143 257 -189 l 110 -189 "},"…":{"ha":1026,"x_min":0,"x_max":0,"o":"m 192 -19 b 78 94 126 -19 78 28 b 192 207 78 161 126 207 b 306 94 256 207 306 161 b 192 -19 306 28 256 -19 m 514 -19 b 400 94 449 -19 400 28 b 514 207 400 161 449 207 b 626 94 578 207 626 161 b 514 -19 626 28 578 -19 m 835 -19 b 722 94 771 -19 722 28 b 835 207 722 161 771 207 b 949 94 900 207 949 161 b 835 -19 949 28 900 -19 "},"!":{"ha":383,"x_min":0,"x_max":0,"o":"m 118 972 l 264 972 l 264 290 l 118 290 m 192 -19 b 78 94 126 -19 78 28 b 192 207 78 161 126 207 b 306 94 256 207 306 161 b 192 -19 306 28 256 -19 "},"¡":{"ha":383,"x_min":0,"x_max":0,"o":"m 192 704 b 306 590 256 704 306 657 b 192 476 306 524 256 476 b 78 590 126 476 78 524 b 192 704 78 657 126 704 m 118 394 l 264 394 l 264 -278 l 118 -278 "},"?":{"ha":804,"x_min":0,"x_max":0,"o":"m 310 349 b 424 528 310 439 340 489 l 454 542 b 596 713 544 581 596 624 b 404 864 596 808 515 864 b 200 692 292 864 200 807 l 200 651 l 53 651 l 53 690 b 404 992 53 881 204 992 b 743 713 601 992 743 875 b 536 435 743 550 640 482 l 506 421 b 460 343 471 406 460 386 l 460 290 l 310 290 m 388 -19 b 275 94 324 -19 275 28 b 388 207 275 161 324 207 b 501 94 453 207 501 161 b 388 -19 501 28 453 -19 "},"¿":{"ha":804,"x_min":0,"x_max":0,"o":"m 415 704 b 529 590 481 704 529 657 b 415 476 529 524 481 476 b 303 590 351 476 303 524 b 415 704 303 657 351 704 m 400 -299 b 61 -18 203 -299 61 -182 b 268 258 61 143 164 211 l 299 274 b 346 350 333 289 346 307 l 346 394 l 494 394 l 494 344 b 381 167 494 256 464 204 l 350 153 b 208 -18 261 111 208 69 b 400 -171 208 -115 289 -171 b 604 3 513 -171 604 -114 l 604 42 l 751 42 l 751 4 b 400 -299 751 -186 600 -299 "},"‹":{"ha":654,"x_min":0,"x_max":0,"o":"m 72 261 l 72 426 l 550 669 l 558 669 l 558 517 l 214 354 l 214 333 l 558 172 l 558 19 l 550 19 "},"›":{"ha":654,"x_min":0,"x_max":0,"o":"m 96 172 l 440 333 l 440 354 l 96 517 l 96 669 l 104 669 l 582 426 l 582 261 l 104 19 l 96 19 "},"-":{"ha":615,"x_min":0,"x_max":0,"o":"m 103 421 l 514 421 l 514 290 l 103 290 "},"–":{"ha":826,"x_min":0,"x_max":0,"o":"m 103 421 l 725 421 l 725 290 l 103 290 "},"—":{"ha":1249,"x_min":0,"x_max":0,"o":"m 103 421 l 1147 421 l 1147 290 l 103 290 "},"·":{"ha":282,"x_min":0,"x_max":0,"o":"m 140 285 b 28 399 76 285 28 332 b 140 511 28 465 76 511 b 254 399 206 511 254 465 b 140 285 254 332 206 285 "},"•":{"ha":528,"x_min":0,"x_max":0,"o":"m 264 174 b 81 356 163 174 81 253 b 264 538 81 458 160 538 b 447 356 369 538 447 461 b 264 174 447 249 365 174 "},"_":{"ha":861,"x_min":0,"x_max":0,"o":"m 99 -68 l 763 -68 l 763 -197 l 99 -197 "},"@":{"ha":1417,"x_min":0,"x_max":0,"o":"m 733 -278 b 100 339 349 -278 100 -47 l 100 371 b 713 985 100 756 339 985 l 742 985 b 1322 406 1089 985 1322 758 l 1322 329 b 1081 0 1322 115 1239 0 l 1017 0 b 892 96 935 0 892 36 l 892 104 l 869 104 b 681 -12 846 46 794 -12 b 396 331 510 -12 396 138 l 396 354 b 671 696 396 549 508 696 b 860 593 785 696 832 644 l 882 593 l 882 683 l 1021 683 l 1021 168 b 1060 126 1021 139 1032 126 l 1071 126 b 1182 332 1150 126 1182 189 l 1182 403 b 739 856 1182 688 1025 856 l 717 856 b 240 365 425 856 240 688 l 240 343 b 742 -149 240 22 435 -149 l 1022 -149 l 1022 -278 l 733 -278 m 708 113 b 882 335 813 113 882 196 l 882 350 b 708 572 882 488 813 572 b 538 350 606 572 538 486 l 538 333 b 708 113 538 197 606 113 "},"&":{"ha":831,"x_min":0,"x_max":0,"o":"m 336 0 b 50 260 169 0 50 96 b 215 483 50 379 125 456 l 215 501 b 57 713 126 529 57 596 b 342 972 57 881 182 972 l 506 972 l 506 853 l 365 853 b 201 701 272 853 201 803 b 365 551 201 596 276 551 l 528 551 l 528 689 l 671 689 l 671 551 l 803 551 l 803 431 l 671 431 l 671 0 l 336 0 m 528 121 l 528 431 l 360 431 b 193 275 267 431 193 379 b 360 121 193 169 271 121 "},"*":{"ha":736,"x_min":0,"x_max":0,"o":"m 63 711 l 176 711 l 275 697 l 282 713 l 201 771 l 121 851 l 183 914 l 264 835 l 322 754 l 339 761 l 324 860 l 324 972 l 413 972 l 413 860 l 397 761 l 414 754 l 472 835 l 553 914 l 615 851 l 536 771 l 456 713 l 463 697 l 560 711 l 674 711 l 674 622 l 560 622 l 463 638 l 456 621 l 536 563 l 615 482 l 553 419 l 472 500 l 414 581 l 397 574 l 413 475 l 413 363 l 324 363 l 324 475 l 339 574 l 322 581 l 264 500 l 183 419 l 121 482 l 201 563 l 282 621 l 275 638 l 176 622 l 63 622 "},"À":{"ha":878,"x_min":0,"x_max":0,"o":"m 267 1229 l 438 1229 l 532 1054 l 401 1054 m 307 972 l 571 972 l 847 0 l 693 0 l 629 229 l 249 229 l 185 0 l 31 0 m 592 368 l 450 879 l 428 879 l 286 368 "},"Á":{"ha":878,"x_min":0,"x_max":0,"o":"m 440 1228 l 611 1228 l 476 1053 l 346 1053 m 307 972 l 571 972 l 847 0 l 693 0 l 629 229 l 249 229 l 185 0 l 31 0 m 592 368 l 450 879 l 428 879 l 286 368 "},"Â":{"ha":878,"x_min":0,"x_max":0,"o":"m 351 1228 l 526 1228 l 693 1053 l 533 1053 l 450 1150 l 428 1150 l 344 1053 l 185 1053 m 307 972 l 571 972 l 847 0 l 693 0 l 629 229 l 249 229 l 185 0 l 31 0 m 592 368 l 450 879 l 428 879 l 286 368 "},"Ã":{"ha":878,"x_min":0,"x_max":0,"o":"m 197 1103 l 242 1167 b 353 1232 269 1207 303 1232 b 456 1185 397 1232 422 1217 b 518 1149 476 1165 493 1149 b 572 1186 543 1149 558 1167 l 603 1229 l 681 1172 l 636 1107 b 525 1042 607 1068 575 1042 b 422 1089 481 1042 456 1058 b 360 1126 401 1110 385 1126 b 304 1088 335 1126 319 1107 l 275 1044 m 307 972 l 571 972 l 847 0 l 693 0 l 629 229 l 249 229 l 185 0 l 31 0 m 592 368 l 450 879 l 428 879 l 286 368 "},"Ä":{"ha":878,"x_min":0,"x_max":0,"o":"m 585 1051 b 488 1149 529 1051 488 1089 b 585 1246 488 1207 529 1246 b 683 1149 640 1246 683 1207 b 585 1051 683 1089 640 1051 m 293 1051 b 194 1149 238 1051 194 1089 b 293 1246 194 1207 238 1246 b 390 1149 349 1246 390 1207 b 293 1051 390 1089 349 1051 m 307 972 l 571 972 l 847 0 l 693 0 l 629 229 l 249 229 l 185 0 l 31 0 m 592 368 l 450 879 l 428 879 l 286 368 "},"Ā":{"ha":878,"x_min":0,"x_max":0,"o":"m 218 1179 l 660 1179 l 660 1064 l 218 1064 m 307 972 l 571 972 l 847 0 l 693 0 l 629 229 l 249 229 l 185 0 l 31 0 m 592 368 l 450 879 l 428 879 l 286 368 "},"Ă":{"ha":878,"x_min":0,"x_max":0,"o":"m 439 1044 b 221 1224 301 1044 221 1115 l 221 1229 l 340 1229 l 340 1224 b 439 1135 340 1172 371 1135 b 538 1224 507 1135 538 1172 l 538 1229 l 657 1229 l 657 1224 b 439 1044 657 1115 576 1044 m 307 972 l 571 972 l 847 0 l 693 0 l 629 229 l 249 229 l 185 0 l 31 0 m 592 368 l 450 879 l 428 879 l 286 368 "},"Å":{"ha":878,"x_min":0,"x_max":0,"o":"m 439 1039 b 299 1175 361 1039 299 1096 b 439 1311 299 1254 360 1311 b 581 1175 519 1311 581 1256 b 439 1039 581 1093 515 1039 m 439 1125 b 490 1175 469 1125 490 1146 b 439 1225 490 1204 469 1225 b 389 1175 408 1225 389 1204 b 439 1125 389 1146 408 1125 m 307 972 l 571 972 l 847 0 l 693 0 l 629 229 l 249 229 l 185 0 l 31 0 m 592 368 l 450 879 l 428 879 l 286 368 "},"Ą":{"ha":878,"x_min":0,"x_max":0,"o":"m 307 972 l 571 972 l 847 0 l 819 0 l 808 -62 b 803 -101 806 -78 803 -89 b 833 -131 803 -121 814 -131 l 896 -131 l 896 -232 l 800 -232 b 696 -139 738 -232 696 -197 b 708 -51 696 -111 701 -81 l 721 0 l 693 0 l 629 229 l 249 229 l 185 0 l 31 0 m 592 368 l 450 879 l 428 879 l 286 368 "},"Æ":{"ha":1147,"x_min":0,"x_max":0,"o":"m 390 972 l 1085 972 l 1085 836 l 679 836 l 679 557 l 1046 557 l 1046 421 l 679 421 l 679 136 l 1092 136 l 1092 0 l 531 0 l 531 229 l 269 229 l 186 0 l 31 0 m 531 890 l 508 890 l 317 368 l 531 368 "},"Ç":{"ha":893,"x_min":0,"x_max":0,"o":"m 463 -292 b 310 -258 404 -292 349 -276 l 340 -171 b 457 -199 374 -186 410 -199 b 524 -156 496 -199 524 -185 b 454 -114 524 -128 500 -114 l 403 -114 l 411 -17 b 76 372 204 1 76 138 l 76 600 b 463 992 76 854 225 992 b 828 629 696 992 828 854 l 828 622 l 679 622 l 679 633 b 463 857 679 764 610 857 b 226 603 314 857 226 761 l 226 369 b 463 115 226 211 314 115 b 679 339 610 115 679 208 l 679 363 l 828 363 l 828 343 b 511 -17 828 135 714 1 l 508 -58 b 632 -171 579 -58 632 -97 b 463 -292 632 -254 551 -292 "},"Ć":{"ha":893,"x_min":0,"x_max":0,"o":"m 464 1228 l 633 1228 l 500 1053 l 369 1053 m 463 -19 b 76 372 225 -19 76 118 l 76 600 b 463 992 76 854 225 992 b 828 629 696 992 828 854 l 828 622 l 679 622 l 679 633 b 463 857 679 764 610 857 b 226 603 314 857 226 761 l 226 369 b 463 115 226 211 314 115 b 679 339 610 115 679 208 l 679 363 l 828 363 l 828 343 b 463 -19 828 118 696 -19 "},"Ĉ":{"ha":893,"x_min":0,"x_max":0,"o":"m 375 1228 l 550 1228 l 717 1053 l 557 1053 l 474 1150 l 451 1150 l 368 1053 l 207 1053 m 463 -19 b 76 372 225 -19 76 118 l 76 600 b 463 992 76 854 225 992 b 828 629 696 992 828 854 l 828 622 l 679 622 l 679 633 b 463 857 679 764 610 857 b 226 603 314 857 226 761 l 226 369 b 463 115 226 211 314 115 b 679 339 610 115 679 208 l 679 363 l 828 363 l 828 343 b 463 -19 828 118 696 -19 "},"Č":{"ha":893,"x_min":0,"x_max":0,"o":"m 207 1228 l 368 1228 l 451 1131 l 474 1131 l 557 1228 l 717 1228 l 550 1053 l 375 1053 m 463 -19 b 76 372 225 -19 76 118 l 76 600 b 463 992 76 854 225 992 b 828 629 696 992 828 854 l 828 622 l 679 622 l 679 633 b 463 857 679 764 610 857 b 226 603 314 857 226 761 l 226 369 b 463 115 226 211 314 115 b 679 339 610 115 679 208 l 679 363 l 828 363 l 828 343 b 463 -19 828 118 696 -19 "},"Ċ":{"ha":893,"x_min":0,"x_max":0,"o":"m 463 1051 b 364 1149 406 1051 364 1090 b 463 1246 364 1207 406 1246 b 561 1149 518 1246 561 1207 b 463 1051 561 1090 518 1051 m 463 -19 b 76 372 225 -19 76 118 l 76 600 b 463 992 76 854 225 992 b 828 629 696 992 828 854 l 828 622 l 679 622 l 679 633 b 463 857 679 764 610 857 b 226 603 314 857 226 761 l 226 369 b 463 115 226 211 314 115 b 679 339 610 115 679 208 l 679 363 l 828 363 l 828 343 b 463 -19 828 118 696 -19 "},"Ð":{"ha":924,"x_min":0,"x_max":0,"o":"m 65 133 l 197 133 l 197 432 l 65 432 l 65 538 l 197 538 l 197 839 l 65 839 l 65 972 l 454 972 b 856 576 713 972 856 842 l 856 394 b 454 0 856 131 713 0 l 65 0 m 456 136 b 706 390 622 136 706 221 l 706 582 b 456 835 706 751 622 835 l 347 835 l 347 538 l 513 538 l 513 432 l 347 432 l 347 136 "},"Ď":{"ha":924,"x_min":0,"x_max":0,"o":"m 189 1228 l 349 1228 l 432 1131 l 454 1131 l 538 1228 l 697 1228 l 531 1053 l 356 1053 m 65 133 l 197 133 l 197 839 l 65 839 l 65 972 l 454 972 b 856 576 713 972 856 842 l 856 394 b 454 0 856 131 713 0 l 65 0 m 456 136 b 706 390 622 136 706 221 l 706 582 b 456 835 706 751 622 835 l 347 835 l 347 136 "},"Đ":{"ha":924,"x_min":0,"x_max":0,"o":"m 65 133 l 197 133 l 197 432 l 65 432 l 65 538 l 197 538 l 197 839 l 65 839 l 65 972 l 454 972 b 856 576 713 972 856 842 l 856 394 b 454 0 856 131 713 0 l 65 0 m 456 136 b 706 390 622 136 706 221 l 706 582 b 456 835 706 751 622 835 l 347 835 l 347 538 l 513 538 l 513 432 l 347 432 l 347 136 "},"È":{"ha":776,"x_min":0,"x_max":0,"o":"m 243 1229 l 413 1229 l 508 1054 l 376 1054 m 101 972 l 714 972 l 714 836 l 251 836 l 251 557 l 675 557 l 675 421 l 251 421 l 251 136 l 721 136 l 721 0 l 101 0 "},"É":{"ha":776,"x_min":0,"x_max":0,"o":"m 417 1228 l 586 1228 l 453 1053 l 322 1053 m 101 972 l 714 972 l 714 836 l 251 836 l 251 557 l 675 557 l 675 421 l 251 421 l 251 136 l 721 136 l 721 0 l 101 0 "},"Ê":{"ha":776,"x_min":0,"x_max":0,"o":"m 328 1228 l 503 1228 l 669 1053 l 510 1053 l 426 1150 l 404 1150 l 321 1053 l 161 1053 m 101 972 l 714 972 l 714 836 l 251 836 l 251 557 l 675 557 l 675 421 l 251 421 l 251 136 l 721 136 l 721 0 l 101 0 "},"Ě":{"ha":776,"x_min":0,"x_max":0,"o":"m 161 1228 l 321 1228 l 404 1131 l 426 1131 l 510 1228 l 669 1228 l 503 1053 l 328 1053 m 101 972 l 714 972 l 714 836 l 251 836 l 251 557 l 675 557 l 675 421 l 251 421 l 251 136 l 721 136 l 721 0 l 101 0 "},"Ë":{"ha":776,"x_min":0,"x_max":0,"o":"m 561 1051 b 463 1149 504 1051 463 1089 b 561 1246 463 1207 504 1246 b 658 1149 617 1246 658 1207 b 561 1051 658 1089 617 1051 m 269 1051 b 171 1149 213 1051 171 1089 b 269 1246 171 1207 213 1246 b 367 1149 325 1246 367 1207 b 269 1051 367 1089 325 1051 m 101 972 l 714 972 l 714 836 l 251 836 l 251 557 l 675 557 l 675 421 l 251 421 l 251 136 l 721 136 l 721 0 l 101 0 "},"Ē":{"ha":776,"x_min":0,"x_max":0,"o":"m 194 1179 l 636 1179 l 636 1064 l 194 1064 m 101 972 l 714 972 l 714 836 l 251 836 l 251 557 l 675 557 l 675 421 l 251 421 l 251 136 l 721 136 l 721 0 l 101 0 "},"Ĕ":{"ha":776,"x_min":0,"x_max":0,"o":"m 415 1044 b 197 1224 278 1044 197 1115 l 197 1229 l 317 1229 l 317 1224 b 415 1135 317 1172 347 1135 b 514 1224 483 1135 514 1172 l 514 1229 l 633 1229 l 633 1224 b 415 1044 633 1115 553 1044 m 101 972 l 714 972 l 714 836 l 251 836 l 251 557 l 675 557 l 675 421 l 251 421 l 251 136 l 721 136 l 721 0 l 101 0 "},"Ė":{"ha":776,"x_min":0,"x_max":0,"o":"m 415 1051 b 317 1149 358 1051 317 1090 b 415 1246 317 1207 358 1246 b 514 1149 471 1246 514 1207 b 415 1051 514 1090 471 1051 m 101 972 l 714 972 l 714 836 l 251 836 l 251 557 l 675 557 l 675 421 l 251 421 l 251 136 l 721 136 l 721 0 l 101 0 "},"Ę":{"ha":776,"x_min":0,"x_max":0,"o":"m 101 972 l 714 972 l 714 836 l 251 836 l 251 557 l 675 557 l 675 421 l 251 421 l 251 136 l 721 136 l 721 0 l 644 0 l 633 -62 b 628 -101 631 -78 628 -89 b 658 -131 628 -121 639 -131 l 721 -131 l 721 -232 l 625 -232 b 521 -139 563 -232 521 -197 b 533 -51 521 -111 526 -81 l 546 0 l 101 0 "},"Ĝ":{"ha":918,"x_min":0,"x_max":0,"o":"m 378 1228 l 553 1228 l 719 1053 l 560 1053 l 476 1150 l 454 1150 l 371 1053 l 211 1053 m 439 -19 b 76 372 231 -19 76 118 l 76 600 b 463 992 76 854 225 992 b 826 642 696 992 826 856 l 826 635 l 678 635 l 678 646 b 463 857 678 765 610 857 b 226 603 314 857 226 761 l 226 369 b 464 114 226 211 314 114 b 678 333 613 114 678 203 l 678 351 l 417 351 l 417 481 l 826 481 l 826 0 l 688 0 l 688 99 l 665 99 b 439 -19 642 44 589 -19 "},"Ğ":{"ha":918,"x_min":0,"x_max":0,"o":"m 465 1044 b 247 1224 328 1044 247 1115 l 247 1229 l 367 1229 l 367 1224 b 465 1135 367 1172 397 1135 b 564 1224 533 1135 564 1172 l 564 1229 l 683 1229 l 683 1224 b 465 1044 683 1115 603 1044 m 439 -19 b 76 372 231 -19 76 118 l 76 600 b 463 992 76 854 225 992 b 826 642 696 992 826 856 l 826 635 l 678 635 l 678 646 b 463 857 678 765 610 857 b 226 603 314 857 226 761 l 226 369 b 464 114 226 211 314 114 b 678 333 613 114 678 203 l 678 351 l 417 351 l 417 481 l 826 481 l 826 0 l 688 0 l 688 99 l 665 99 b 439 -19 642 44 589 -19 "},"Ġ":{"ha":918,"x_min":0,"x_max":0,"o":"m 465 1051 b 367 1149 410 1051 367 1090 b 465 1246 367 1207 410 1246 b 564 1149 521 1246 564 1207 b 465 1051 564 1090 521 1051 m 439 -19 b 76 372 231 -19 76 118 l 76 600 b 463 992 76 854 225 992 b 826 642 696 992 826 856 l 826 635 l 678 635 l 678 646 b 463 857 678 765 610 857 b 226 603 314 857 226 761 l 226 369 b 464 114 226 211 314 114 b 678 333 613 114 678 203 l 678 351 l 417 351 l 417 481 l 826 481 l 826 0 l 688 0 l 688 99 l 665 99 b 439 -19 642 44 589 -19 "},"Ĥ":{"ha":911,"x_min":0,"x_max":0,"o":"m 368 1228 l 543 1228 l 710 1053 l 550 1053 l 467 1150 l 444 1150 l 361 1053 l 201 1053 m 101 972 l 251 972 l 251 556 l 660 556 l 660 972 l 810 972 l 810 0 l 660 0 l 660 419 l 251 419 l 251 0 l 101 0 "},"Ħ":{"ha":911,"x_min":0,"x_max":0,"o":"m 101 704 l 0 704 l 0 810 l 101 810 l 101 972 l 251 972 l 251 810 l 660 810 l 660 972 l 810 972 l 810 810 l 911 810 l 911 704 l 810 704 l 810 0 l 660 0 l 660 419 l 251 419 l 251 0 l 101 0 m 660 556 l 660 704 l 251 704 l 251 556 "},"Ì":{"ha":353,"x_min":0,"x_max":0,"o":"m 4 1229 l 175 1229 l 269 1054 l 139 1054 m 101 972 l 251 972 l 251 0 l 101 0 "},"Í":{"ha":353,"x_min":0,"x_max":0,"o":"m 179 1228 l 349 1228 l 214 1053 l 83 1053 m 101 972 l 251 972 l 251 0 l 101 0 "},"Î":{"ha":353,"x_min":0,"x_max":0,"o":"m 89 1228 l 264 1228 l 431 1053 l 271 1053 l 188 1150 l 165 1150 l 82 1053 l -78 1053 m 101 972 l 251 972 l 251 0 l 101 0 "},"Ĩ":{"ha":353,"x_min":0,"x_max":0,"o":"m -65 1103 l -21 1167 b 90 1232 8 1207 42 1232 b 193 1185 135 1232 160 1217 b 256 1149 214 1165 231 1149 b 311 1186 281 1149 296 1167 l 340 1229 l 418 1172 l 374 1107 b 263 1042 346 1068 313 1042 b 160 1089 218 1042 193 1058 b 97 1126 139 1110 122 1126 b 42 1088 72 1126 57 1107 l 13 1044 m 101 972 l 251 972 l 251 0 l 101 0 "},"Ï":{"ha":353,"x_min":0,"x_max":0,"o":"m 322 1051 b 225 1149 267 1051 225 1089 b 322 1246 225 1207 267 1246 b 421 1149 379 1246 421 1207 b 322 1051 421 1089 379 1051 m 31 1051 b -67 1149 -25 1051 -67 1089 b 31 1246 -67 1207 -25 1246 b 129 1149 86 1246 129 1207 b 31 1051 129 1089 86 1051 m 101 972 l 251 972 l 251 0 l 101 0 "},"Ī":{"ha":353,"x_min":0,"x_max":0,"o":"m -44 1179 l 397 1179 l 397 1064 l -44 1064 m 101 972 l 251 972 l 251 0 l 101 0 "},"İ":{"ha":353,"x_min":0,"x_max":0,"o":"m 176 1051 b 78 1149 121 1051 78 1090 b 176 1246 78 1207 121 1246 b 275 1149 233 1246 275 1207 b 176 1051 275 1090 233 1051 m 101 972 l 251 972 l 251 0 l 101 0 "},"Į":{"ha":353,"x_min":0,"x_max":0,"o":"m 101 972 l 251 972 l 251 0 l 222 0 l 211 -62 b 206 -101 208 -78 206 -89 b 238 -131 206 -121 217 -131 l 299 -131 l 299 -232 l 203 -232 b 100 -139 140 -232 100 -197 b 113 -51 100 -111 106 -81 l 124 0 l 101 0 "},"Ĭ":{"ha":353,"x_min":0,"x_max":0,"o":"m 176 1044 b -42 1224 39 1044 -42 1115 l -42 1229 l 78 1229 l 78 1224 b 176 1135 78 1172 108 1135 b 275 1224 244 1135 275 1172 l 275 1229 l 394 1229 l 394 1224 b 176 1044 394 1115 314 1044 m 101 972 l 251 972 l 251 0 l 101 0 "},"Ĵ":{"ha":836,"x_min":0,"x_max":0,"o":"m 475 1228 l 650 1228 l 817 1053 l 657 1053 l 574 1150 l 551 1150 l 468 1053 l 308 1053 m 368 -19 b 50 292 172 -19 50 93 l 50 375 l 200 375 l 200 292 b 365 121 200 188 257 121 b 518 292 469 121 518 186 l 518 836 l 349 836 l 349 972 l 776 972 l 776 836 l 668 836 l 668 292 b 368 -19 668 90 558 -19 "},"Ĺ":{"ha":756,"x_min":0,"x_max":0,"o":"m 178 1228 l 347 1228 l 214 1053 l 83 1053 m 101 972 l 251 972 l 251 136 l 719 136 l 719 0 l 101 0 "},"Ľ":{"ha":756,"x_min":0,"x_max":0,"o":"m 101 972 l 251 972 l 251 136 l 719 136 l 719 0 l 101 0 m 353 972 l 493 972 l 442 703 l 342 703 "},"Ḹ":{"ha":756,"x_min":0,"x_max":0,"o":"m -44 1179 l 397 1179 l 397 1064 l -44 1064 m 101 972 l 251 972 l 251 136 l 719 136 l 719 0 l 101 0 m 411 -285 b 313 -187 354 -285 313 -244 b 411 -89 313 -129 354 -89 b 508 -187 467 -89 508 -129 b 411 -285 508 -244 467 -285 "},"Ł":{"ha":842,"x_min":0,"x_max":0,"o":"m 188 383 l 65 319 l 17 415 l 188 501 l 188 972 l 339 972 l 339 578 l 463 640 l 510 546 l 339 458 l 339 136 l 806 136 l 806 0 l 188 0 "},"Ŀ":{"ha":756,"x_min":0,"x_max":0,"o":"m 101 972 l 251 972 l 251 136 l 719 136 l 719 0 l 101 0 m 542 403 b 444 500 486 403 444 443 b 542 599 444 558 486 599 b 640 500 599 599 640 558 b 542 403 640 443 599 403 "},"Ń":{"ha":926,"x_min":0,"x_max":0,"o":"m 467 1228 l 636 1228 l 503 1053 l 371 1053 m 101 972 l 390 972 l 654 100 l 676 100 l 676 972 l 825 972 l 825 0 l 536 0 l 272 874 l 250 874 l 250 0 l 101 0 "},"Ň":{"ha":926,"x_min":0,"x_max":0,"o":"m 210 1228 l 371 1228 l 453 1131 l 475 1131 l 558 1228 l 719 1228 l 551 1053 l 376 1053 m 101 972 l 390 972 l 654 100 l 676 100 l 676 972 l 825 972 l 825 0 l 536 0 l 272 874 l 250 874 l 250 0 l 101 0 "},"Ñ":{"ha":926,"x_min":0,"x_max":0,"o":"m 224 1103 l 268 1167 b 379 1232 296 1207 329 1232 b 482 1185 422 1232 447 1217 b 543 1149 503 1165 518 1149 b 599 1186 569 1149 583 1167 l 628 1229 l 706 1172 l 661 1107 b 550 1042 633 1068 600 1042 b 447 1089 506 1042 482 1058 b 386 1126 426 1110 411 1126 b 331 1088 360 1126 344 1107 l 300 1044 m 101 972 l 390 972 l 654 100 l 676 100 l 676 972 l 825 972 l 825 0 l 536 0 l 272 874 l 250 874 l 250 0 l 101 0 "},"Ò":{"ha":935,"x_min":0,"x_max":0,"o":"m 296 1229 l 465 1229 l 560 1054 l 429 1054 m 467 -19 b 76 372 228 -19 76 118 l 76 600 b 467 992 76 854 228 992 b 858 600 706 992 858 854 l 858 372 b 467 -19 858 118 706 -19 m 467 115 b 707 367 618 115 707 211 l 707 606 b 467 857 707 761 618 857 b 226 606 315 857 226 761 l 226 367 b 467 115 226 211 315 115 "},"Ó":{"ha":935,"x_min":0,"x_max":0,"o":"m 469 1228 l 639 1228 l 506 1053 l 374 1053 m 467 -19 b 76 372 228 -19 76 118 l 76 600 b 467 992 76 854 228 992 b 858 600 706 992 858 854 l 858 372 b 467 -19 858 118 706 -19 m 467 115 b 707 367 618 115 707 211 l 707 606 b 467 857 707 761 618 857 b 226 606 315 857 226 761 l 226 367 b 467 115 226 211 315 115 "},"Ô":{"ha":935,"x_min":0,"x_max":0,"o":"m 379 1228 l 554 1228 l 722 1053 l 561 1053 l 478 1150 l 456 1150 l 372 1053 l 213 1053 m 467 -19 b 76 372 228 -19 76 118 l 76 600 b 467 992 76 854 228 992 b 858 600 706 992 858 854 l 858 372 b 467 -19 858 118 706 -19 m 467 115 b 707 367 618 115 707 211 l 707 606 b 467 857 707 761 618 857 b 226 606 315 857 226 761 l 226 367 b 467 115 226 211 315 115 "},"Õ":{"ha":935,"x_min":0,"x_max":0,"o":"m 226 1103 l 271 1167 b 382 1232 299 1207 332 1232 b 483 1185 425 1232 450 1217 b 546 1149 506 1165 521 1149 b 601 1186 572 1149 586 1167 l 631 1229 l 708 1172 l 664 1107 b 553 1042 636 1068 603 1042 b 450 1089 508 1042 485 1058 b 389 1126 429 1110 413 1126 b 332 1088 363 1126 347 1107 l 303 1044 m 467 -19 b 76 372 228 -19 76 118 l 76 600 b 467 992 76 854 228 992 b 858 600 706 992 858 854 l 858 372 b 467 -19 858 118 706 -19 m 467 115 b 707 367 618 115 707 211 l 707 606 b 467 857 707 761 618 857 b 226 606 315 857 226 761 l 226 367 b 467 115 226 211 315 115 "},"Ö":{"ha":935,"x_min":0,"x_max":0,"o":"m 613 1051 b 515 1149 557 1051 515 1089 b 613 1246 515 1207 557 1246 b 711 1149 669 1246 711 1207 b 613 1051 711 1089 669 1051 m 321 1051 b 224 1149 265 1051 224 1089 b 321 1246 224 1207 265 1246 b 419 1149 378 1246 419 1207 b 321 1051 419 1089 378 1051 m 467 -19 b 76 372 228 -19 76 118 l 76 600 b 467 992 76 854 228 992 b 858 600 706 992 858 854 l 858 372 b 467 -19 858 118 706 -19 m 467 115 b 707 367 618 115 707 211 l 707 606 b 467 857 707 761 618 857 b 226 606 315 857 226 761 l 226 367 b 467 115 226 211 315 115 "},"Ō":{"ha":935,"x_min":0,"x_max":0,"o":"m 246 1179 l 688 1179 l 688 1064 l 246 1064 m 467 -19 b 76 372 228 -19 76 118 l 76 600 b 467 992 76 854 228 992 b 858 600 706 992 858 854 l 858 372 b 467 -19 858 118 706 -19 m 467 115 b 707 367 618 115 707 211 l 707 606 b 467 857 707 761 618 857 b 226 606 315 857 226 761 l 226 367 b 467 115 226 211 315 115 "},"Ő":{"ha":935,"x_min":0,"x_max":0,"o":"m 586 1229 l 742 1229 l 610 1054 l 488 1054 m 357 1229 l 500 1229 l 392 1054 l 281 1054 m 467 -19 b 76 372 228 -19 76 118 l 76 600 b 467 992 76 854 228 992 b 858 600 706 992 858 854 l 858 372 b 467 -19 858 118 706 -19 m 467 115 b 707 367 618 115 707 211 l 707 606 b 467 857 707 761 618 857 b 226 606 315 857 226 761 l 226 367 b 467 115 226 211 315 115 "},"Ŏ":{"ha":935,"x_min":0,"x_max":0,"o":"m 467 1044 b 250 1224 329 1044 250 1115 l 250 1229 l 369 1229 l 369 1224 b 467 1135 369 1172 399 1135 b 565 1224 536 1135 565 1172 l 565 1229 l 685 1229 l 685 1224 b 467 1044 685 1115 604 1044 m 467 -19 b 76 372 228 -19 76 118 l 76 600 b 467 992 76 854 228 992 b 858 600 706 992 858 854 l 858 372 b 467 -19 858 118 706 -19 m 467 115 b 707 367 618 115 707 211 l 707 606 b 467 857 707 761 618 857 b 226 606 315 857 226 761 l 226 367 b 467 115 226 211 315 115 "},"Ø":{"ha":935,"x_min":0,"x_max":0,"o":"m 183 -85 l 235 40 b 76 372 133 103 76 215 l 76 600 b 467 992 76 854 228 992 b 611 972 519 992 567 985 l 654 1081 l 751 1040 l 706 928 b 858 600 803 864 858 753 l 858 372 b 467 -19 858 118 706 -19 b 331 -1 418 -19 372 -14 l 281 -125 m 226 367 b 292 182 226 289 249 225 l 558 843 b 467 857 531 853 500 857 b 226 606 315 857 226 761 l 226 367 m 467 115 b 707 367 618 115 707 211 l 707 606 b 649 785 707 681 686 742 l 383 126 b 467 115 408 119 436 115 "},"Œ":{"ha":1163,"x_min":0,"x_max":0,"o":"m 226 432 b 546 128 226 243 322 128 l 546 844 b 226 540 322 844 226 729 l 226 432 m 546 0 b 76 440 249 0 76 154 l 76 532 b 546 972 76 818 249 972 l 1100 972 l 1100 836 l 694 836 l 694 557 l 1061 557 l 1061 421 l 694 421 l 694 136 l 1107 136 l 1107 0 l 546 0 "},"Ŕ":{"ha":878,"x_min":0,"x_max":0,"o":"m 425 1228 l 594 1228 l 461 1053 l 329 1053 m 101 972 l 510 972 b 814 713 690 972 814 872 l 814 697 b 664 474 814 575 747 504 l 664 451 b 781 322 735 447 781 403 l 781 0 l 631 0 l 631 301 b 547 383 631 351 606 383 l 251 383 l 251 0 l 101 0 m 493 519 b 663 672 600 519 663 576 l 663 683 b 493 836 663 778 603 836 l 251 836 l 251 519 "},"Ř":{"ha":878,"x_min":0,"x_max":0,"o":"m 168 1228 l 328 1228 l 411 1131 l 433 1131 l 517 1228 l 676 1228 l 510 1053 l 335 1053 m 101 972 l 510 972 b 814 713 690 972 814 872 l 814 697 b 664 474 814 575 747 504 l 664 451 b 781 322 735 447 781 403 l 781 0 l 631 0 l 631 301 b 547 383 631 351 606 383 l 251 383 l 251 0 l 101 0 m 493 519 b 663 672 600 519 663 576 l 663 683 b 493 836 663 778 603 836 l 251 836 l 251 519 "},"Ṝ":{"ha":878,"x_min":0,"x_max":0,"o":"m 201 1179 l 643 1179 l 643 1064 l 201 1064 m 101 972 l 510 972 b 814 713 690 972 814 872 l 814 697 b 664 474 814 575 747 504 l 664 451 b 781 322 735 447 781 403 l 781 0 l 631 0 l 631 301 b 547 383 631 351 606 383 l 251 383 l 251 0 l 101 0 m 493 519 b 663 672 600 519 663 576 l 663 683 b 493 836 663 778 603 836 l 251 836 l 251 519 m 438 -285 b 339 -187 382 -285 339 -244 b 438 -89 339 -129 382 -89 b 536 -187 494 -89 536 -129 b 438 -285 536 -244 494 -285 "},"Ś":{"ha":847,"x_min":0,"x_max":0,"o":"m 424 1228 l 593 1228 l 458 1053 l 328 1053 m 432 -19 b 57 318 214 -19 57 100 l 57 353 l 206 353 l 206 318 b 432 113 206 179 294 113 b 642 269 569 113 642 178 b 436 424 642 363 564 394 l 385 436 b 79 717 197 479 79 546 b 415 992 79 888 214 992 b 768 683 618 992 768 888 l 768 633 l 619 633 l 619 683 b 415 860 619 808 538 860 b 228 721 296 860 228 808 b 417 569 228 633 293 597 l 468 557 b 790 272 656 515 790 447 b 432 -19 790 99 650 -19 "},"Ŝ":{"ha":847,"x_min":0,"x_max":0,"o":"m 333 1228 l 508 1228 l 675 1053 l 515 1053 l 432 1150 l 410 1150 l 326 1053 l 167 1053 m 432 -19 b 57 318 214 -19 57 100 l 57 353 l 206 353 l 206 318 b 432 113 206 179 294 113 b 642 269 569 113 642 178 b 436 424 642 363 564 394 l 385 436 b 79 717 197 479 79 546 b 415 992 79 888 214 992 b 768 683 618 992 768 888 l 768 633 l 619 633 l 619 683 b 415 860 619 808 538 860 b 228 721 296 860 228 808 b 417 569 228 633 293 597 l 468 557 b 790 272 656 515 790 447 b 432 -19 790 99 650 -19 "},"Š":{"ha":847,"x_min":0,"x_max":0,"o":"m 167 1228 l 326 1228 l 410 1131 l 432 1131 l 515 1228 l 675 1228 l 508 1053 l 333 1053 m 432 -19 b 57 318 214 -19 57 100 l 57 353 l 206 353 l 206 318 b 432 113 206 179 294 113 b 642 269 569 113 642 178 b 436 424 642 363 564 394 l 385 436 b 79 717 197 479 79 546 b 415 992 79 888 214 992 b 768 683 618 992 768 888 l 768 633 l 619 633 l 619 683 b 415 860 619 808 538 860 b 228 721 296 860 228 808 b 417 569 228 633 293 597 l 468 557 b 790 272 656 515 790 447 b 432 -19 790 99 650 -19 "},"Ş":{"ha":847,"x_min":0,"x_max":0,"o":"m 442 -292 b 289 -258 383 -292 328 -276 l 319 -171 b 436 -199 353 -186 389 -199 b 503 -156 475 -199 503 -185 b 433 -114 503 -128 479 -114 l 382 -114 l 390 -18 b 57 318 193 -3 57 114 l 57 353 l 206 353 l 206 318 b 432 113 206 179 294 113 b 642 269 569 113 642 178 b 436 424 642 363 564 394 l 385 436 b 79 717 197 479 79 546 b 415 992 79 888 214 992 b 768 683 618 992 768 888 l 768 633 l 619 633 l 619 683 b 415 860 619 808 538 860 b 228 721 296 860 228 808 b 417 569 228 633 293 597 l 468 557 b 790 272 656 515 790 447 b 490 -17 790 114 675 3 l 488 -58 b 611 -171 558 -58 611 -97 b 442 -292 611 -254 531 -292 "},"Ť":{"ha":817,"x_min":0,"x_max":0,"o":"m 154 1228 l 314 1228 l 397 1131 l 419 1131 l 503 1228 l 663 1228 l 496 1053 l 321 1053 m 333 836 l 35 836 l 35 972 l 782 972 l 782 836 l 483 836 l 483 0 l 333 0 "},"Ŧ":{"ha":817,"x_min":0,"x_max":0,"o":"m 333 432 l 185 432 l 185 538 l 333 538 l 333 836 l 35 836 l 35 972 l 782 972 l 782 836 l 483 836 l 483 538 l 632 538 l 632 432 l 483 432 l 483 0 l 333 0 "},"Ù":{"ha":929,"x_min":0,"x_max":0,"o":"m 293 1229 l 463 1229 l 558 1054 l 426 1054 m 465 -19 b 94 333 236 -19 94 110 l 94 972 l 246 972 l 246 329 b 465 115 246 192 324 115 b 685 329 606 115 685 192 l 685 972 l 835 972 l 835 333 b 465 -19 835 110 693 -19 "},"Ú":{"ha":929,"x_min":0,"x_max":0,"o":"m 467 1228 l 636 1228 l 503 1053 l 371 1053 m 465 -19 b 94 333 236 -19 94 110 l 94 972 l 246 972 l 246 329 b 465 115 246 192 324 115 b 685 329 606 115 685 192 l 685 972 l 835 972 l 835 333 b 465 -19 835 110 693 -19 "},"Û":{"ha":929,"x_min":0,"x_max":0,"o":"m 378 1228 l 553 1228 l 719 1053 l 558 1053 l 476 1150 l 454 1150 l 371 1053 l 210 1053 m 465 -19 b 94 333 236 -19 94 110 l 94 972 l 246 972 l 246 329 b 465 115 246 192 324 115 b 685 329 606 115 685 192 l 685 972 l 835 972 l 835 333 b 465 -19 835 110 693 -19 "},"Ũ":{"ha":929,"x_min":0,"x_max":0,"o":"m 224 1103 l 268 1167 b 379 1232 296 1207 329 1232 b 482 1185 424 1232 447 1217 b 543 1149 503 1165 518 1149 b 599 1186 569 1149 585 1167 l 629 1229 l 706 1172 l 661 1107 b 550 1042 633 1068 600 1042 b 447 1089 507 1042 482 1058 b 386 1126 426 1110 411 1126 b 331 1088 360 1126 344 1107 l 301 1044 m 465 -19 b 94 333 236 -19 94 110 l 94 972 l 246 972 l 246 329 b 465 115 246 192 324 115 b 685 329 606 115 685 192 l 685 972 l 835 972 l 835 333 b 465 -19 835 110 693 -19 "},"Ü":{"ha":929,"x_min":0,"x_max":0,"o":"m 611 1051 b 513 1149 554 1051 513 1089 b 611 1246 513 1207 554 1246 b 708 1149 667 1246 708 1207 b 611 1051 708 1089 667 1051 m 319 1051 b 221 1149 263 1051 221 1089 b 319 1246 221 1207 263 1246 b 417 1149 375 1246 417 1207 b 319 1051 417 1089 375 1051 m 465 -19 b 94 333 236 -19 94 110 l 94 972 l 246 972 l 246 329 b 465 115 246 192 324 115 b 685 329 606 115 685 192 l 685 972 l 835 972 l 835 333 b 465 -19 835 110 693 -19 "},"Ū":{"ha":929,"x_min":0,"x_max":0,"o":"m 244 1179 l 686 1179 l 686 1064 l 244 1064 m 465 -19 b 94 333 236 -19 94 110 l 94 972 l 246 972 l 246 329 b 465 115 246 192 324 115 b 685 329 606 115 685 192 l 685 972 l 835 972 l 835 333 b 465 -19 835 110 693 -19 "},"Ŭ":{"ha":929,"x_min":0,"x_max":0,"o":"m 465 1044 b 247 1224 328 1044 247 1115 l 247 1229 l 367 1229 l 367 1224 b 465 1135 367 1172 397 1135 b 564 1224 533 1135 564 1172 l 564 1229 l 683 1229 l 683 1224 b 465 1044 683 1115 601 1044 m 465 -19 b 94 333 236 -19 94 110 l 94 972 l 246 972 l 246 329 b 465 115 246 192 324 115 b 685 329 606 115 685 192 l 685 972 l 835 972 l 835 333 b 465 -19 835 110 693 -19 "},"Ů":{"ha":929,"x_min":0,"x_max":0,"o":"m 465 1039 b 324 1175 388 1039 324 1096 b 465 1311 324 1254 385 1311 b 606 1175 544 1311 606 1256 b 465 1039 606 1093 542 1039 m 465 1125 b 515 1175 496 1125 515 1146 b 465 1225 515 1204 496 1225 b 414 1175 435 1225 414 1204 b 465 1125 414 1146 435 1125 m 465 -19 b 94 333 236 -19 94 110 l 94 972 l 246 972 l 246 329 b 465 115 246 192 324 115 b 685 329 606 115 685 192 l 685 972 l 835 972 l 835 333 b 465 -19 835 110 693 -19 "},"Ű":{"ha":929,"x_min":0,"x_max":0,"o":"m 583 1229 l 739 1229 l 607 1054 l 485 1054 m 356 1229 l 499 1229 l 389 1054 l 278 1054 m 465 -19 b 94 333 236 -19 94 110 l 94 972 l 246 972 l 246 329 b 465 115 246 192 324 115 b 685 329 606 115 685 192 l 685 972 l 835 972 l 835 333 b 465 -19 835 110 693 -19 "},"Ų":{"ha":929,"x_min":0,"x_max":0,"o":"m 465 -19 b 94 333 236 -19 94 110 l 94 972 l 246 972 l 246 329 b 465 115 246 192 324 115 b 685 329 606 115 685 192 l 685 972 l 835 972 l 835 333 b 624 6 835 168 757 54 l 611 -62 b 606 -101 608 -78 606 -89 b 638 -131 606 -121 617 -131 l 699 -131 l 699 -232 l 603 -232 b 500 -139 540 -232 500 -197 b 513 -51 500 -111 506 -81 l 521 -17 b 465 -19 503 -18 483 -19 "},"Ŵ":{"ha":1232,"x_min":0,"x_max":0,"o":"m 528 1228 l 703 1228 l 871 1053 l 710 1053 l 626 1150 l 604 1150 l 522 1053 l 361 1053 m 47 972 l 196 972 l 313 101 l 335 101 l 485 972 l 747 972 l 897 101 l 919 101 l 1035 972 l 1185 972 l 1042 0 l 779 0 l 626 883 l 604 883 l 453 0 l 189 0 "},"Ý":{"ha":857,"x_min":0,"x_max":0,"o":"m 431 1228 l 600 1228 l 467 1053 l 335 1053 m 353 353 l 15 972 l 185 972 l 418 532 l 439 532 l 672 972 l 842 972 l 504 353 l 504 0 l 353 0 "},"Ŷ":{"ha":857,"x_min":0,"x_max":0,"o":"m 342 1228 l 515 1228 l 683 1053 l 522 1053 l 439 1150 l 418 1150 l 335 1053 l 174 1053 m 353 353 l 15 972 l 185 972 l 418 532 l 439 532 l 672 972 l 842 972 l 504 353 l 504 0 l 353 0 "},"Ÿ":{"ha":857,"x_min":0,"x_max":0,"o":"m 575 1051 b 476 1149 518 1051 476 1089 b 575 1246 476 1207 518 1246 b 672 1149 631 1246 672 1207 b 575 1051 672 1089 631 1051 m 282 1051 b 185 1149 226 1051 185 1089 b 282 1246 185 1207 226 1246 b 381 1149 339 1246 381 1207 b 282 1051 381 1089 339 1051 m 353 353 l 15 972 l 185 972 l 418 532 l 439 532 l 672 972 l 842 972 l 504 353 l 504 0 l 353 0 "},"Ź":{"ha":801,"x_min":0,"x_max":0,"o":"m 404 1228 l 574 1228 l 440 1053 l 308 1053 m 67 194 l 578 818 l 578 838 l 82 838 l 82 972 l 732 972 l 732 778 l 221 154 l 221 135 l 738 135 l 738 0 l 67 0 "},"Ž":{"ha":801,"x_min":0,"x_max":0,"o":"m 147 1228 l 308 1228 l 392 1131 l 413 1131 l 496 1228 l 657 1228 l 489 1053 l 315 1053 m 67 194 l 578 818 l 578 838 l 82 838 l 82 972 l 732 972 l 732 778 l 221 154 l 221 135 l 738 135 l 738 0 l 67 0 "},"Ż":{"ha":801,"x_min":0,"x_max":0,"o":"m 403 1051 b 304 1149 346 1051 304 1090 b 403 1246 304 1207 346 1246 b 500 1149 458 1246 500 1207 b 403 1051 500 1090 458 1051 m 67 194 l 578 818 l 578 838 l 82 838 l 82 972 l 732 972 l 732 778 l 221 154 l 221 135 l 738 135 l 738 0 l 67 0 "},"Þ":{"ha":838,"x_min":0,"x_max":0,"o":"m 101 972 l 251 972 l 251 800 l 488 800 b 796 510 667 800 796 689 l 796 492 b 488 201 796 313 661 201 l 251 201 l 251 0 l 101 0 m 251 664 l 251 338 l 472 338 b 646 494 576 338 646 396 l 646 507 b 472 664 646 606 579 664 "},"Ŋ":{"ha":926,"x_min":0,"x_max":0,"o":"m 101 972 l 390 972 l 653 100 l 675 100 l 675 972 l 825 972 l 825 -140 b 689 -278 825 -228 771 -278 l 503 -278 l 503 -157 l 640 -157 b 679 -115 667 -157 679 -143 l 679 0 l 536 0 l 274 874 l 251 874 l 251 0 l 101 0 "},"Ĳ":{"ha":1006,"x_min":0,"x_max":0,"o":"m 169 836 l 56 836 l 56 972 l 435 972 l 435 836 l 321 836 l 321 463 l 169 463 m 508 -19 b 169 294 300 -19 169 94 l 169 318 l 321 318 l 321 294 b 506 121 321 188 383 121 b 679 294 625 121 679 186 l 679 835 l 565 835 l 565 972 l 944 972 l 944 835 l 831 835 l 831 294 b 508 -19 831 90 714 -19 "},"":{"ha":1008,"x_min":0,"x_max":0,"o":"m 247 1228 l 417 1228 l 283 1053 l 151 1053 m 768 1228 l 938 1228 l 793 1053 l 661 1053 m 169 836 l 56 836 l 56 972 l 435 972 l 435 836 l 321 836 l 321 463 l 169 463 m 508 -19 b 169 294 300 -19 169 94 l 169 318 l 321 318 l 321 294 b 506 121 321 188 383 121 b 679 294 625 121 679 186 l 679 835 l 565 835 l 565 972 l 944 972 l 944 835 l 831 835 l 831 294 b 508 -19 831 90 714 -19 "},"à":{"ha":801,"x_min":0,"x_max":0,"o":"m 211 972 l 376 972 l 481 775 l 351 775 m 318 -19 b 61 197 172 -19 61 58 b 322 408 61 336 172 408 l 531 408 l 531 453 b 383 585 531 532 483 585 b 219 460 285 585 236 533 l 86 503 b 385 704 119 611 210 704 b 671 443 563 704 671 610 l 671 161 b 710 119 671 133 685 119 l 768 119 l 768 0 l 661 0 b 553 93 597 0 553 36 l 553 97 l 531 97 b 318 -19 510 53 460 -19 m 339 99 b 531 283 453 99 531 168 l 531 297 l 331 297 b 204 201 254 297 204 264 b 339 99 204 139 254 99 "},"á":{"ha":801,"x_min":0,"x_max":0,"o":"m 406 967 l 571 967 l 431 768 l 301 768 m 318 -19 b 61 197 172 -19 61 58 b 322 408 61 336 172 408 l 531 408 l 531 453 b 383 585 531 532 483 585 b 219 460 285 585 236 533 l 86 503 b 385 704 119 611 210 704 b 671 443 563 704 671 610 l 671 161 b 710 119 671 133 685 119 l 768 119 l 768 0 l 661 0 b 553 93 597 0 553 36 l 553 97 l 531 97 b 318 -19 510 53 460 -19 m 339 99 b 531 283 453 99 531 168 l 531 297 l 331 297 b 204 201 254 297 204 264 b 339 99 204 139 254 99 "},"â":{"ha":801,"x_min":0,"x_max":0,"o":"m 304 967 l 476 967 l 644 768 l 493 768 l 401 878 l 379 878 l 289 768 l 138 768 m 318 -19 b 61 197 172 -19 61 58 b 322 408 61 336 172 408 l 531 408 l 531 453 b 383 585 531 532 483 585 b 219 460 285 585 236 533 l 86 503 b 385 704 119 611 210 704 b 671 443 563 704 671 610 l 671 161 b 710 119 671 133 685 119 l 768 119 l 768 0 l 661 0 b 553 93 597 0 553 36 l 553 97 l 531 97 b 318 -19 510 53 460 -19 m 339 99 b 531 283 453 99 531 168 l 531 297 l 331 297 b 204 201 254 297 204 264 b 339 99 204 139 254 99 "},"ã":{"ha":801,"x_min":0,"x_max":0,"o":"m 154 806 l 197 885 b 304 949 222 928 258 949 b 401 901 343 949 371 933 b 461 863 422 882 439 863 b 513 900 486 863 500 881 l 540 947 l 622 896 l 578 817 b 472 753 554 775 518 753 b 374 800 432 753 404 768 b 314 839 354 819 338 839 b 264 801 290 839 276 821 l 236 756 m 318 -19 b 61 197 172 -19 61 58 b 322 408 61 336 172 408 l 531 408 l 531 453 b 383 585 531 532 483 585 b 219 460 285 585 236 533 l 86 503 b 385 704 119 611 210 704 b 671 443 563 704 671 610 l 671 161 b 710 119 671 133 685 119 l 768 119 l 768 0 l 661 0 b 553 93 597 0 553 36 l 553 97 l 531 97 b 318 -19 510 53 460 -19 m 339 99 b 531 283 453 99 531 168 l 531 297 l 331 297 b 204 201 254 297 204 264 b 339 99 204 139 254 99 "},"ä":{"ha":801,"x_min":0,"x_max":0,"o":"m 528 774 b 429 871 471 774 429 813 b 528 968 429 929 471 968 b 625 871 583 968 625 929 b 528 774 625 813 583 774 m 254 774 b 156 871 199 774 156 813 b 254 968 156 929 199 968 b 351 871 310 968 351 929 b 254 774 351 813 310 774 m 318 -19 b 61 197 172 -19 61 58 b 322 408 61 336 172 408 l 531 408 l 531 453 b 383 585 531 532 483 585 b 219 460 285 585 236 533 l 86 503 b 385 704 119 611 210 704 b 671 443 563 704 671 610 l 671 161 b 710 119 671 133 685 119 l 768 119 l 768 0 l 661 0 b 553 93 597 0 553 36 l 553 97 l 531 97 b 318 -19 510 53 460 -19 m 339 99 b 531 283 453 99 531 168 l 531 297 l 331 297 b 204 201 254 297 204 264 b 339 99 204 139 254 99 "},"ā":{"ha":801,"x_min":0,"x_max":0,"o":"m 169 907 l 611 907 l 611 792 l 169 792 m 318 -19 b 61 197 172 -19 61 58 b 322 408 61 336 172 408 l 531 408 l 531 453 b 383 585 531 532 483 585 b 219 460 285 585 236 533 l 86 503 b 385 704 119 611 210 704 b 671 443 563 704 671 610 l 671 161 b 710 119 671 133 685 119 l 768 119 l 768 0 l 661 0 b 553 93 597 0 553 36 l 553 97 l 531 97 b 318 -19 510 53 460 -19 m 339 99 b 531 283 453 99 531 168 l 531 297 l 331 297 b 204 201 254 297 204 264 b 339 99 204 139 254 99 "},"ă":{"ha":801,"x_min":0,"x_max":0,"o":"m 390 764 b 174 958 256 764 174 836 l 174 967 l 294 967 l 294 960 b 390 861 294 904 325 861 b 486 960 457 861 486 904 l 486 967 l 608 967 l 608 958 b 390 764 608 836 525 764 m 318 -19 b 61 197 172 -19 61 58 b 322 408 61 336 172 408 l 531 408 l 531 453 b 383 585 531 532 483 585 b 219 460 285 585 236 533 l 86 503 b 385 704 119 611 210 704 b 671 443 563 704 671 610 l 671 161 b 710 119 671 133 685 119 l 768 119 l 768 0 l 661 0 b 553 93 597 0 553 36 l 553 97 l 531 97 b 318 -19 510 53 460 -19 m 339 99 b 531 283 453 99 531 168 l 531 297 l 331 297 b 204 201 254 297 204 264 b 339 99 204 139 254 99 "},"å":{"ha":801,"x_min":0,"x_max":0,"o":"m 390 751 b 250 888 313 751 250 808 b 390 1024 250 965 311 1024 b 532 888 471 1024 532 968 b 390 751 532 804 467 751 m 390 836 b 442 888 422 836 442 858 b 390 938 442 917 422 938 b 340 888 361 938 340 917 b 390 836 340 858 361 836 m 318 -19 b 61 197 172 -19 61 58 b 322 408 61 336 172 408 l 531 408 l 531 453 b 383 585 531 532 483 585 b 219 460 285 585 236 533 l 86 503 b 385 704 119 611 210 704 b 671 443 563 704 671 610 l 671 161 b 710 119 671 133 685 119 l 768 119 l 768 0 l 661 0 b 553 93 597 0 553 36 l 553 97 l 531 97 b 318 -19 510 53 460 -19 m 339 99 b 531 283 453 99 531 168 l 531 297 l 331 297 b 204 201 254 297 204 264 b 339 99 204 139 254 99 "},"ą":{"ha":801,"x_min":0,"x_max":0,"o":"m 318 -19 b 61 197 172 -19 61 58 b 322 408 61 336 172 408 l 531 408 l 531 453 b 383 585 531 532 483 585 b 219 460 285 585 236 533 l 86 503 b 385 704 119 611 210 704 b 671 443 563 704 671 610 l 671 161 b 710 119 671 133 685 119 l 768 119 l 768 0 l 700 0 l 689 -62 b 683 -101 686 -78 683 -89 b 714 -131 683 -121 694 -131 l 775 -131 l 775 -232 l 681 -232 b 576 -139 618 -232 576 -197 b 589 -51 576 -111 582 -81 l 604 13 b 553 93 572 26 553 56 l 553 97 l 531 97 b 318 -19 510 53 460 -19 m 339 99 b 531 283 453 99 531 168 l 531 297 l 331 297 b 204 201 254 297 204 264 b 339 99 204 139 254 99 "},"æ":{"ha":1249,"x_min":0,"x_max":0,"o":"m 335 -19 b 61 196 175 -19 61 57 b 329 406 61 335 172 406 l 539 406 l 539 453 b 382 585 539 531 482 585 b 208 460 285 585 229 533 l 81 504 b 382 704 117 611 210 704 b 613 592 499 704 572 658 l 632 592 b 869 704 689 661 772 704 b 1182 368 1064 704 1182 561 l 1182 296 l 679 296 b 875 106 685 182 760 106 b 1056 217 979 106 1028 163 l 1165 143 b 881 -19 1113 60 1038 -19 b 615 121 765 -19 674 36 l 596 121 b 335 -19 567 63 496 -19 m 1040 406 b 865 578 1036 515 968 578 b 681 406 758 578 688 511 m 347 97 b 539 285 461 97 539 169 l 539 296 l 338 296 b 201 200 256 296 201 263 b 347 97 201 138 257 97 "},"ç":{"ha":822,"x_min":0,"x_max":0,"o":"m 426 -292 b 274 -258 368 -292 313 -276 l 304 -171 b 421 -199 336 -186 374 -199 b 486 -156 458 -199 486 -185 b 418 -114 486 -128 464 -114 l 367 -114 l 374 -17 b 72 333 200 4 72 131 l 72 351 b 424 704 72 572 225 704 b 758 440 621 704 732 585 l 619 411 b 426 576 607 503 547 576 b 215 349 307 576 215 493 l 215 336 b 426 108 215 192 307 108 b 624 274 547 108 607 178 l 763 242 b 475 -17 733 113 639 1 l 471 -58 b 594 -171 543 -58 594 -97 b 426 -292 594 -254 514 -292 "},"ć":{"ha":822,"x_min":0,"x_max":0,"o":"m 439 967 l 604 967 l 464 768 l 335 768 m 424 -19 b 72 333 225 -19 72 111 l 72 351 b 424 704 72 572 225 704 b 758 440 621 704 732 585 l 619 411 b 426 576 607 503 547 576 b 215 349 307 576 215 493 l 215 336 b 426 108 215 192 307 108 b 624 274 547 108 607 178 l 763 242 b 424 -19 731 99 621 -19 "},"ĉ":{"ha":822,"x_min":0,"x_max":0,"o":"m 338 967 l 511 967 l 678 768 l 526 768 l 435 878 l 414 878 l 322 768 l 171 768 m 424 -19 b 72 333 225 -19 72 111 l 72 351 b 424 704 72 572 225 704 b 758 440 621 704 732 585 l 619 411 b 426 576 607 503 547 576 b 215 349 307 576 215 493 l 215 336 b 426 108 215 192 307 108 b 624 274 547 108 607 178 l 763 242 b 424 -19 731 99 621 -19 "},"č":{"ha":822,"x_min":0,"x_max":0,"o":"m 171 967 l 322 967 l 414 857 l 435 857 l 526 967 l 678 967 l 511 768 l 338 768 m 424 -19 b 72 333 225 -19 72 111 l 72 351 b 424 704 72 572 225 704 b 758 440 621 704 732 585 l 619 411 b 426 576 607 503 547 576 b 215 349 307 576 215 493 l 215 336 b 426 108 215 192 307 108 b 624 274 547 108 607 178 l 763 242 b 424 -19 731 99 621 -19 "},"ċ":{"ha":822,"x_min":0,"x_max":0,"o":"m 424 778 b 326 875 368 778 326 817 b 424 972 326 933 368 972 b 522 875 481 972 522 933 b 424 778 522 817 481 778 m 424 -19 b 72 333 225 -19 72 111 l 72 351 b 424 704 72 572 225 704 b 758 440 621 704 732 585 l 619 411 b 426 576 607 503 547 576 b 215 349 307 576 215 493 l 215 336 b 426 108 215 192 307 108 b 624 274 547 108 607 178 l 763 242 b 424 -19 731 99 621 -19 "},"ð":{"ha":854,"x_min":0,"x_max":0,"o":"m 428 -19 b 72 333 217 -21 72 122 l 72 349 b 390 694 72 556 213 692 b 599 607 489 694 553 658 l 619 607 b 461 833 597 696 544 772 l 397 746 l 326 797 l 386 879 b 272 928 351 897 314 914 l 317 1040 b 460 979 368 1024 415 1004 l 518 1061 l 590 1008 l 533 932 b 783 388 696 811 783 625 b 428 -19 783 122 640 -18 m 426 108 b 639 338 551 108 639 194 l 639 344 b 426 575 639 488 553 575 b 215 344 301 575 215 488 l 215 338 b 426 108 215 194 303 108 "},"ď":{"ha":1000,"x_min":0,"x_max":0,"o":"m 389 -19 b 72 332 218 -19 72 110 l 72 353 b 389 704 72 574 217 704 b 619 592 522 704 588 647 l 642 592 l 642 972 l 785 972 l 785 0 l 644 0 l 644 97 l 622 97 b 389 -19 588 38 522 -19 m 885 972 l 1025 972 l 975 703 l 874 703 m 429 106 b 643 336 553 106 643 189 l 643 349 b 429 578 643 496 554 578 b 217 349 306 578 217 496 l 217 336 b 429 106 217 189 307 106 "},"đ":{"ha":890,"x_min":0,"x_max":0,"o":"m 389 -19 b 72 332 218 -19 72 110 l 72 353 b 389 704 72 574 217 704 b 619 592 522 704 588 647 l 642 592 l 642 778 l 424 778 l 424 861 l 642 861 l 642 972 l 785 972 l 785 861 l 886 861 l 886 778 l 785 778 l 785 0 l 644 0 l 644 97 l 622 97 b 389 -19 588 38 522 -19 m 429 106 b 643 336 553 106 643 189 l 643 349 b 429 578 643 496 554 578 b 217 349 306 578 217 496 l 217 336 b 429 106 217 189 307 106 "},"è":{"ha":811,"x_min":0,"x_max":0,"o":"m 233 972 l 399 972 l 503 775 l 374 775 m 419 -19 b 72 333 211 -19 72 121 l 72 350 b 414 704 72 564 213 704 b 744 357 611 704 744 565 l 744 303 l 218 303 b 422 106 222 182 307 106 b 607 225 531 106 578 161 l 726 164 b 419 -19 685 85 604 -19 m 600 413 b 413 578 592 515 519 578 b 219 413 304 578 233 515 "},"é":{"ha":811,"x_min":0,"x_max":0,"o":"m 429 967 l 594 967 l 454 768 l 324 768 m 419 -19 b 72 333 211 -19 72 121 l 72 350 b 414 704 72 564 213 704 b 744 357 611 704 744 565 l 744 303 l 218 303 b 422 106 222 182 307 106 b 607 225 531 106 578 161 l 726 164 b 419 -19 685 85 604 -19 m 600 413 b 413 578 592 515 519 578 b 219 413 304 578 233 515 "},"ê":{"ha":811,"x_min":0,"x_max":0,"o":"m 328 967 l 500 967 l 667 768 l 517 768 l 425 878 l 403 878 l 311 768 l 161 768 m 419 -19 b 72 333 211 -19 72 121 l 72 350 b 414 704 72 564 213 704 b 744 357 611 704 744 565 l 744 303 l 218 303 b 422 106 222 182 307 106 b 607 225 531 106 578 161 l 726 164 b 419 -19 685 85 604 -19 m 600 413 b 413 578 592 515 519 578 b 219 413 304 578 233 515 "},"ě":{"ha":811,"x_min":0,"x_max":0,"o":"m 161 967 l 311 967 l 403 857 l 425 857 l 517 967 l 667 967 l 500 768 l 328 768 m 419 -19 b 72 333 211 -19 72 121 l 72 350 b 414 704 72 564 213 704 b 744 357 611 704 744 565 l 744 303 l 218 303 b 422 106 222 182 307 106 b 607 225 531 106 578 161 l 726 164 b 419 -19 685 85 604 -19 m 600 413 b 413 578 592 515 519 578 b 219 413 304 578 233 515 "},"ë":{"ha":811,"x_min":0,"x_max":0,"o":"m 550 774 b 453 871 494 774 453 813 b 550 968 453 929 494 968 b 649 871 607 968 649 929 b 550 774 649 813 607 774 m 276 774 b 179 871 221 774 179 813 b 276 968 179 929 221 968 b 375 871 333 968 375 929 b 276 774 375 813 333 774 m 419 -19 b 72 333 211 -19 72 121 l 72 350 b 414 704 72 564 213 704 b 744 357 611 704 744 565 l 744 303 l 218 303 b 422 106 222 182 307 106 b 607 225 531 106 578 161 l 726 164 b 419 -19 685 85 604 -19 m 600 413 b 413 578 592 515 519 578 b 219 413 304 578 233 515 "},"ē":{"ha":811,"x_min":0,"x_max":0,"o":"m 193 907 l 635 907 l 635 792 l 193 792 m 419 -19 b 72 333 211 -19 72 121 l 72 350 b 414 704 72 564 213 704 b 744 357 611 704 744 565 l 744 303 l 218 303 b 422 106 222 182 307 106 b 607 225 531 106 578 161 l 726 164 b 419 -19 685 85 604 -19 m 600 413 b 413 578 592 515 519 578 b 219 413 304 578 233 515 "},"ĕ":{"ha":811,"x_min":0,"x_max":0,"o":"m 414 764 b 196 958 279 764 196 836 l 196 967 l 318 967 l 318 960 b 414 861 318 904 347 861 b 510 960 479 861 510 904 l 510 967 l 631 967 l 631 958 b 414 764 631 836 547 764 m 419 -19 b 72 333 211 -19 72 121 l 72 350 b 414 704 72 564 213 704 b 744 357 611 704 744 565 l 744 303 l 218 303 b 422 106 222 182 307 106 b 607 225 531 106 578 161 l 726 164 b 419 -19 685 85 604 -19 m 600 413 b 413 578 592 515 519 578 b 219 413 304 578 233 515 "},"ę":{"ha":811,"x_min":0,"x_max":0,"o":"m 419 -19 b 72 333 211 -19 72 121 l 72 350 b 414 704 72 564 213 704 b 744 357 611 704 744 565 l 744 303 l 218 303 b 422 106 222 182 307 106 b 607 225 531 106 578 161 l 726 164 b 575 13 699 113 656 49 l 563 -62 b 557 -101 560 -78 557 -89 b 588 -131 557 -121 568 -131 l 649 -131 l 649 -232 l 554 -232 b 450 -139 492 -232 450 -197 b 463 -51 450 -111 456 -81 l 471 -17 b 419 -19 454 -18 438 -19 m 600 413 b 413 578 592 515 519 578 b 219 413 304 578 233 515 "},"ė":{"ha":811,"x_min":0,"x_max":0,"o":"m 414 778 b 315 875 357 778 315 817 b 414 972 315 933 357 972 b 513 875 469 972 513 933 b 414 778 513 817 469 778 m 419 -19 b 72 333 211 -19 72 121 l 72 350 b 414 704 72 564 213 704 b 744 357 611 704 744 565 l 744 303 l 218 303 b 422 106 222 182 307 106 b 607 225 531 106 578 161 l 726 164 b 419 -19 685 85 604 -19 m 600 413 b 413 578 592 515 519 578 b 219 413 304 578 233 515 "},"ĝ":{"ha":889,"x_min":0,"x_max":0,"o":"m 371 967 l 543 967 l 711 768 l 560 768 l 468 878 l 446 878 l 356 768 l 204 768 m 72 360 b 390 704 72 575 217 704 b 622 586 524 704 589 643 l 644 586 l 644 685 l 783 685 l 783 -140 b 646 -278 783 -225 731 -278 l 185 -278 l 185 -153 l 601 -153 b 642 -111 628 -153 642 -139 l 642 107 l 619 107 b 390 -4 589 54 525 -4 b 72 339 217 -4 72 125 m 429 121 b 643 343 553 121 643 203 l 643 356 b 429 578 643 496 554 578 b 217 356 306 578 217 496 l 217 343 b 429 121 217 203 307 121 "},"ğ":{"ha":889,"x_min":0,"x_max":0,"o":"m 457 764 b 240 958 322 764 240 836 l 240 967 l 361 967 l 361 960 b 457 861 361 904 392 861 b 553 960 524 861 553 904 l 553 967 l 675 967 l 675 958 b 457 764 675 836 592 764 m 72 360 b 390 704 72 575 217 704 b 622 586 524 704 589 643 l 644 586 l 644 685 l 783 685 l 783 -140 b 646 -278 783 -225 731 -278 l 185 -278 l 185 -153 l 601 -153 b 642 -111 628 -153 642 -139 l 642 107 l 619 107 b 390 -4 589 54 525 -4 b 72 339 217 -4 72 125 m 429 121 b 643 343 553 121 643 203 l 643 356 b 429 578 643 496 554 578 b 217 356 306 578 217 496 l 217 343 b 429 121 217 203 307 121 "},"ġ":{"ha":889,"x_min":0,"x_max":0,"o":"m 457 778 b 360 875 401 778 360 817 b 457 972 360 933 401 972 b 556 875 514 972 556 933 b 457 778 556 817 514 778 m 72 360 b 390 704 72 575 217 704 b 622 586 524 704 589 643 l 644 586 l 644 685 l 783 685 l 783 -140 b 646 -278 783 -225 731 -278 l 185 -278 l 185 -153 l 601 -153 b 642 -111 628 -153 642 -139 l 642 107 l 619 107 b 390 -4 589 54 525 -4 b 72 339 217 -4 72 125 m 429 121 b 643 343 553 121 643 203 l 643 356 b 429 578 643 496 554 578 b 217 356 306 578 217 496 l 217 343 b 429 121 217 203 307 121 "},"ĥ":{"ha":854,"x_min":0,"x_max":0,"o":"m 90 1228 l 265 1228 l 432 1053 l 272 1053 l 189 1150 l 167 1150 l 83 1053 l -76 1053 m 106 972 l 249 972 l 249 588 l 271 588 b 486 696 297 639 356 696 b 754 411 642 696 754 588 l 754 0 l 611 0 l 611 400 b 444 574 611 519 549 574 b 249 346 326 574 249 493 l 249 0 l 106 0 "},"ħ":{"ha":854,"x_min":0,"x_max":0,"o":"m 106 778 l 4 778 l 4 861 l 106 861 l 106 972 l 249 972 l 249 861 l 467 861 l 467 778 l 249 778 l 249 588 l 271 588 b 486 696 297 639 356 696 b 754 411 642 696 754 588 l 754 0 l 611 0 l 611 400 b 444 574 611 519 549 574 b 249 346 326 574 249 493 l 249 0 l 106 0 "},"ì":{"ha":356,"x_min":0,"x_max":0,"o":"m -3 972 l 163 972 l 267 775 l 138 775 m 106 685 l 249 685 l 249 0 l 106 0 "},"í":{"ha":356,"x_min":0,"x_max":0,"o":"m 193 967 l 358 967 l 218 768 l 88 768 m 106 685 l 249 685 l 249 0 l 106 0 "},"î":{"ha":356,"x_min":0,"x_max":0,"o":"m 92 967 l 264 967 l 431 768 l 281 768 l 189 878 l 167 878 l 75 768 l -75 768 m 106 685 l 249 685 l 249 0 l 106 0 "},"ĩ":{"ha":356,"x_min":0,"x_max":0,"o":"m -60 806 l -15 885 b 90 949 8 928 46 949 b 189 901 131 949 158 933 b 249 863 208 882 225 863 b 299 900 272 863 286 881 l 326 947 l 410 896 l 365 817 b 258 753 340 775 304 753 b 161 800 219 753 192 768 b 101 839 142 819 124 839 b 51 801 76 839 64 821 l 22 756 m 106 685 l 249 685 l 249 0 l 106 0 "},"ï":{"ha":356,"x_min":0,"x_max":0,"o":"m 314 774 b 217 871 258 774 217 813 b 314 968 217 929 258 968 b 413 871 371 968 413 929 b 314 774 413 813 371 774 m 40 774 b -57 871 -15 774 -57 813 b 40 968 -57 929 -15 968 b 139 871 97 968 139 929 b 40 774 139 813 97 774 m 106 685 l 249 685 l 249 0 l 106 0 "},"ī":{"ha":356,"x_min":0,"x_max":0,"o":"m -43 907 l 399 907 l 399 792 l -43 792 m 106 685 l 249 685 l 249 0 l 106 0 "},"į":{"ha":356,"x_min":0,"x_max":0,"o":"m 178 778 b 79 875 121 778 79 817 b 178 972 79 933 121 972 b 276 875 233 972 276 933 b 178 778 276 817 233 778 m 106 685 l 249 685 l 249 0 l 224 0 l 213 -62 b 207 -101 210 -78 207 -89 b 238 -131 207 -121 218 -131 l 300 -131 l 300 -232 l 204 -232 b 100 -139 142 -232 100 -197 b 113 -51 100 -111 106 -81 l 125 0 l 106 0 "},"ĭ":{"ha":356,"x_min":0,"x_max":0,"o":"m 178 764 b -40 958 43 764 -40 836 l -40 967 l 81 967 l 81 960 b 178 861 81 904 111 861 b 274 960 243 861 274 904 l 274 967 l 394 967 l 394 958 b 178 764 394 836 311 764 m 106 685 l 249 685 l 249 0 l 106 0 "},"ĵ":{"ha":358,"x_min":0,"x_max":0,"o":"m 94 967 l 267 967 l 433 768 l 283 768 l 192 878 l 169 878 l 78 768 l -72 768 m -25 -154 l 69 -154 b 108 -112 96 -154 108 -140 l 108 685 l 251 685 l 251 -140 b 114 -278 251 -225 200 -278 l -25 -278 "},"ĸ":{"ha":765,"x_min":0,"x_max":0,"o":"m 106 685 l 249 685 l 249 418 l 271 418 l 540 685 l 731 685 l 385 353 l 742 0 l 554 0 l 271 285 l 249 285 l 249 0 l 106 0 "},"ĺ":{"ha":356,"x_min":0,"x_max":0,"o":"m 179 1228 l 349 1228 l 215 1053 l 85 1053 m 106 972 l 249 972 l 249 0 l 106 0 "},"ľ":{"ha":464,"x_min":0,"x_max":0,"o":"m 106 972 l 249 972 l 249 0 l 106 0 m 350 972 l 490 972 l 439 703 l 339 703 "},"ḹ":{"ha":356,"x_min":0,"x_max":0,"o":"m -43 1179 l 399 1179 l 399 1064 l -43 1064 m 106 972 l 249 972 l 249 0 l 106 0 m 178 -285 b 79 -187 121 -285 79 -244 b 178 -89 79 -129 121 -89 b 276 -187 233 -89 276 -129 b 178 -285 276 -244 233 -285 "},"ł":{"ha":549,"x_min":0,"x_max":0,"o":"m 203 333 l 72 268 l 28 356 l 203 443 l 203 972 l 346 972 l 346 515 l 476 582 l 521 494 l 346 406 l 346 0 l 203 0 "},"ŀ":{"ha":599,"x_min":0,"x_max":0,"o":"m 106 972 l 249 972 l 249 0 l 106 0 m 476 275 b 379 372 421 275 379 315 b 476 471 379 431 421 471 b 575 372 533 471 575 431 b 476 275 575 315 533 275 "},"ń":{"ha":854,"x_min":0,"x_max":0,"o":"m 439 967 l 604 967 l 464 768 l 335 768 m 106 685 l 246 685 l 246 582 l 268 582 b 486 696 294 638 354 696 b 754 411 642 696 754 588 l 754 0 l 611 0 l 611 400 b 444 574 611 519 549 574 b 249 346 326 574 249 493 l 249 0 l 106 0 "},"ň":{"ha":854,"x_min":0,"x_max":0,"o":"m 171 967 l 322 967 l 414 857 l 435 857 l 526 967 l 678 967 l 511 768 l 338 768 m 106 685 l 246 685 l 246 582 l 268 582 b 486 696 294 638 354 696 b 754 411 642 696 754 588 l 754 0 l 611 0 l 611 400 b 444 574 611 519 549 574 b 249 346 326 574 249 493 l 249 0 l 106 0 "},"ñ":{"ha":854,"x_min":0,"x_max":0,"o":"m 188 806 l 232 885 b 338 949 256 928 292 949 b 436 901 378 949 406 933 b 496 863 456 882 472 863 b 546 900 519 863 533 881 l 574 947 l 656 896 l 611 817 b 506 753 588 775 551 753 b 407 800 465 753 439 768 b 347 839 388 819 371 839 b 297 801 324 839 310 821 l 269 756 m 106 685 l 246 685 l 246 582 l 268 582 b 486 696 294 638 354 696 b 754 411 642 696 754 588 l 754 0 l 611 0 l 611 400 b 444 574 611 519 549 574 b 249 346 326 574 249 493 l 249 0 l 106 0 "},"ŉ":{"ha":854,"x_min":0,"x_max":0,"o":"m 106 839 l 143 839 b 196 890 181 839 196 853 l 196 918 l 181 918 b 86 1007 125 918 86 954 b 181 1101 86 1064 125 1101 b 275 1001 236 1101 275 1064 l 275 890 b 149 768 275 810 232 768 l 106 768 m 106 685 l 246 685 l 246 582 l 268 582 b 486 696 294 638 354 696 b 754 411 642 696 754 588 l 754 0 l 611 0 l 611 400 b 444 574 611 519 549 574 b 249 346 326 574 249 493 l 249 0 l 106 0 "},"ò":{"ha":854,"x_min":0,"x_max":0,"o":"m 247 972 l 413 972 l 517 775 l 388 775 m 426 -19 b 72 332 221 -19 72 114 l 72 353 b 426 704 72 569 221 704 b 782 353 632 704 782 569 l 782 332 b 426 -19 782 114 632 -19 m 426 108 b 639 336 551 108 639 193 l 639 349 b 426 576 639 490 553 576 b 215 349 301 576 215 490 l 215 336 b 426 108 215 193 301 108 "},"ó":{"ha":854,"x_min":0,"x_max":0,"o":"m 442 967 l 607 967 l 467 768 l 338 768 m 426 -19 b 72 332 221 -19 72 114 l 72 353 b 426 704 72 569 221 704 b 782 353 632 704 782 569 l 782 332 b 426 -19 782 114 632 -19 m 426 108 b 639 336 551 108 639 193 l 639 349 b 426 576 639 490 553 576 b 215 349 301 576 215 490 l 215 336 b 426 108 215 193 301 108 "},"ô":{"ha":854,"x_min":0,"x_max":0,"o":"m 340 967 l 513 967 l 681 768 l 529 768 l 438 878 l 415 878 l 325 768 l 174 768 m 426 -19 b 72 332 221 -19 72 114 l 72 353 b 426 704 72 569 221 704 b 782 353 632 704 782 569 l 782 332 b 426 -19 782 114 632 -19 m 426 108 b 639 336 551 108 639 193 l 639 349 b 426 576 639 490 553 576 b 215 349 301 576 215 490 l 215 336 b 426 108 215 193 301 108 "},"õ":{"ha":854,"x_min":0,"x_max":0,"o":"m 190 806 l 235 885 b 340 949 258 928 294 949 b 439 901 381 949 407 933 b 499 863 458 882 475 863 b 549 900 522 863 536 881 l 576 947 l 658 896 l 614 817 b 508 753 590 775 554 753 b 410 800 468 753 440 768 b 350 839 390 819 374 839 b 300 801 326 839 313 821 l 272 756 m 426 -19 b 72 332 221 -19 72 114 l 72 353 b 426 704 72 569 221 704 b 782 353 632 704 782 569 l 782 332 b 426 -19 782 114 632 -19 m 426 108 b 639 336 551 108 639 193 l 639 349 b 426 576 639 490 553 576 b 215 349 301 576 215 490 l 215 336 b 426 108 215 193 301 108 "},"ö":{"ha":854,"x_min":0,"x_max":0,"o":"m 564 774 b 465 871 507 774 465 813 b 564 968 465 929 507 968 b 661 871 619 968 661 929 b 564 774 661 813 619 774 m 290 774 b 192 871 235 774 192 813 b 290 968 192 929 235 968 b 388 871 346 968 388 929 b 290 774 388 813 346 774 m 426 -19 b 72 332 221 -19 72 114 l 72 353 b 426 704 72 569 221 704 b 782 353 632 704 782 569 l 782 332 b 426 -19 782 114 632 -19 m 426 108 b 639 336 551 108 639 193 l 639 349 b 426 576 639 490 553 576 b 215 349 301 576 215 490 l 215 336 b 426 108 215 193 301 108 "},"ō":{"ha":854,"x_min":0,"x_max":0,"o":"m 206 907 l 649 907 l 649 792 l 206 792 m 426 -19 b 72 332 221 -19 72 114 l 72 353 b 426 704 72 569 221 704 b 782 353 632 704 782 569 l 782 332 b 426 -19 782 114 632 -19 m 426 108 b 639 336 551 108 639 193 l 639 349 b 426 576 639 490 553 576 b 215 349 301 576 215 490 l 215 336 b 426 108 215 193 301 108 "},"ő":{"ha":854,"x_min":0,"x_max":0,"o":"m 543 967 l 696 967 l 574 768 l 454 768 m 314 967 l 454 967 l 358 768 l 242 768 m 426 -19 b 72 332 221 -19 72 114 l 72 353 b 426 704 72 569 221 704 b 782 353 632 704 782 569 l 782 332 b 426 -19 782 114 632 -19 m 426 108 b 639 336 551 108 639 193 l 639 349 b 426 576 639 490 553 576 b 215 349 301 576 215 490 l 215 336 b 426 108 215 193 301 108 "},"ŏ":{"ha":854,"x_min":0,"x_max":0,"o":"m 426 764 b 210 958 292 764 210 836 l 210 967 l 331 967 l 331 960 b 426 861 331 904 361 861 b 522 960 493 861 522 904 l 522 967 l 644 967 l 644 958 b 426 764 644 836 561 764 m 426 -19 b 72 332 221 -19 72 114 l 72 353 b 426 704 72 569 221 704 b 782 353 632 704 782 569 l 782 332 b 426 -19 782 114 632 -19 m 426 108 b 639 336 551 108 639 193 l 639 349 b 426 576 639 490 553 576 b 215 349 301 576 215 490 l 215 336 b 426 108 215 193 301 108 "},"ø":{"ha":854,"x_min":0,"x_max":0,"o":"m 132 -39 l 193 57 b 72 332 118 118 72 213 l 72 353 b 426 704 72 569 221 704 b 579 675 482 704 533 693 l 638 769 l 721 717 l 664 625 b 782 353 738 564 782 471 l 782 332 b 426 -19 782 114 632 -19 b 278 7 372 -19 322 -10 l 215 -92 m 215 336 b 267 176 215 269 235 215 l 508 563 b 426 576 483 571 457 576 b 215 349 301 576 215 490 l 215 336 m 426 108 b 639 336 551 108 639 193 l 639 349 b 589 506 639 414 621 467 l 349 121 b 426 108 372 113 399 108 "},"œ":{"ha":1393,"x_min":0,"x_max":0,"o":"m 421 -19 b 72 332 219 -19 72 114 l 72 353 b 421 704 72 569 219 704 b 703 549 554 704 650 644 l 725 549 b 996 704 779 643 876 704 b 1325 357 1193 704 1325 565 l 1325 303 l 799 303 b 1004 106 804 183 888 106 b 1188 225 1111 106 1158 161 l 1307 165 b 1004 -19 1267 85 1186 -19 b 725 136 874 -19 772 42 l 703 136 b 421 -19 650 39 554 -19 m 1179 413 b 994 578 1172 515 1100 578 b 800 413 885 578 813 511 m 426 108 b 639 336 551 108 639 193 l 639 349 b 426 575 639 490 553 575 b 215 349 301 575 215 490 l 215 336 b 426 108 215 193 303 108 "},"ŕ":{"ha":538,"x_min":0,"x_max":0,"o":"m 313 967 l 478 967 l 338 768 l 208 768 m 106 685 l 246 685 l 246 604 l 268 604 b 413 688 290 661 339 688 l 494 688 l 494 558 l 407 558 b 249 403 314 558 249 508 l 249 0 l 106 0 "},"ř":{"ha":538,"x_min":0,"x_max":0,"o":"m 44 967 l 196 967 l 286 857 l 308 857 l 400 967 l 550 967 l 383 768 l 211 768 m 106 685 l 246 685 l 246 604 l 268 604 b 413 688 290 661 339 688 l 494 688 l 494 558 l 407 558 b 249 403 314 558 249 508 l 249 0 l 106 0 "},"ṝ":{"ha":538,"x_min":0,"x_max":0,"o":"m 76 907 l 518 907 l 518 792 l 76 792 m 106 685 l 246 685 l 246 604 l 268 604 b 413 688 290 661 339 688 l 494 688 l 494 558 l 407 558 b 249 403 314 558 249 508 l 249 0 l 106 0 m 179 -285 b 81 -187 124 -285 81 -244 b 179 -89 81 -129 124 -89 b 278 -187 235 -89 278 -129 b 179 -285 278 -244 235 -285 "},"ś":{"ha":729,"x_min":0,"x_max":0,"o":"m 378 967 l 543 967 l 403 768 l 274 768 m 386 -19 b 64 215 211 -19 89 58 l 197 247 b 386 96 217 132 294 96 b 528 190 476 96 528 133 b 392 283 528 246 481 267 l 343 292 b 93 500 204 317 93 371 b 357 704 93 629 197 704 b 643 511 511 704 614 631 l 510 474 b 357 588 494 557 438 588 b 232 506 278 588 232 557 b 353 415 232 450 278 429 l 401 407 b 668 197 550 381 668 336 b 386 -19 668 60 557 -19 "},"ŝ":{"ha":729,"x_min":0,"x_max":0,"o":"m 276 967 l 449 967 l 615 768 l 465 768 l 374 878 l 351 878 l 260 768 l 110 768 m 386 -19 b 64 215 211 -19 89 58 l 197 247 b 386 96 217 132 294 96 b 528 190 476 96 528 133 b 392 283 528 246 481 267 l 343 292 b 93 500 204 317 93 371 b 357 704 93 629 197 704 b 643 511 511 704 614 631 l 510 474 b 357 588 494 557 438 588 b 232 506 278 588 232 557 b 353 415 232 450 278 429 l 401 407 b 668 197 550 381 668 336 b 386 -19 668 60 557 -19 "},"š":{"ha":729,"x_min":0,"x_max":0,"o":"m 110 967 l 260 967 l 351 857 l 374 857 l 465 967 l 615 967 l 449 768 l 276 768 m 386 -19 b 64 215 211 -19 89 58 l 197 247 b 386 96 217 132 294 96 b 528 190 476 96 528 133 b 392 283 528 246 481 267 l 343 292 b 93 500 204 317 93 371 b 357 704 93 629 197 704 b 643 511 511 704 614 631 l 510 474 b 357 588 494 557 438 588 b 232 506 278 588 232 557 b 353 415 232 450 278 429 l 401 407 b 668 197 550 381 668 336 b 386 -19 668 60 557 -19 "},"ş":{"ha":729,"x_min":0,"x_max":0,"o":"m 375 -292 b 221 -258 317 -292 260 -276 l 253 -171 b 369 -199 285 -186 322 -199 b 435 -156 407 -199 435 -185 b 367 -114 435 -128 411 -114 l 314 -114 l 322 -15 b 64 215 182 1 85 78 l 197 247 b 386 96 217 132 294 96 b 528 190 476 96 528 133 b 392 283 528 246 481 267 l 343 292 b 93 500 204 317 93 371 b 357 704 93 629 197 704 b 643 511 511 704 614 631 l 510 474 b 357 588 494 557 438 588 b 232 506 278 588 232 557 b 353 415 232 450 278 429 l 401 407 b 667 197 550 381 668 336 b 422 -18 668 69 572 -7 l 419 -58 b 543 -171 490 -58 543 -97 b 375 -292 543 -254 463 -292 "},"ß":{"ha":888,"x_min":0,"x_max":0,"o":"m 581 -19 b 292 188 410 -19 315 75 l 422 226 b 581 99 439 144 493 99 b 711 211 661 99 711 144 b 582 338 711 279 654 308 l 526 360 b 417 489 451 389 417 432 b 508 624 417 551 451 586 b 610 764 561 657 610 699 b 464 871 610 829 547 871 b 249 611 363 871 249 803 l 249 0 l 106 0 l 106 606 b 464 992 106 849 253 992 b 750 768 631 992 750 894 b 593 540 750 649 675 589 b 563 501 572 528 563 517 b 603 463 563 485 575 472 l 646 444 b 851 211 758 400 851 344 b 581 -19 851 76 749 -19 "},"ſ":{"ha":496,"x_min":0,"x_max":0,"o":"m 189 564 l 38 564 l 38 685 l 189 685 l 189 835 b 325 972 189 919 240 972 l 499 972 l 499 853 l 371 853 b 331 811 344 853 331 839 l 331 0 l 189 0 "},"ť":{"ha":636,"x_min":0,"x_max":0,"o":"m 481 1054 l 621 1054 l 569 783 l 468 783 m 363 0 b 226 138 278 0 226 53 l 226 564 l 38 564 l 38 685 l 226 685 l 226 911 l 369 911 l 369 685 l 574 685 l 574 564 l 369 564 l 369 163 b 408 121 369 135 382 121 l 551 121 l 551 0 l 363 0 "},"ŧ":{"ha":636,"x_min":0,"x_max":0,"o":"m 38 396 l 226 396 l 226 564 l 38 564 l 38 685 l 226 685 l 226 911 l 369 911 l 369 685 l 574 685 l 574 564 l 369 564 l 369 396 l 574 396 l 574 297 l 369 297 l 369 163 b 408 121 369 135 382 121 l 551 121 l 551 0 l 363 0 b 226 138 279 0 226 53 l 226 297 l 38 297 "},"ù":{"ha":853,"x_min":0,"x_max":0,"o":"m 243 972 l 408 972 l 513 775 l 383 775 m 368 -12 b 99 274 211 -12 99 97 l 99 685 l 242 685 l 242 283 b 410 110 242 165 304 110 b 604 339 528 110 604 190 l 604 685 l 747 685 l 747 0 l 607 0 l 607 103 l 585 103 b 368 -12 558 46 499 -12 "},"ú":{"ha":853,"x_min":0,"x_max":0,"o":"m 439 967 l 603 967 l 463 768 l 333 768 m 368 -12 b 99 274 211 -12 99 97 l 99 685 l 242 685 l 242 283 b 410 110 242 165 304 110 b 604 339 528 110 604 190 l 604 685 l 747 685 l 747 0 l 607 0 l 607 103 l 585 103 b 368 -12 558 46 499 -12 "},"û":{"ha":853,"x_min":0,"x_max":0,"o":"m 338 967 l 510 967 l 676 768 l 525 768 l 435 878 l 413 878 l 321 768 l 169 768 m 368 -12 b 99 274 211 -12 99 97 l 99 685 l 242 685 l 242 283 b 410 110 242 165 304 110 b 604 339 528 110 604 190 l 604 685 l 747 685 l 747 0 l 607 0 l 607 103 l 585 103 b 368 -12 558 46 499 -12 "},"ũ":{"ha":853,"x_min":0,"x_max":0,"o":"m 186 806 l 231 885 b 336 949 254 928 290 949 b 435 901 376 949 404 933 b 494 863 454 882 471 863 b 544 900 518 863 532 881 l 572 947 l 656 896 l 611 817 b 504 753 586 775 550 753 b 407 800 465 753 438 768 b 347 839 388 819 369 839 b 297 801 322 839 308 821 l 268 756 m 368 -12 b 99 274 211 -12 99 97 l 99 685 l 242 685 l 242 283 b 410 110 242 165 304 110 b 604 339 528 110 604 190 l 604 685 l 747 685 l 747 0 l 607 0 l 607 103 l 585 103 b 368 -12 558 46 499 -12 "},"ü":{"ha":853,"x_min":0,"x_max":0,"o":"m 560 774 b 463 871 504 774 463 813 b 560 968 463 929 504 968 b 658 871 615 968 658 929 b 560 774 658 813 615 774 m 286 774 b 189 871 231 774 189 813 b 286 968 189 929 231 968 b 385 871 343 968 385 929 b 286 774 385 813 343 774 m 368 -12 b 99 274 211 -12 99 97 l 99 685 l 242 685 l 242 283 b 410 110 242 165 304 110 b 604 339 528 110 604 190 l 604 685 l 747 685 l 747 0 l 607 0 l 607 103 l 585 103 b 368 -12 558 46 499 -12 "},"ū":{"ha":853,"x_min":0,"x_max":0,"o":"m 203 907 l 644 907 l 644 792 l 203 792 m 368 -12 b 99 274 211 -12 99 97 l 99 685 l 242 685 l 242 283 b 410 110 242 165 304 110 b 604 339 528 110 604 190 l 604 685 l 747 685 l 747 0 l 607 0 l 607 103 l 585 103 b 368 -12 558 46 499 -12 "},"ŭ":{"ha":853,"x_min":0,"x_max":0,"o":"m 424 764 b 206 958 289 764 206 836 l 206 967 l 326 967 l 326 960 b 424 861 326 904 357 861 b 519 960 489 861 519 904 l 519 967 l 640 967 l 640 958 b 424 764 640 836 557 764 m 368 -12 b 99 274 211 -12 99 97 l 99 685 l 242 685 l 242 283 b 410 110 242 165 304 110 b 604 339 528 110 604 190 l 604 685 l 747 685 l 747 0 l 607 0 l 607 103 l 585 103 b 368 -12 558 46 499 -12 "},"ů":{"ha":853,"x_min":0,"x_max":0,"o":"m 424 751 b 282 888 346 751 282 808 b 424 1024 282 965 343 1024 b 564 888 503 1024 564 968 b 424 751 564 804 500 751 m 424 836 b 474 888 454 836 474 858 b 424 938 474 917 454 938 b 372 888 393 938 372 917 b 424 836 372 858 393 836 m 368 -12 b 99 274 211 -12 99 97 l 99 685 l 242 685 l 242 283 b 410 110 242 165 304 110 b 604 339 528 110 604 190 l 604 685 l 747 685 l 747 0 l 607 0 l 607 103 l 585 103 b 368 -12 558 46 499 -12 "},"ű":{"ha":853,"x_min":0,"x_max":0,"o":"m 540 967 l 692 967 l 569 768 l 450 768 m 311 967 l 450 967 l 354 768 l 238 768 m 368 -12 b 99 274 211 -12 99 97 l 99 685 l 242 685 l 242 283 b 410 110 242 165 304 110 b 604 339 528 110 604 190 l 604 685 l 747 685 l 747 0 l 607 0 l 607 103 l 585 103 b 368 -12 558 46 499 -12 "},"ų":{"ha":853,"x_min":0,"x_max":0,"o":"m 368 -12 b 99 274 211 -12 99 97 l 99 685 l 242 685 l 242 283 b 410 110 242 165 304 110 b 604 339 528 110 604 190 l 604 685 l 747 685 l 747 0 l 724 0 l 711 -62 b 706 -101 708 -78 706 -89 b 738 -131 706 -121 717 -131 l 799 -131 l 799 -232 l 703 -232 b 600 -139 640 -232 600 -197 b 613 -51 600 -111 606 -81 l 625 0 l 607 0 l 607 103 l 585 103 b 368 -12 558 46 499 -12 "},"ŵ":{"ha":1100,"x_min":0,"x_max":0,"o":"m 464 967 l 636 967 l 803 768 l 653 768 l 561 878 l 539 878 l 447 768 l 297 768 m 64 685 l 207 685 l 293 96 l 315 96 l 435 685 l 667 685 l 785 96 l 807 96 l 893 685 l 1036 685 l 919 0 l 681 0 l 561 588 l 539 588 l 421 0 l 181 0 "},"ý":{"ha":853,"x_min":0,"x_max":0,"o":"m 439 967 l 604 967 l 464 768 l 335 768 m 185 -153 l 567 -153 b 606 -111 593 -153 606 -139 l 606 100 l 583 100 b 368 -12 558 46 499 -12 b 99 272 211 -12 99 96 l 99 685 l 242 685 l 242 283 b 410 110 242 164 304 110 b 604 338 528 110 604 190 l 604 685 l 747 685 l 747 -140 b 610 -278 747 -225 694 -278 l 185 -278 "},"ŷ":{"ha":853,"x_min":0,"x_max":0,"o":"m 338 967 l 510 967 l 676 768 l 526 768 l 435 878 l 413 878 l 321 768 l 171 768 m 185 -153 l 567 -153 b 606 -111 593 -153 606 -139 l 606 100 l 583 100 b 368 -12 558 46 499 -12 b 99 272 211 -12 99 96 l 99 685 l 242 685 l 242 283 b 410 110 242 164 304 110 b 604 338 528 110 604 190 l 604 685 l 747 685 l 747 -140 b 610 -278 747 -225 694 -278 l 185 -278 "},"ÿ":{"ha":853,"x_min":0,"x_max":0,"o":"m 560 774 b 463 871 504 774 463 813 b 560 968 463 929 504 968 b 658 871 617 968 658 929 b 560 774 658 813 617 774 m 288 774 b 189 871 231 774 189 813 b 288 968 189 929 231 968 b 385 871 343 968 385 929 b 288 774 385 813 343 774 m 185 -153 l 567 -153 b 606 -111 593 -153 606 -139 l 606 100 l 583 100 b 368 -12 558 46 499 -12 b 99 272 211 -12 99 96 l 99 685 l 242 685 l 242 283 b 410 110 242 164 304 110 b 604 338 528 110 604 190 l 604 685 l 747 685 l 747 -140 b 610 -278 747 -225 694 -278 l 185 -278 "},"ź":{"ha":721,"x_min":0,"x_max":0,"o":"m 374 967 l 538 967 l 397 768 l 268 768 m 78 175 l 482 544 l 482 564 l 92 564 l 92 685 l 638 685 l 638 508 l 232 139 l 232 121 l 649 121 l 649 0 l 78 0 "},"ž":{"ha":721,"x_min":0,"x_max":0,"o":"m 104 967 l 256 967 l 347 857 l 369 857 l 460 967 l 611 967 l 444 768 l 272 768 m 78 175 l 482 544 l 482 564 l 92 564 l 92 685 l 638 685 l 638 508 l 232 139 l 232 121 l 649 121 l 649 0 l 78 0 "},"ż":{"ha":721,"x_min":0,"x_max":0,"o":"m 358 778 b 260 875 301 778 260 817 b 358 972 260 933 301 972 b 456 875 414 972 456 933 b 358 778 456 817 414 778 m 78 175 l 482 544 l 482 564 l 92 564 l 92 685 l 638 685 l 638 508 l 232 139 l 232 121 l 649 121 l 649 0 l 78 0 "},"þ":{"ha":889,"x_min":0,"x_max":0,"o":"m 106 972 l 249 972 l 249 592 l 269 592 b 501 704 303 647 368 704 b 817 353 674 704 817 574 l 817 332 b 501 -19 817 110 674 -19 b 269 92 368 -19 303 38 l 249 92 l 249 -278 l 106 -278 m 460 106 b 674 336 585 106 674 189 l 674 349 b 460 578 674 496 585 578 b 247 349 338 578 247 496 l 247 336 b 460 106 247 189 338 106 "},"ŋ":{"ha":854,"x_min":0,"x_max":0,"o":"m 106 685 l 246 685 l 246 582 l 268 582 b 486 696 294 638 354 696 b 754 411 642 696 754 588 l 754 -142 b 621 -278 754 -225 701 -278 l 444 -278 l 444 -154 l 572 -154 b 611 -112 597 -154 611 -140 l 611 400 b 444 574 611 519 549 574 b 249 346 326 574 249 493 l 249 0 l 106 0 "},"ĳ":{"ha":713,"x_min":0,"x_max":0,"o":"m 178 778 b 79 875 121 778 79 817 b 178 972 79 933 121 972 b 276 875 233 972 276 933 b 178 778 276 817 233 778 m 535 778 b 436 875 479 778 436 817 b 535 972 436 933 479 972 b 633 875 592 972 633 933 b 535 778 633 817 592 778 m 106 685 l 249 685 l 249 0 l 106 0 m 331 -154 l 424 -154 b 464 -112 451 -154 464 -140 l 464 685 l 607 685 l 607 -140 b 469 -278 607 -225 554 -278 l 331 -278 "},"":{"ha":713,"x_min":0,"x_max":0,"o":"m 193 967 l 358 967 l 218 768 l 88 768 m 550 967 l 715 967 l 575 768 l 446 768 m 106 685 l 249 685 l 249 0 l 106 0 m 331 -154 l 424 -154 b 464 -112 451 -154 464 -140 l 464 685 l 607 685 l 607 -140 b 469 -278 607 -225 554 -278 l 331 -278 "},"ɑ":{"ha":918,"x_min":0,"x_max":0,"o":"m 389 -19 b 72 332 217 -19 72 111 l 72 353 b 389 704 72 574 218 704 b 622 586 522 704 588 647 l 644 586 l 644 685 l 785 685 l 785 161 b 824 119 785 133 799 119 l 882 119 l 882 0 l 761 0 b 651 103 696 0 651 39 l 651 113 l 631 113 b 389 -19 596 42 528 -19 m 429 106 b 643 336 554 106 643 189 l 643 349 b 429 578 643 496 553 578 b 217 349 307 578 217 496 l 217 336 b 429 106 217 189 306 106 "},"π":{"ha":817,"x_min":0,"x_max":0,"o":"m 160 564 l 54 564 l 54 685 l 746 685 l 746 564 l 640 564 l 640 163 b 681 121 640 135 654 121 l 746 121 l 746 0 l 635 0 b 497 138 550 0 497 53 l 497 564 l 301 564 l 301 0 l 160 0 "},"ª":{"ha":582,"x_min":0,"x_max":0,"o":"m 231 472 b 51 626 128 472 51 525 b 235 775 51 725 129 775 l 374 775 l 374 801 b 276 896 374 858 344 896 b 165 814 208 896 175 858 l 67 844 b 279 985 88 921 156 985 b 482 796 401 985 482 921 l 482 603 b 508 572 482 582 492 572 l 554 572 l 554 486 l 475 486 b 394 551 426 486 396 510 l 378 551 b 231 472 365 521 325 472 m 249 561 b 374 679 326 561 374 599 l 374 694 l 243 694 b 158 629 192 694 158 671 b 249 561 158 588 192 561 "},"º":{"ha":607,"x_min":0,"x_max":0,"o":"m 303 472 b 50 728 150 472 50 565 b 303 985 50 890 150 985 b 557 728 456 985 557 890 b 303 472 557 565 456 472 m 303 563 b 447 728 390 563 447 622 b 303 894 447 835 390 894 b 158 728 217 894 158 835 b 303 563 158 622 217 563 "},"†":{"ha":792,"x_min":0,"x_max":0,"o":"m 324 563 l 94 563 l 94 685 l 324 685 l 324 972 l 468 972 l 468 685 l 697 685 l 697 563 l 468 563 l 468 0 l 324 0 "},"‡":{"ha":792,"x_min":0,"x_max":0,"o":"m 324 258 l 94 258 l 94 381 l 324 381 l 324 596 l 94 596 l 94 717 l 324 717 l 324 972 l 468 972 l 468 717 l 697 717 l 697 596 l 468 596 l 468 381 l 697 381 l 697 258 l 468 258 l 468 0 l 324 0 "},"§":{"ha":675,"x_min":0,"x_max":0,"o":"m 344 -19 b 50 256 163 -19 50 89 l 50 279 l 178 279 l 178 260 b 344 99 178 163 233 99 b 481 208 433 99 481 140 b 329 325 481 275 440 306 b 82 544 168 353 82 418 b 115 658 82 589 93 625 b 82 771 93 689 82 728 l 82 778 b 332 992 82 913 190 992 b 600 764 489 992 600 907 l 600 726 l 474 726 l 474 753 b 335 874 474 825 422 874 b 211 778 263 874 211 840 b 372 661 211 704 278 679 b 611 447 533 631 611 565 b 581 329 611 401 601 363 b 610 222 600 299 610 263 l 610 213 b 344 -19 610 76 515 -19 m 472 411 b 479 442 476 418 479 428 b 331 547 479 499 439 528 b 221 581 289 556 251 567 b 211 544 215 571 211 560 b 371 439 211 482 269 457 b 472 411 415 432 443 425 "},"¶":{"ha":828,"x_min":0,"x_max":0,"o":"m 358 410 l 329 410 b 31 683 153 410 31 519 l 31 699 b 335 972 31 865 157 972 l 726 972 l 726 0 l 600 0 l 600 853 l 485 853 l 485 0 l 358 0 m 358 528 l 358 853 l 325 853 b 157 694 219 853 157 789 l 157 686 b 325 528 157 592 222 528 "},"©":{"ha":989,"x_min":0,"x_max":0,"o":"m 483 -17 b 76 406 236 -17 76 131 l 76 567 b 483 989 76 842 236 989 l 507 989 b 913 567 756 989 913 842 l 913 406 b 507 -17 913 131 756 -17 l 483 -17 m 504 96 b 794 406 688 96 794 197 l 794 568 b 504 876 794 775 688 876 l 486 876 b 196 568 301 876 196 775 l 196 406 b 486 96 196 197 301 96 m 500 200 b 300 413 378 200 300 275 l 300 560 b 499 776 300 699 381 776 b 693 578 628 776 693 696 l 693 554 l 579 554 l 579 586 b 500 668 579 633 556 668 b 415 581 447 668 415 638 l 415 392 b 500 307 415 338 450 307 b 579 390 551 307 579 336 l 579 419 l 693 419 l 693 397 b 500 200 693 279 631 200 "},"®":{"ha":726,"x_min":0,"x_max":0,"o":"m 364 414 b 72 703 197 414 72 533 b 364 992 72 872 197 992 b 656 703 531 992 656 872 b 364 414 656 533 531 414 m 364 471 b 596 703 504 471 596 563 b 364 935 596 843 504 935 b 131 703 224 935 131 843 b 364 471 131 563 224 471 m 264 860 l 382 860 b 486 775 450 860 486 821 b 431 697 486 739 469 711 l 431 686 b 475 635 461 683 475 664 l 475 551 l 418 551 l 418 636 b 389 665 418 654 407 665 l 319 665 l 319 551 l 264 551 m 383 715 b 429 763 414 715 429 738 b 383 808 429 789 414 808 l 319 808 l 319 715 "},"™":{"ha":776,"x_min":0,"x_max":0,"o":"m 356 972 l 461 972 l 526 715 l 538 715 l 601 972 l 708 972 l 708 664 l 653 664 l 653 921 l 640 921 l 575 664 l 488 664 l 424 921 l 411 921 l 411 664 l 356 664 m 153 921 l 50 921 l 50 972 l 314 972 l 314 921 l 210 921 l 210 664 l 153 664 "},"℠":{"ha":768,"x_min":0,"x_max":0,"o":"m 182 658 b 63 764 110 658 63 696 l 63 776 l 117 776 l 117 764 b 182 706 117 728 142 706 b 242 751 222 706 242 725 b 179 796 242 778 221 788 l 165 799 b 69 889 104 811 69 833 b 176 978 69 946 111 978 b 289 879 242 978 289 946 l 289 865 l 235 865 l 235 879 b 176 931 235 914 214 931 b 125 890 142 931 125 915 b 179 847 125 867 142 854 l 193 844 b 297 753 253 832 297 814 b 182 658 297 696 253 658 m 347 972 l 453 972 l 518 715 l 529 715 l 593 972 l 700 972 l 700 664 l 644 664 l 644 921 l 632 921 l 567 664 l 479 664 l 415 921 l 403 921 l 403 664 l 347 664 "},"#":{"ha":878,"x_min":0,"x_max":0,"o":"m 221 271 l 57 271 l 57 394 l 221 394 l 221 579 l 57 579 l 57 701 l 221 701 l 221 972 l 350 972 l 350 701 l 528 701 l 528 972 l 657 972 l 657 701 l 821 701 l 821 579 l 657 579 l 657 394 l 821 394 l 821 271 l 657 271 l 657 0 l 528 0 l 528 271 l 350 271 l 350 0 l 221 0 m 528 394 l 528 579 l 350 579 l 350 394 "},"¤":{"ha":861,"x_min":0,"x_max":0,"o":"m 61 207 l 144 290 b 83 486 104 346 83 413 b 144 682 83 558 104 626 l 61 765 l 151 856 l 235 772 b 431 833 290 810 357 833 b 626 772 503 833 571 810 l 710 856 l 800 765 l 717 682 b 778 486 754 626 778 558 b 717 290 778 413 754 346 l 800 207 l 710 117 l 626 200 b 431 139 571 160 503 139 b 235 200 357 139 290 160 l 151 117 m 431 264 b 651 486 554 264 651 358 b 431 710 651 614 554 710 b 210 486 307 710 210 614 b 431 264 210 358 307 264 "},"$":{"ha":847,"x_min":0,"x_max":0,"o":"m 363 -15 b 57 318 181 8 57 124 l 57 353 l 206 353 l 206 318 b 363 119 206 204 265 139 l 363 442 b 82 717 189 485 82 553 b 363 989 82 872 192 972 l 363 1133 l 500 1133 l 500 985 b 771 683 660 960 771 858 l 771 633 l 622 633 l 622 683 b 500 850 622 778 575 829 l 500 550 b 790 272 672 507 790 438 b 500 -15 790 117 679 7 l 500 -161 l 363 -161 m 231 721 b 363 585 231 647 275 610 l 363 856 b 231 721 278 842 231 794 m 642 269 b 500 407 642 346 590 381 l 500 118 b 642 269 593 138 642 194 "},"£":{"ha":879,"x_min":0,"x_max":0,"o":"m 78 131 l 181 131 l 181 413 l 83 413 l 83 529 l 181 529 l 181 689 b 486 992 181 883 297 992 b 793 689 675 992 793 883 l 793 606 l 649 606 l 649 692 b 486 861 649 797 588 861 b 324 692 385 861 324 797 l 324 529 l 479 529 l 479 413 l 324 413 l 324 131 l 799 131 l 799 0 l 78 0 "},"¥":{"ha":861,"x_min":0,"x_max":0,"o":"m 132 296 l 356 296 l 356 374 l 132 374 l 132 492 l 276 492 l 10 972 l 182 972 l 419 533 l 442 533 l 679 972 l 851 972 l 585 492 l 729 492 l 729 374 l 506 374 l 506 296 l 729 296 l 729 178 l 506 178 l 506 0 l 356 0 l 356 178 l 132 178 "},"¢":{"ha":831,"x_min":0,"x_max":0,"o":"m 367 -15 b 76 333 199 10 76 135 l 76 351 b 367 699 76 549 199 675 l 367 850 l 496 850 l 496 699 b 761 440 650 675 739 568 l 622 411 b 496 568 613 485 572 546 l 496 115 b 628 274 572 136 614 197 l 765 242 b 496 -14 738 117 650 10 l 496 -161 l 367 -161 m 219 336 b 367 117 219 218 279 142 l 367 567 b 219 349 279 543 219 465 l 219 336 "},"⁄":{"ha":894,"x_min":0,"x_max":0,"o":"m 28 50 l 788 988 l 867 922 l 107 -15 "},"%":{"ha":1063,"x_min":0,"x_max":0,"o":"m 107 54 l 867 990 l 956 918 l 196 -18 m 265 550 b 42 764 128 550 42 632 l 42 774 b 265 988 42 906 128 988 b 488 774 400 988 488 906 l 488 764 b 265 550 488 632 403 550 m 265 647 b 372 760 332 647 372 692 l 372 779 b 265 890 372 846 332 890 b 158 779 199 890 158 846 l 158 760 b 265 647 158 692 199 647 m 797 -15 b 575 199 660 -15 575 65 l 575 207 b 797 422 575 340 660 422 b 1021 207 932 422 1021 340 l 1021 199 b 797 -15 1021 65 935 -15 m 797 82 b 904 193 864 82 904 126 l 904 213 b 797 325 904 281 864 325 b 692 213 731 325 692 281 l 692 193 b 797 82 692 126 731 82 "},"‰":{"ha":1344,"x_min":0,"x_max":0,"o":"m 107 54 l 867 990 l 956 918 l 196 -18 m 265 550 b 42 764 128 550 42 632 l 42 774 b 265 988 42 906 128 988 b 488 774 400 988 488 906 l 488 764 b 265 550 488 632 403 550 m 265 647 b 372 760 332 647 372 692 l 372 779 b 265 890 372 846 332 890 b 158 779 199 890 158 846 l 158 760 b 265 647 158 692 199 647 m 774 -15 b 576 199 650 -15 576 67 l 576 208 b 774 422 576 340 650 422 b 929 343 846 422 899 393 l 950 343 b 1106 422 981 393 1033 422 b 1303 208 1229 422 1303 340 l 1303 199 b 1106 -15 1303 67 1229 -15 b 950 65 1033 -15 981 14 l 929 65 b 774 -15 899 14 846 -15 m 785 82 b 882 197 844 82 882 129 l 882 211 b 785 325 882 281 844 325 b 688 211 725 325 688 281 l 688 194 b 785 82 688 126 725 82 m 1094 82 b 1192 194 1154 82 1192 126 l 1192 211 b 1094 325 1192 281 1154 325 b 997 211 1035 325 997 281 l 997 197 b 1094 82 997 129 1035 82 "},"¼":{"ha":1143,"x_min":0,"x_max":0,"o":"m 101 50 l 863 988 l 942 922 l 181 -15 m 188 872 l 169 872 l 128 756 l 24 756 l 106 972 l 294 972 l 294 486 l 188 486 m 915 107 l 626 107 l 626 213 l 836 486 l 1025 486 l 1025 197 l 1119 197 l 1119 107 l 1025 107 l 1025 0 l 915 0 m 915 197 l 915 407 l 897 407 l 746 213 l 746 197 "},"½":{"ha":1144,"x_min":0,"x_max":0,"o":"m 101 50 l 863 988 l 942 922 l 181 -15 m 188 872 l 169 872 l 128 756 l 24 756 l 106 972 l 294 972 l 294 486 l 188 486 m 674 51 b 861 247 674 158 733 218 b 994 340 953 268 994 293 b 896 414 994 385 954 414 b 788 321 838 414 792 386 l 679 328 b 896 504 689 443 775 504 b 1103 339 1017 504 1103 439 b 914 169 1103 239 1031 194 b 790 90 828 150 793 131 l 1100 90 l 1100 0 l 674 0 "},"¾":{"ha":1240,"x_min":0,"x_max":0,"o":"m 199 50 l 960 988 l 1039 922 l 278 -15 m 256 468 b 33 640 135 468 40 531 l 140 651 b 256 558 146 593 196 558 b 363 642 319 558 363 594 b 253 717 363 692 324 717 l 165 717 l 165 800 l 307 867 l 307 885 l 43 885 l 43 972 l 469 972 l 469 874 l 307 794 l 307 778 b 471 638 410 774 471 731 b 256 468 471 538 378 468 m 1013 107 l 724 107 l 724 213 l 933 486 l 1122 486 l 1122 197 l 1217 197 l 1217 107 l 1122 107 l 1122 0 l 1013 0 m 1013 197 l 1013 407 l 994 407 l 843 213 l 843 197 "},"⅓":{"ha":1196,"x_min":0,"x_max":0,"o":"m 101 50 l 863 988 l 942 922 l 181 -15 m 188 872 l 169 872 l 128 756 l 24 756 l 106 972 l 294 972 l 294 486 l 188 486 m 938 -18 b 715 154 817 -18 722 44 l 824 165 b 938 72 829 107 878 72 b 1044 156 1001 72 1044 108 b 935 231 1044 206 1006 231 l 847 231 l 847 314 l 990 381 l 990 399 l 725 399 l 725 486 l 1151 486 l 1151 388 l 989 308 l 989 292 b 1154 151 1093 288 1154 244 b 938 -18 1154 51 1060 -18 "},"⅔":{"ha":1321,"x_min":0,"x_max":0,"o":"m 38 538 b 224 733 38 644 96 704 b 357 826 315 754 357 779 b 260 900 357 871 317 900 b 151 807 201 900 156 872 l 42 814 b 260 990 51 929 138 990 b 467 825 379 990 467 925 b 276 656 467 725 394 681 b 153 576 190 636 156 617 l 464 576 l 464 486 l 38 486 m 226 50 l 988 988 l 1067 922 l 306 -15 m 1063 -18 b 840 154 942 -18 847 44 l 949 165 b 1063 72 954 107 1003 72 b 1169 156 1128 72 1169 108 b 1060 231 1169 206 1131 231 l 972 231 l 972 314 l 1115 381 l 1115 399 l 850 399 l 850 486 l 1276 486 l 1276 388 l 1114 308 l 1114 292 b 1279 151 1218 288 1279 244 b 1063 -18 1279 51 1185 -18 "},"⅛":{"ha":1168,"x_min":0,"x_max":0,"o":"m 101 50 l 863 988 l 942 922 l 181 -15 m 188 872 l 169 872 l 128 756 l 24 756 l 106 972 l 294 972 l 294 486 l 188 486 m 904 -18 b 685 128 763 -18 685 42 b 772 242 685 204 738 233 l 772 261 b 693 367 742 269 693 300 b 904 504 693 450 775 504 b 1115 367 1032 504 1115 450 b 1035 261 1115 300 1065 269 l 1035 242 b 1124 128 1069 233 1124 204 b 904 -18 1124 42 1044 -18 m 904 294 b 1007 354 968 294 1007 318 b 904 414 1007 392 968 414 b 800 354 839 414 800 392 b 904 294 800 318 839 294 m 904 72 b 1015 139 974 72 1015 96 b 904 204 1015 181 974 204 b 792 139 835 204 792 181 b 904 72 792 96 835 72 "},"⅜":{"ha":1265,"x_min":0,"x_max":0,"o":"m 199 50 l 960 988 l 1039 922 l 278 -15 m 256 468 b 33 640 135 468 40 531 l 140 651 b 256 558 146 593 196 558 b 363 642 319 558 363 594 b 253 717 363 692 324 717 l 165 717 l 165 800 l 307 867 l 307 885 l 43 885 l 43 972 l 469 972 l 469 874 l 307 794 l 307 778 b 471 638 410 774 471 731 b 256 468 471 538 378 468 m 1001 -18 b 782 128 860 -18 782 42 b 869 242 782 204 835 233 l 869 261 b 790 367 839 269 790 300 b 1001 504 790 450 872 504 b 1213 367 1129 504 1213 450 b 1132 261 1213 300 1163 269 l 1132 242 b 1221 128 1167 233 1221 204 b 1001 -18 1221 42 1142 -18 m 1001 294 b 1104 354 1065 294 1104 318 b 1001 414 1104 392 1065 414 b 897 354 936 414 897 392 b 1001 294 897 318 936 294 m 1001 72 b 1113 139 1071 72 1113 96 b 1001 204 1113 181 1071 204 b 889 139 932 204 889 181 b 1001 72 889 96 932 72 "},"⅝":{"ha":1260,"x_min":0,"x_max":0,"o":"m 193 50 l 954 988 l 1033 922 l 272 -15 m 258 468 b 39 628 129 468 51 538 l 149 638 b 258 558 157 593 197 558 b 363 647 322 558 363 594 b 268 728 363 699 321 728 b 179 688 218 728 193 703 l 53 688 l 53 972 l 458 972 l 458 882 l 163 882 l 163 769 l 181 769 b 301 811 199 786 232 811 b 472 649 392 811 472 754 b 258 468 472 543 394 468 m 996 -18 b 776 128 854 -18 776 42 b 864 242 776 204 829 233 l 864 261 b 785 367 833 269 785 300 b 996 504 785 450 867 504 b 1207 367 1124 504 1207 450 b 1126 261 1207 300 1157 269 l 1126 242 b 1215 128 1161 233 1215 204 b 996 -18 1215 42 1136 -18 m 996 294 b 1099 354 1060 294 1099 318 b 996 414 1099 392 1060 414 b 892 354 931 414 892 392 b 996 294 892 318 931 294 m 996 72 b 1107 139 1065 72 1107 96 b 996 204 1107 181 1065 204 b 883 139 926 204 883 181 b 996 72 883 96 926 72 "},"⅞":{"ha":1150,"x_min":0,"x_max":0,"o":"m 85 50 l 844 988 l 924 922 l 164 -15 m 117 486 b 163 635 117 546 125 582 l 331 865 l 331 882 l 18 882 l 18 972 l 444 972 l 444 847 l 253 582 b 224 486 229 549 224 529 l 117 486 m 886 -18 b 667 128 746 -18 667 42 b 756 242 667 204 719 233 l 756 261 b 675 367 724 269 675 300 b 886 504 675 450 758 504 b 1097 367 1014 504 1097 450 b 1018 261 1097 300 1049 269 l 1018 242 b 1106 128 1053 233 1106 204 b 886 -18 1106 42 1026 -18 m 886 294 b 990 354 951 294 990 318 b 886 414 990 392 951 414 b 782 354 821 414 782 392 b 886 294 782 318 821 294 m 886 72 b 999 139 956 72 999 96 b 886 204 999 181 956 204 b 774 139 817 204 774 181 b 886 72 774 96 817 72 "},"+":{"ha":861,"x_min":0,"x_max":0,"o":"m 364 421 l 140 421 l 140 551 l 364 551 l 364 776 l 499 776 l 499 551 l 721 551 l 721 421 l 499 421 l 499 196 l 364 196 "},"−":{"ha":861,"x_min":0,"x_max":0,"o":"m 140 551 l 721 551 l 721 421 l 140 421 "},"×":{"ha":861,"x_min":0,"x_max":0,"o":"m 144 293 l 338 486 l 144 679 l 236 771 l 431 579 l 625 771 l 717 679 l 524 486 l 717 293 l 625 201 l 431 394 l 236 201 "},"÷":{"ha":861,"x_min":0,"x_max":0,"o":"m 431 628 b 325 733 371 628 325 675 b 431 839 325 792 371 839 b 536 733 490 839 536 792 b 431 628 536 675 490 628 m 140 551 l 721 551 l 721 421 l 140 421 m 431 133 b 325 239 371 133 325 181 b 431 344 325 297 371 344 b 536 239 490 344 536 297 b 431 133 536 181 490 133 "},"=":{"ha":861,"x_min":0,"x_max":0,"o":"m 140 664 l 721 664 l 721 533 l 140 533 m 140 439 l 721 439 l 721 308 l 140 308 "},"<":{"ha":861,"x_min":0,"x_max":0,"o":"m 139 396 l 139 576 l 722 792 l 722 650 l 281 497 l 281 475 l 722 324 l 722 181 "},">":{"ha":861,"x_min":0,"x_max":0,"o":"m 139 324 l 582 475 l 582 497 l 139 650 l 139 792 l 722 576 l 722 396 l 139 181 "},"≤":{"ha":861,"x_min":0,"x_max":0,"o":"m 139 396 l 139 576 l 722 792 l 722 650 l 281 497 l 281 475 l 722 324 l 722 181 m 139 125 l 722 125 l 722 0 l 139 0 "},"≥":{"ha":861,"x_min":0,"x_max":0,"o":"m 139 324 l 582 475 l 582 497 l 139 650 l 139 792 l 722 576 l 722 396 l 139 181 m 139 125 l 722 125 l 722 0 l 139 0 "},"±":{"ha":861,"x_min":0,"x_max":0,"o":"m 364 422 l 140 422 l 140 553 l 364 553 l 364 758 l 499 758 l 499 553 l 721 553 l 721 422 l 499 422 l 499 215 l 364 215 m 140 131 l 721 131 l 721 0 l 140 0 "},"^":{"ha":861,"x_min":0,"x_max":0,"o":"m 322 972 l 539 972 l 761 589 l 599 589 l 442 879 l 419 879 l 264 589 l 100 589 "},"≠":{"ha":861,"x_min":0,"x_max":0,"o":"m 140 439 l 344 439 l 376 533 l 140 533 l 140 664 l 419 664 l 469 810 l 596 769 l 561 664 l 721 664 l 721 533 l 517 533 l 485 439 l 721 439 l 721 308 l 442 308 l 393 161 l 265 203 l 300 308 l 140 308 "},"~":{"ha":861,"x_min":0,"x_max":0,"o":"m 88 456 l 236 569 b 357 621 271 597 306 621 b 467 556 411 621 442 593 b 524 507 490 521 499 507 b 581 535 544 507 560 518 l 692 621 l 772 517 l 625 403 b 504 353 589 375 554 353 b 393 417 450 353 419 379 b 336 465 371 451 361 465 b 279 438 315 465 300 454 l 168 351 "},"≈":{"ha":861,"x_min":0,"x_max":0,"o":"m 88 593 l 236 707 b 357 758 271 735 306 758 b 467 693 411 758 442 732 b 524 644 490 660 499 644 b 581 672 544 644 560 657 l 692 760 l 772 656 l 625 542 b 504 490 589 514 554 490 b 393 556 450 490 419 517 b 336 604 371 589 361 604 b 279 576 315 604 300 592 l 168 489 m 88 317 l 236 431 b 357 482 271 458 306 482 b 468 415 411 482 442 456 b 524 368 490 383 499 368 b 581 396 544 368 560 381 l 692 483 l 772 379 l 625 265 b 504 214 589 238 554 214 b 393 279 450 214 419 240 b 336 328 371 313 361 328 b 279 300 315 328 300 315 l 168 213 "},"¬":{"ha":861,"x_min":0,"x_max":0,"o":"m 594 421 l 140 421 l 140 551 l 721 551 l 721 261 l 594 261 "},"∞":{"ha":861,"x_min":0,"x_max":0,"o":"m 274 272 b 64 486 153 272 64 360 b 274 700 64 613 153 700 b 419 626 340 700 394 674 l 442 626 b 588 700 467 674 521 700 b 797 486 708 700 797 613 b 588 272 797 360 708 272 b 442 346 521 272 467 299 l 419 346 b 274 272 394 299 340 272 m 279 394 b 368 486 331 394 368 431 b 279 578 368 542 331 578 b 192 486 228 578 192 542 b 279 394 192 431 228 394 m 582 394 b 669 486 633 394 669 431 b 582 578 669 542 633 578 b 493 486 531 578 493 542 b 582 394 493 431 531 394 "},"°":{"ha":539,"x_min":0,"x_max":0,"o":"m 269 557 b 47 775 144 557 47 647 b 269 992 47 901 144 992 b 492 775 393 992 492 901 b 269 557 492 647 393 557 m 269 669 b 374 775 331 669 374 713 b 269 879 374 838 331 879 b 165 775 208 879 165 838 b 269 669 165 713 208 669 "},"∂":{"ha":861,"x_min":0,"x_max":0,"o":"m 426 -19 b 78 333 222 -19 78 129 l 78 350 b 393 704 78 551 206 704 b 579 628 485 704 543 675 l 600 628 b 219 871 554 774 400 850 l 243 1001 b 783 392 594 960 783 744 b 426 -19 783 146 654 -19 m 428 115 b 635 350 554 115 635 204 b 428 569 635 481 549 569 b 221 349 306 569 221 476 l 221 336 b 428 115 221 201 306 115 "},"◊":{"ha":861,"x_min":0,"x_max":0,"o":"m 72 486 l 317 972 l 544 972 l 789 486 l 544 0 l 317 0 m 442 111 l 629 486 l 442 863 l 419 863 l 232 486 l 419 111 "},"∫":{"ha":861,"x_min":0,"x_max":0,"o":"m 182 -147 l 322 -147 b 360 -106 347 -147 360 -133 l 360 847 b 483 972 360 918 413 972 l 679 972 l 679 842 l 539 842 b 501 800 514 842 501 828 l 501 -153 b 378 -278 501 -224 449 -278 l 182 -278 "},"√":{"ha":861,"x_min":0,"x_max":0,"o":"m 200 425 l 56 425 l 56 554 l 315 554 l 413 94 l 432 94 l 669 1189 l 818 1189 l 551 0 l 293 0 "},"∑":{"ha":861,"x_min":0,"x_max":0,"o":"m 81 -96 l 426 347 l 81 790 l 81 972 l 793 972 l 793 842 l 238 842 l 238 822 l 610 347 l 238 -128 l 238 -147 l 793 -147 l 793 -278 l 81 -278 "},"∏":{"ha":861,"x_min":0,"x_max":0,"o":"m 88 972 l 767 972 l 767 -278 l 624 -278 l 624 842 l 231 842 l 231 -278 l 88 -278 "},"Ω":{"ha":861,"x_min":0,"x_max":0,"o":"m 64 129 l 206 129 l 206 150 b 81 411 133 193 81 271 l 81 606 b 431 992 81 840 206 992 b 781 606 656 992 781 840 l 781 411 b 656 150 781 269 728 193 l 656 129 l 797 129 l 797 0 l 485 0 l 485 158 b 636 428 610 193 636 278 l 636 607 b 431 860 636 769 560 860 b 226 607 301 860 226 769 l 226 428 b 376 158 226 278 251 193 l 376 0 l 64 0 "},"Δ":{"ha":861,"x_min":0,"x_max":0,"o":"m 307 972 l 554 972 l 824 0 l 38 0 m 644 131 l 442 851 l 419 851 l 217 131 "},"`":{"ha":400,"x_min":0,"x_max":0,"o":"m 65 972 l 231 972 l 335 775 l 206 775 "},"´":{"ha":400,"x_min":0,"x_max":0,"o":"m 169 967 l 335 967 l 194 768 l 65 768 "},"ˆ":{"ha":636,"x_min":0,"x_max":0,"o":"m 232 967 l 404 967 l 571 768 l 421 768 l 329 878 l 307 878 l 215 768 l 65 768 "},"ˇ":{"ha":636,"x_min":0,"x_max":0,"o":"m 65 967 l 215 967 l 307 857 l 329 857 l 421 967 l 571 967 l 404 768 l 232 768 "},"˜":{"ha":600,"x_min":0,"x_max":0,"o":"m 65 806 l 110 885 b 215 949 135 928 171 949 b 314 901 256 949 283 933 b 374 863 333 882 350 863 b 424 900 399 863 411 881 l 451 947 l 535 896 l 490 817 b 385 753 465 775 429 753 b 286 800 344 753 317 768 b 226 839 267 819 249 839 b 176 801 201 839 189 821 l 149 756 "},"¨":{"ha":600,"x_min":0,"x_max":0,"o":"m 436 774 b 339 871 381 774 339 813 b 436 968 339 929 381 968 b 535 871 493 968 535 929 b 436 774 535 813 493 774 m 164 774 b 65 871 107 774 65 813 b 164 968 65 929 107 968 b 261 871 219 968 261 929 b 164 774 261 813 219 774 "},"¯":{"ha":572,"x_min":0,"x_max":0,"o":"m 65 907 l 507 907 l 507 792 l 65 792 "},"˘":{"ha":565,"x_min":0,"x_max":0,"o":"m 283 764 b 65 958 149 764 65 836 l 65 967 l 186 967 l 186 960 b 283 861 186 904 217 861 b 379 960 349 861 379 904 l 379 967 l 500 967 l 500 958 b 283 764 500 836 417 764 "},"˚":{"ha":413,"x_min":0,"x_max":0,"o":"m 206 751 b 65 888 128 751 65 808 b 206 1024 65 965 126 1024 b 347 888 286 1024 347 968 b 206 751 347 804 282 751 m 206 836 b 257 888 236 836 257 858 b 206 938 257 917 236 938 b 156 888 175 938 156 917 b 206 836 156 858 175 836 "},"˝":{"ha":585,"x_min":0,"x_max":0,"o":"m 368 967 l 519 967 l 397 768 l 279 768 m 139 967 l 279 967 l 182 768 l 65 768 "},"˙":{"ha":328,"x_min":0,"x_max":0,"o":"m 164 778 b 65 875 107 778 65 817 b 164 972 65 933 107 972 b 263 875 219 972 263 933 b 164 778 263 817 219 778 "},"¸":{"ha":453,"x_min":0,"x_max":0,"o":"m 218 -292 b 65 -258 160 -292 104 -276 l 96 -171 b 213 -199 129 -186 165 -199 b 279 -156 251 -199 279 -185 b 210 -114 279 -128 256 -114 l 158 -114 l 169 29 l 271 29 l 264 -58 b 388 -171 335 -58 388 -97 b 218 -292 388 -254 307 -292 "},"˛":{"ha":329,"x_min":0,"x_max":0,"o":"m 169 -232 b 65 -139 107 -232 65 -197 b 78 -51 65 -111 71 -81 l 96 24 l 193 24 l 176 -62 b 171 -101 174 -78 171 -89 b 203 -131 171 -121 182 -131 l 264 -131 l 264 -232 l 169 -232 "},"ﬁ":{"ha":928,"x_min":0,"x_max":0,"o":"m 751 774 b 653 871 694 774 653 814 b 751 968 653 929 694 968 b 850 871 807 968 850 929 b 751 774 850 814 807 774 m 229 564 l 38 564 l 38 685 l 229 685 l 229 835 b 367 972 229 919 282 972 l 533 972 l 533 853 l 413 853 b 372 811 386 853 372 839 l 372 685 l 822 685 l 822 0 l 679 0 l 679 564 l 372 564 l 372 0 l 229 0 "},"ﬂ":{"ha":928,"x_min":0,"x_max":0,"o":"m 229 564 l 38 564 l 38 685 l 229 685 l 229 835 b 367 972 229 919 282 972 l 543 972 l 543 853 l 413 853 b 372 811 386 853 372 839 l 372 685 l 569 685 l 569 564 l 372 564 l 372 0 l 229 0 m 679 972 l 822 972 l 822 0 l 679 0 "},"ƒ":{"ha":861,"x_min":0,"x_max":0,"o":"m 111 135 l 319 135 b 357 176 344 135 357 149 l 357 492 l 164 492 l 164 625 l 357 625 l 357 847 b 481 972 357 918 410 972 l 760 972 l 760 838 l 536 838 b 499 796 511 838 499 824 l 499 625 l 699 625 l 699 492 l 499 492 l 499 125 b 375 0 499 54 446 0 l 111 0 "},"́":{"ha":0,"x_min":0,"x_max":0,"o":"m 169 967 l 335 967 l 194 768 l 65 768 "},"¹":{"ha":356,"x_min":0,"x_max":0,"o":"m 188 872 l 169 872 l 128 756 l 24 756 l 106 972 l 294 972 l 294 486 l 188 486 "},"²":{"ha":507,"x_min":0,"x_max":0,"o":"m 38 538 b 224 733 38 644 96 704 b 357 826 315 754 357 779 b 260 900 357 871 317 900 b 151 807 201 900 156 872 l 42 814 b 260 990 51 929 138 990 b 467 825 379 990 467 925 b 276 656 467 725 394 681 b 153 576 190 636 156 617 l 464 576 l 464 486 l 38 486 "},"³":{"ha":514,"x_min":0,"x_max":0,"o":"m 256 468 b 33 640 135 468 40 531 l 140 651 b 256 558 146 593 196 558 b 363 642 319 558 363 594 b 253 717 363 692 324 717 l 165 717 l 165 800 l 307 867 l 307 885 l 43 885 l 43 972 l 469 972 l 469 874 l 307 794 l 307 778 b 471 638 410 774 471 731 b 256 468 471 538 378 468 "},"ⁱ":{"ha":283,"x_min":0,"x_max":0,"o":"m 142 1044 b 63 1121 97 1044 63 1076 b 142 1197 63 1164 97 1197 b 221 1121 186 1197 221 1164 b 142 1044 221 1076 186 1044 m 88 972 l 196 972 l 196 486 l 88 486 "},"ⁿ":{"ha":619,"x_min":0,"x_max":0,"o":"m 75 972 l 182 972 l 182 904 l 200 904 b 351 983 221 942 265 983 b 550 775 471 983 550 904 l 550 486 l 440 486 l 440 765 b 321 893 440 850 399 893 b 185 733 239 893 185 835 l 185 486 l 75 486 "},"ₔ":{"ha":579,"x_min":0,"x_max":0,"o":"m 288 -292 b 50 -50 142 -292 50 -193 l 50 -3 l 424 -3 b 286 135 424 72 369 135 b 151 53 206 135 172 99 l 67 96 b 290 222 99 158 165 222 b 529 -32 436 222 529 115 l 529 -43 b 288 -292 529 -190 433 -292 m 289 -203 b 424 -83 374 -203 418 -151 l 157 -83 b 289 -203 160 -151 207 -203 "},"Ǽ":{"ha":1147,"x_min":0,"x_max":0,"o":"m 594 1228 l 764 1228 l 631 1053 l 500 1053 m 390 972 l 1085 972 l 1085 836 l 679 836 l 679 557 l 1046 557 l 1046 421 l 679 421 l 679 136 l 1092 136 l 1092 0 l 531 0 l 531 229 l 269 229 l 186 0 l 31 0 m 531 890 l 508 890 l 317 368 l 531 368 "},"Ắ":{"ha":878,"x_min":0,"x_max":0,"o":"m 446 1446 l 617 1446 l 482 1271 l 351 1271 m 439 1044 b 221 1224 301 1044 221 1115 l 221 1229 l 340 1229 l 340 1224 b 439 1135 340 1172 371 1135 b 538 1224 507 1135 538 1172 l 538 1229 l 657 1229 l 657 1224 b 439 1044 657 1115 576 1044 m 307 972 l 571 972 l 847 0 l 693 0 l 629 229 l 249 229 l 185 0 l 31 0 m 592 368 l 450 879 l 428 879 l 286 368 "},"Ặ":{"ha":878,"x_min":0,"x_max":0,"o":"m 439 1044 b 221 1224 301 1044 221 1115 l 221 1229 l 340 1229 l 340 1224 b 439 1135 340 1172 371 1135 b 538 1224 507 1135 538 1172 l 538 1229 l 657 1229 l 657 1224 b 439 1044 657 1115 576 1044 m 307 972 l 571 972 l 847 0 l 693 0 l 629 229 l 249 229 l 185 0 l 31 0 m 592 368 l 450 879 l 428 879 l 286 368 m 439 -285 b 340 -187 383 -285 340 -244 b 439 -89 340 -129 383 -89 b 538 -187 494 -89 538 -129 b 439 -285 538 -244 494 -285 "},"Ằ":{"ha":878,"x_min":0,"x_max":0,"o":"m 263 1446 l 432 1446 l 528 1271 l 396 1271 m 439 1044 b 221 1224 301 1044 221 1115 l 221 1229 l 340 1229 l 340 1224 b 439 1135 340 1172 371 1135 b 538 1224 507 1135 538 1172 l 538 1229 l 657 1229 l 657 1224 b 439 1044 657 1115 576 1044 m 307 972 l 571 972 l 847 0 l 693 0 l 629 229 l 249 229 l 185 0 l 31 0 m 592 368 l 450 879 l 428 879 l 286 368 "},"Ẳ":{"ha":878,"x_min":0,"x_max":0,"o":"m 385 1365 l 436 1365 b 504 1410 481 1365 504 1381 b 439 1457 504 1442 476 1457 b 322 1428 392 1457 354 1443 l 292 1515 b 444 1549 331 1535 386 1549 b 613 1425 532 1549 613 1510 b 489 1311 613 1353 561 1311 l 494 1258 l 393 1258 m 439 1044 b 221 1224 301 1044 221 1115 l 221 1229 l 340 1229 l 340 1224 b 439 1135 340 1172 371 1135 b 538 1224 507 1135 538 1172 l 538 1229 l 657 1229 l 657 1224 b 439 1044 657 1115 576 1044 m 307 972 l 571 972 l 847 0 l 693 0 l 629 229 l 249 229 l 185 0 l 31 0 m 592 368 l 450 879 l 428 879 l 286 368 "},"Ẵ":{"ha":878,"x_min":0,"x_max":0,"o":"m 197 1339 l 242 1404 b 353 1469 269 1443 303 1469 b 456 1422 397 1469 422 1453 b 518 1385 476 1401 493 1385 b 572 1424 543 1385 558 1404 l 603 1467 l 681 1408 l 636 1344 b 525 1279 607 1304 575 1279 b 422 1326 481 1279 456 1294 b 360 1363 401 1346 385 1363 b 304 1324 335 1363 319 1344 l 275 1282 m 439 1044 b 221 1224 301 1044 221 1115 l 221 1229 l 340 1229 l 340 1224 b 439 1135 340 1172 371 1135 b 538 1224 507 1135 538 1172 l 538 1229 l 657 1229 l 657 1224 b 439 1044 657 1115 576 1044 m 307 972 l 571 972 l 847 0 l 693 0 l 629 229 l 249 229 l 185 0 l 31 0 m 592 368 l 450 879 l 428 879 l 286 368 "},"Ǎ":{"ha":878,"x_min":0,"x_max":0,"o":"m 185 1228 l 344 1228 l 428 1131 l 450 1131 l 533 1228 l 693 1228 l 526 1053 l 351 1053 m 307 972 l 571 972 l 847 0 l 693 0 l 629 229 l 249 229 l 185 0 l 31 0 m 592 368 l 450 879 l 428 879 l 286 368 "},"Ấ":{"ha":878,"x_min":0,"x_max":0,"o":"m 688 1364 l 828 1364 l 738 1185 l 624 1185 m 351 1228 l 526 1228 l 693 1053 l 533 1053 l 450 1150 l 428 1150 l 344 1053 l 185 1053 m 307 972 l 571 972 l 847 0 l 693 0 l 629 229 l 249 229 l 185 0 l 31 0 m 592 368 l 450 879 l 428 879 l 286 368 "},"Ậ":{"ha":878,"x_min":0,"x_max":0,"o":"m 351 1228 l 526 1228 l 693 1053 l 533 1053 l 450 1150 l 428 1150 l 344 1053 l 185 1053 m 307 972 l 571 972 l 847 0 l 693 0 l 629 229 l 249 229 l 185 0 l 31 0 m 592 368 l 450 879 l 428 879 l 286 368 m 439 -285 b 340 -187 383 -285 340 -244 b 439 -89 340 -129 383 -89 b 538 -187 494 -89 538 -129 b 439 -285 538 -244 494 -285 "},"Ầ":{"ha":878,"x_min":0,"x_max":0,"o":"m 557 1364 l 697 1364 l 764 1185 l 650 1185 m 351 1228 l 526 1228 l 693 1053 l 533 1053 l 450 1150 l 428 1150 l 344 1053 l 185 1053 m 307 972 l 571 972 l 847 0 l 693 0 l 629 229 l 249 229 l 185 0 l 31 0 m 592 368 l 450 879 l 428 879 l 286 368 "},"Ẩ":{"ha":878,"x_min":0,"x_max":0,"o":"m 622 1296 l 674 1296 b 743 1340 719 1296 743 1311 b 676 1386 743 1371 715 1386 b 560 1358 629 1386 593 1374 l 529 1446 b 682 1479 568 1464 624 1479 b 851 1356 771 1479 851 1440 b 728 1240 851 1282 799 1240 l 732 1188 l 631 1188 m 351 1228 l 526 1228 l 693 1053 l 533 1053 l 450 1150 l 428 1150 l 344 1053 l 185 1053 m 307 972 l 571 972 l 847 0 l 693 0 l 629 229 l 249 229 l 185 0 l 31 0 m 592 368 l 450 879 l 428 879 l 286 368 "},"Ẫ":{"ha":878,"x_min":0,"x_max":0,"o":"m 197 1340 l 242 1406 b 353 1471 269 1444 303 1471 b 456 1424 397 1471 422 1454 b 518 1388 476 1403 493 1388 b 572 1425 543 1388 558 1406 l 603 1468 l 681 1411 l 636 1346 b 525 1281 607 1307 575 1281 b 422 1328 481 1281 456 1296 b 360 1364 401 1347 385 1364 b 304 1325 335 1364 319 1346 l 275 1283 m 351 1228 l 526 1228 l 693 1053 l 533 1053 l 450 1150 l 428 1150 l 344 1053 l 185 1053 m 307 972 l 571 972 l 847 0 l 693 0 l 629 229 l 249 229 l 185 0 l 31 0 m 592 368 l 450 879 l 428 879 l 286 368 "},"Ȁ":{"ha":878,"x_min":0,"x_max":0,"o":"m 164 1229 l 321 1229 l 419 1054 l 296 1054 m 406 1229 l 549 1229 l 625 1054 l 514 1054 m 307 972 l 571 972 l 847 0 l 693 0 l 629 229 l 249 229 l 185 0 l 31 0 m 592 368 l 450 879 l 428 879 l 286 368 "},"Ạ":{"ha":878,"x_min":0,"x_max":0,"o":"m 307 972 l 571 972 l 847 0 l 693 0 l 629 229 l 249 229 l 185 0 l 31 0 m 592 368 l 450 879 l 428 879 l 286 368 m 439 -285 b 340 -187 383 -285 340 -244 b 439 -89 340 -129 383 -89 b 538 -187 494 -89 538 -129 b 439 -285 538 -244 494 -285 "},"Ả":{"ha":878,"x_min":0,"x_max":0,"o":"m 388 1147 l 440 1147 b 508 1190 485 1147 508 1163 b 442 1238 508 1222 481 1238 b 325 1210 396 1238 358 1224 l 294 1296 b 447 1331 333 1315 389 1331 b 617 1207 536 1331 617 1290 b 493 1092 617 1133 564 1092 l 497 1039 l 396 1039 m 307 972 l 571 972 l 847 0 l 693 0 l 629 229 l 249 229 l 185 0 l 31 0 m 592 368 l 450 879 l 428 879 l 286 368 "},"Ȃ":{"ha":878,"x_min":0,"x_max":0,"o":"m 221 1065 b 439 1260 221 1188 304 1260 b 656 1065 574 1260 656 1188 l 656 1057 l 535 1057 l 535 1064 b 439 1163 535 1119 504 1163 b 343 1064 372 1163 343 1119 l 343 1057 l 221 1057 m 307 972 l 571 972 l 847 0 l 693 0 l 629 229 l 249 229 l 185 0 l 31 0 m 592 368 l 450 879 l 428 879 l 286 368 "},"Ǻ":{"ha":878,"x_min":0,"x_max":0,"o":"m 439 1039 b 299 1175 361 1039 299 1096 b 439 1311 299 1254 360 1311 b 456 1310 444 1311 450 1311 l 525 1431 l 668 1431 l 547 1264 b 581 1175 568 1242 581 1211 b 439 1039 581 1093 515 1039 m 439 1125 b 490 1175 469 1125 490 1146 b 439 1225 490 1204 469 1225 b 389 1175 408 1225 389 1204 b 439 1125 389 1146 408 1125 m 307 972 l 571 972 l 847 0 l 693 0 l 629 229 l 249 229 l 185 0 l 31 0 m 592 368 l 450 879 l 428 879 l 286 368 "},"Ƀ":{"ha":921,"x_min":0,"x_max":0,"o":"m 65 133 l 197 133 l 197 224 l 65 224 l 65 329 l 197 329 l 197 839 l 65 839 l 65 972 l 558 972 b 850 728 732 972 850 876 l 850 714 b 697 504 850 579 760 522 l 697 482 b 854 269 761 464 854 407 l 854 256 b 561 0 854 94 732 0 l 65 0 m 543 558 b 700 690 638 558 700 608 l 700 704 b 543 836 700 785 639 836 l 347 836 l 347 558 m 543 136 b 704 272 643 136 704 188 l 704 285 b 543 421 704 371 644 421 l 347 421 l 347 329 l 513 329 l 513 224 l 347 224 l 347 136 "},"Ḉ":{"ha":893,"x_min":0,"x_max":0,"o":"m 464 1228 l 633 1228 l 500 1053 l 369 1053 m 463 -292 b 310 -258 404 -292 349 -276 l 340 -171 b 457 -199 374 -186 410 -199 b 524 -156 496 -199 524 -185 b 454 -114 524 -128 500 -114 l 403 -114 l 411 -17 b 76 372 204 1 76 138 l 76 600 b 463 992 76 854 225 992 b 828 629 696 992 828 854 l 828 622 l 679 622 l 679 633 b 463 857 679 764 610 857 b 226 603 314 857 226 761 l 226 369 b 463 115 226 211 314 115 b 679 339 610 115 679 208 l 679 363 l 828 363 l 828 343 b 511 -17 828 135 714 1 l 508 -58 b 632 -171 579 -58 632 -97 b 463 -292 632 -254 551 -292 "},"Ǆ":{"ha":1706,"x_min":0,"x_max":0,"o":"m 1051 1228 l 1213 1228 l 1294 1131 l 1317 1131 l 1400 1228 l 1561 1228 l 1393 1053 l 1218 1053 m 65 133 l 197 133 l 197 839 l 65 839 l 65 972 l 454 972 b 856 576 713 972 856 842 l 856 394 b 454 0 856 131 713 0 l 65 0 m 971 194 l 1482 818 l 1482 838 l 986 838 l 986 972 l 1635 972 l 1635 778 l 1125 154 l 1125 135 l 1642 135 l 1642 0 l 971 0 m 456 136 b 706 390 622 136 706 221 l 706 582 b 456 835 706 751 622 835 l 347 835 l 347 136 "},"Ḍ":{"ha":924,"x_min":0,"x_max":0,"o":"m 65 133 l 197 133 l 197 839 l 65 839 l 65 972 l 454 972 b 856 576 713 972 856 842 l 856 394 b 454 0 856 131 713 0 l 65 0 m 456 136 b 706 390 622 136 706 221 l 706 582 b 456 835 706 751 622 835 l 347 835 l 347 136 m 443 -285 b 344 -187 388 -285 344 -244 b 443 -89 344 -129 388 -89 b 542 -187 499 -89 542 -129 b 443 -285 542 -244 499 -285 "},"Ḏ":{"ha":924,"x_min":0,"x_max":0,"o":"m 65 133 l 197 133 l 197 839 l 65 839 l 65 972 l 454 972 b 856 576 713 972 856 842 l 856 394 b 454 0 856 131 713 0 l 65 0 m 456 136 b 706 390 622 136 706 221 l 706 582 b 456 835 706 751 622 835 l 347 835 l 347 136 m 222 -108 l 664 -108 l 664 -224 l 222 -224 "},"ǅ":{"ha":1644,"x_min":0,"x_max":0,"o":"m 65 133 l 197 133 l 197 839 l 65 839 l 65 972 l 454 972 b 856 576 713 972 856 842 l 856 394 b 454 0 856 131 713 0 l 65 0 m 1028 967 l 1178 967 l 1269 857 l 1292 857 l 1383 967 l 1533 967 l 1367 768 l 1194 768 m 456 136 b 706 390 622 136 706 221 l 706 582 b 456 835 706 751 622 835 l 347 835 l 347 136 m 1001 175 l 1406 544 l 1406 564 l 1015 564 l 1015 685 l 1560 685 l 1560 508 l 1156 139 l 1156 121 l 1571 121 l 1571 0 l 1001 0 "},"Ḝ":{"ha":776,"x_min":0,"x_max":0,"o":"m 415 1044 b 197 1224 278 1044 197 1115 l 197 1229 l 317 1229 l 317 1224 b 415 1135 317 1172 347 1135 b 514 1224 483 1135 514 1172 l 514 1229 l 633 1229 l 633 1224 b 415 1044 633 1115 553 1044 m 101 972 l 714 972 l 714 836 l 251 836 l 251 557 l 675 557 l 675 421 l 251 421 l 251 136 l 721 136 l 721 0 l 463 0 l 458 -58 b 582 -171 529 -58 582 -97 b 413 -292 582 -254 501 -292 b 260 -258 354 -292 299 -276 l 290 -171 b 407 -199 324 -186 360 -199 b 474 -156 446 -199 474 -185 b 404 -114 474 -128 450 -114 l 353 -114 l 363 0 l 101 0 "},"Ế":{"ha":776,"x_min":0,"x_max":0,"o":"m 664 1364 l 803 1364 l 714 1185 l 600 1185 m 328 1228 l 503 1228 l 669 1053 l 510 1053 l 426 1150 l 404 1150 l 321 1053 l 161 1053 m 101 972 l 714 972 l 714 836 l 251 836 l 251 557 l 675 557 l 675 421 l 251 421 l 251 136 l 721 136 l 721 0 l 101 0 "},"Ệ":{"ha":776,"x_min":0,"x_max":0,"o":"m 328 1228 l 503 1228 l 669 1053 l 510 1053 l 426 1150 l 404 1150 l 321 1053 l 161 1053 m 101 972 l 714 972 l 714 836 l 251 836 l 251 557 l 675 557 l 675 421 l 251 421 l 251 136 l 721 136 l 721 0 l 101 0 m 411 -285 b 313 -187 354 -285 313 -244 b 411 -89 313 -129 354 -89 b 510 -187 467 -89 510 -129 b 411 -285 510 -244 467 -285 "},"Ề":{"ha":776,"x_min":0,"x_max":0,"o":"m 533 1364 l 674 1364 l 740 1185 l 626 1185 m 328 1228 l 503 1228 l 669 1053 l 510 1053 l 426 1150 l 404 1150 l 321 1053 l 161 1053 m 101 972 l 714 972 l 714 836 l 251 836 l 251 557 l 675 557 l 675 421 l 251 421 l 251 136 l 721 136 l 721 0 l 101 0 "},"Ể":{"ha":776,"x_min":0,"x_max":0,"o":"m 599 1296 l 650 1296 b 718 1340 696 1296 718 1311 b 653 1386 718 1371 690 1386 b 536 1358 606 1386 569 1374 l 506 1446 b 658 1479 544 1464 600 1479 b 826 1356 746 1479 826 1440 b 703 1240 826 1282 775 1240 l 708 1188 l 607 1188 m 328 1228 l 503 1228 l 669 1053 l 510 1053 l 426 1150 l 404 1150 l 321 1053 l 161 1053 m 101 972 l 714 972 l 714 836 l 251 836 l 251 557 l 675 557 l 675 421 l 251 421 l 251 136 l 721 136 l 721 0 l 101 0 "},"Ễ":{"ha":776,"x_min":0,"x_max":0,"o":"m 174 1340 l 218 1406 b 329 1471 246 1444 279 1471 b 432 1424 374 1471 399 1454 b 494 1388 453 1403 469 1388 b 549 1425 519 1388 535 1406 l 579 1468 l 656 1411 l 611 1346 b 500 1281 583 1307 550 1281 b 399 1328 457 1281 432 1296 b 336 1364 378 1347 361 1364 b 281 1325 311 1364 296 1346 l 251 1283 m 328 1228 l 503 1228 l 669 1053 l 510 1053 l 426 1150 l 404 1150 l 321 1053 l 161 1053 m 101 972 l 714 972 l 714 836 l 251 836 l 251 557 l 675 557 l 675 421 l 251 421 l 251 136 l 721 136 l 721 0 l 101 0 "},"Ȅ":{"ha":776,"x_min":0,"x_max":0,"o":"m 140 1229 l 296 1229 l 394 1054 l 272 1054 m 382 1229 l 525 1229 l 601 1054 l 490 1054 m 101 972 l 714 972 l 714 836 l 251 836 l 251 557 l 675 557 l 675 421 l 251 421 l 251 136 l 721 136 l 721 0 l 101 0 "},"Ẹ":{"ha":776,"x_min":0,"x_max":0,"o":"m 101 972 l 714 972 l 714 836 l 251 836 l 251 557 l 675 557 l 675 421 l 251 421 l 251 136 l 721 136 l 721 0 l 101 0 m 411 -285 b 313 -187 354 -285 313 -244 b 411 -89 313 -129 354 -89 b 510 -187 467 -89 510 -129 b 411 -285 510 -244 467 -285 "},"Ẻ":{"ha":776,"x_min":0,"x_max":0,"o":"m 364 1147 l 415 1147 b 485 1190 461 1147 485 1163 b 418 1238 485 1222 457 1238 b 301 1210 371 1238 335 1224 l 271 1296 b 424 1331 310 1315 365 1331 b 593 1207 513 1331 593 1290 b 469 1092 593 1133 540 1092 l 474 1039 l 372 1039 m 101 972 l 714 972 l 714 836 l 251 836 l 251 557 l 675 557 l 675 421 l 251 421 l 251 136 l 721 136 l 721 0 l 101 0 "},"Ȇ":{"ha":776,"x_min":0,"x_max":0,"o":"m 197 1065 b 415 1260 197 1188 281 1260 b 632 1065 549 1260 632 1188 l 632 1057 l 511 1057 l 511 1064 b 415 1163 511 1119 481 1163 b 318 1064 349 1163 318 1119 l 318 1057 l 197 1057 m 101 972 l 714 972 l 714 836 l 251 836 l 251 557 l 675 557 l 675 421 l 251 421 l 251 136 l 721 136 l 721 0 l 101 0 "},"Ḗ":{"ha":776,"x_min":0,"x_max":0,"o":"m 417 1432 l 586 1432 l 453 1257 l 322 1257 m 194 1179 l 636 1179 l 636 1064 l 194 1064 m 101 972 l 714 972 l 714 836 l 251 836 l 251 557 l 675 557 l 675 421 l 251 421 l 251 136 l 721 136 l 721 0 l 101 0 "},"Ḕ":{"ha":776,"x_min":0,"x_max":0,"o":"m 243 1433 l 413 1433 l 508 1258 l 376 1258 m 194 1179 l 636 1179 l 636 1064 l 194 1064 m 101 972 l 714 972 l 714 836 l 251 836 l 251 557 l 675 557 l 675 421 l 251 421 l 251 136 l 721 136 l 721 0 l 101 0 "},"Ẽ":{"ha":776,"x_min":0,"x_max":0,"o":"m 174 1103 l 218 1167 b 329 1232 246 1207 279 1232 b 432 1185 374 1232 399 1217 b 494 1149 453 1165 469 1149 b 549 1186 519 1149 535 1167 l 579 1229 l 656 1172 l 611 1107 b 500 1042 583 1068 550 1042 b 399 1089 457 1042 432 1058 b 336 1126 378 1110 361 1126 b 281 1088 311 1126 296 1107 l 251 1044 m 101 972 l 714 972 l 714 836 l 251 836 l 251 557 l 675 557 l 675 421 l 251 421 l 251 136 l 721 136 l 721 0 l 101 0 "},"Ǧ":{"ha":918,"x_min":0,"x_max":0,"o":"m 211 1228 l 371 1228 l 454 1131 l 476 1131 l 560 1228 l 719 1228 l 553 1053 l 378 1053 m 439 -19 b 76 372 231 -19 76 118 l 76 600 b 463 992 76 854 225 992 b 826 642 696 992 826 856 l 826 635 l 678 635 l 678 646 b 463 857 678 765 610 857 b 226 603 314 857 226 761 l 226 369 b 464 114 226 211 314 114 b 678 333 613 114 678 203 l 678 351 l 417 351 l 417 481 l 826 481 l 826 0 l 688 0 l 688 99 l 665 99 b 439 -19 642 44 589 -19 "},"Ģ":{"ha":918,"x_min":0,"x_max":0,"o":"m 439 -19 b 76 372 231 -19 76 118 l 76 600 b 463 992 76 854 225 992 b 826 642 696 992 826 856 l 826 635 l 678 635 l 678 646 b 463 857 678 765 610 857 b 226 603 314 857 226 761 l 226 369 b 464 114 226 211 314 114 b 678 333 613 114 678 203 l 678 351 l 417 351 l 417 481 l 826 481 l 826 0 l 688 0 l 688 99 l 665 99 b 439 -19 642 44 589 -19 m 393 -314 l 431 -314 b 482 -264 468 -314 482 -300 l 482 -250 l 465 -250 b 374 -164 410 -250 374 -215 b 467 -78 374 -111 411 -78 b 561 -176 521 -78 561 -112 l 561 -268 b 435 -385 561 -343 518 -385 l 393 -385 "},"ẞ":{"ha":892,"x_min":0,"x_max":0,"o":"m 586 -19 b 315 233 417 -19 315 81 l 464 233 b 586 115 464 156 514 115 b 700 215 658 115 700 156 b 596 328 700 276 651 303 l 531 357 b 419 510 453 390 419 444 b 506 672 419 574 449 622 l 667 819 l 667 839 l 457 839 b 246 599 347 839 246 776 l 246 0 l 94 0 l 94 593 b 457 972 94 838 242 972 l 821 972 l 821 782 l 600 579 b 568 522 582 561 568 546 b 617 472 568 496 589 485 l 671 450 b 849 217 765 410 849 349 b 586 -19 849 81 756 -19 "},"Ḡ":{"ha":918,"x_min":0,"x_max":0,"o":"m 244 1179 l 686 1179 l 686 1064 l 244 1064 m 439 -19 b 76 372 231 -19 76 118 l 76 600 b 463 992 76 854 225 992 b 826 642 696 992 826 856 l 826 635 l 678 635 l 678 646 b 463 857 678 765 610 857 b 226 603 314 857 226 761 l 226 369 b 464 114 226 211 314 114 b 678 333 613 114 678 203 l 678 351 l 417 351 l 417 481 l 826 481 l 826 0 l 688 0 l 688 99 l 665 99 b 439 -19 642 44 589 -19 "},"Ḫ":{"ha":911,"x_min":0,"x_max":0,"o":"m 101 972 l 251 972 l 251 556 l 660 556 l 660 972 l 810 972 l 810 0 l 660 0 l 660 419 l 251 419 l 251 0 l 101 0 m 456 -294 b 238 -100 321 -294 238 -222 l 238 -92 l 360 -92 l 360 -99 b 456 -197 360 -154 389 -197 b 551 -99 522 -197 551 -154 l 551 -92 l 672 -92 l 672 -100 b 456 -294 672 -222 590 -294 "},"Ḥ":{"ha":911,"x_min":0,"x_max":0,"o":"m 101 972 l 251 972 l 251 556 l 660 556 l 660 972 l 810 972 l 810 0 l 660 0 l 660 419 l 251 419 l 251 0 l 101 0 m 456 -285 b 357 -187 400 -285 357 -244 b 456 -89 357 -129 400 -89 b 554 -187 511 -89 554 -129 b 456 -285 554 -244 511 -285 "},"Ǐ":{"ha":353,"x_min":0,"x_max":0,"o":"m -78 1228 l 82 1228 l 165 1131 l 188 1131 l 271 1228 l 431 1228 l 264 1053 l 89 1053 m 101 972 l 251 972 l 251 0 l 101 0 "},"Ȉ":{"ha":353,"x_min":0,"x_max":0,"o":"m -99 1229 l 58 1229 l 157 1054 l 35 1054 m 143 1229 l 286 1229 l 363 1054 l 251 1054 m 101 972 l 251 972 l 251 0 l 101 0 "},"Ḯ":{"ha":353,"x_min":0,"x_max":0,"o":"m 179 1478 l 349 1478 l 214 1304 l 83 1304 m 322 1051 b 225 1149 267 1051 225 1089 b 322 1246 225 1207 267 1246 b 421 1149 379 1246 421 1207 b 322 1051 421 1089 379 1051 m 31 1051 b -67 1149 -25 1051 -67 1089 b 31 1246 -67 1207 -25 1246 b 129 1149 86 1246 129 1207 b 31 1051 129 1089 86 1051 m 101 972 l 251 972 l 251 0 l 101 0 "},"Ị":{"ha":353,"x_min":0,"x_max":0,"o":"m 101 972 l 251 972 l 251 0 l 101 0 m 176 -285 b 78 -187 121 -285 78 -244 b 176 -89 78 -129 121 -89 b 275 -187 233 -89 275 -129 b 176 -285 275 -244 233 -285 "},"Ỉ":{"ha":353,"x_min":0,"x_max":0,"o":"m 125 1147 l 178 1147 b 246 1190 222 1147 246 1163 b 181 1238 246 1222 218 1238 b 63 1210 133 1238 96 1224 l 32 1296 b 186 1331 71 1315 128 1331 b 354 1207 274 1331 354 1290 b 231 1092 354 1133 301 1092 l 235 1039 l 133 1039 m 101 972 l 251 972 l 251 0 l 101 0 "},"Ȋ":{"ha":353,"x_min":0,"x_max":0,"o":"m -40 1065 b 176 1260 -40 1188 42 1260 b 393 1065 311 1260 393 1188 l 393 1057 l 272 1057 l 272 1064 b 176 1163 272 1119 243 1163 b 81 1064 110 1163 81 1119 l 81 1057 l -40 1057 m 101 972 l 251 972 l 251 0 l 101 0 "},"Ķ":{"ha":858,"x_min":0,"x_max":0,"o":"m 101 972 l 251 972 l 251 568 l 274 568 l 636 972 l 832 972 l 393 493 l 847 0 l 646 0 l 274 413 l 251 413 l 251 0 l 101 0 m 358 -314 l 396 -314 b 447 -264 433 -314 447 -300 l 447 -250 l 431 -250 b 339 -164 375 -250 339 -215 b 432 -78 339 -111 376 -78 b 526 -176 486 -78 526 -112 l 526 -268 b 400 -385 526 -343 483 -385 l 358 -385 "},"Ǉ":{"ha":1592,"x_min":0,"x_max":0,"o":"m 101 972 l 251 972 l 251 136 l 719 136 l 719 0 l 101 0 m 1124 -19 b 806 292 928 -19 806 93 l 806 375 l 956 375 l 956 292 b 1119 121 956 188 1013 121 b 1274 292 1225 121 1274 186 l 1274 836 l 1104 836 l 1104 972 l 1532 972 l 1532 836 l 1424 836 l 1424 292 b 1124 -19 1424 90 1314 -19 "},"Ļ":{"ha":756,"x_min":0,"x_max":0,"o":"m 101 972 l 251 972 l 251 136 l 719 136 l 719 0 l 101 0 m 336 -314 l 374 -314 b 425 -264 411 -314 425 -300 l 425 -250 l 408 -250 b 317 -164 353 -250 317 -215 b 410 -78 317 -111 354 -78 b 504 -176 465 -78 504 -112 l 504 -268 b 378 -385 504 -343 461 -385 l 336 -385 "},"Ḷ":{"ha":756,"x_min":0,"x_max":0,"o":"m 101 972 l 251 972 l 251 136 l 719 136 l 719 0 l 101 0 m 411 -285 b 313 -187 354 -285 313 -244 b 411 -89 313 -129 354 -89 b 508 -187 467 -89 508 -129 b 411 -285 508 -244 467 -285 "},"ǈ":{"ha":1113,"x_min":0,"x_max":0,"o":"m 101 972 l 251 972 l 251 136 l 719 136 l 719 0 l 101 0 m 936 778 b 838 875 879 778 838 817 b 936 972 838 933 879 972 b 1033 875 992 972 1033 933 b 936 778 1033 817 992 778 m 731 -154 l 824 -154 b 864 -112 851 -154 864 -140 l 864 685 l 1007 685 l 1007 -140 b 869 -278 1007 -225 954 -278 l 731 -278 "},"Ḻ":{"ha":756,"x_min":0,"x_max":0,"o":"m 101 972 l 251 972 l 251 136 l 719 136 l 719 0 l 101 0 m 189 -108 l 632 -108 l 632 -224 l 189 -224 "},"Ṃ":{"ha":1214,"x_min":0,"x_max":0,"o":"m 101 972 l 383 972 l 596 100 l 618 100 l 831 972 l 1113 972 l 1113 0 l 967 0 l 967 867 l 944 867 l 733 0 l 481 0 l 269 867 l 247 867 l 247 0 l 101 0 m 607 -285 b 508 -187 550 -285 508 -244 b 607 -89 508 -129 550 -89 b 706 -187 663 -89 706 -129 b 607 -285 706 -244 663 -285 "},"Ǌ":{"ha":1763,"x_min":0,"x_max":0,"o":"m 101 972 l 390 972 l 654 100 l 676 100 l 676 972 l 825 972 l 825 0 l 536 0 l 272 874 l 250 874 l 250 0 l 101 0 m 1294 -19 b 976 292 1099 -19 976 93 l 976 375 l 1126 375 l 1126 292 b 1292 121 1126 188 1183 121 b 1444 292 1396 121 1444 186 l 1444 836 l 1275 836 l 1275 972 l 1703 972 l 1703 836 l 1594 836 l 1594 292 b 1294 -19 1594 90 1485 -19 "},"Ņ":{"ha":926,"x_min":0,"x_max":0,"o":"m 101 972 l 390 972 l 654 100 l 676 100 l 676 972 l 825 972 l 825 0 l 536 0 l 272 874 l 250 874 l 250 0 l 101 0 m 392 -314 l 428 -314 b 481 -264 467 -314 481 -300 l 481 -250 l 464 -250 b 372 -164 408 -250 372 -215 b 465 -78 372 -111 410 -78 b 560 -176 519 -78 560 -112 l 560 -268 b 433 -385 560 -343 517 -385 l 392 -385 "},"Ṅ":{"ha":926,"x_min":0,"x_max":0,"o":"m 464 1051 b 367 1149 408 1051 367 1090 b 464 1246 367 1207 408 1246 b 563 1149 521 1246 563 1207 b 464 1051 563 1090 521 1051 m 101 972 l 390 972 l 654 100 l 676 100 l 676 972 l 825 972 l 825 0 l 536 0 l 272 874 l 250 874 l 250 0 l 101 0 "},"Ṇ":{"ha":926,"x_min":0,"x_max":0,"o":"m 101 972 l 390 972 l 654 100 l 676 100 l 676 972 l 825 972 l 825 0 l 536 0 l 272 874 l 250 874 l 250 0 l 101 0 m 465 -285 b 367 -187 410 -285 367 -244 b 465 -89 367 -129 410 -89 b 564 -187 522 -89 564 -129 b 465 -285 564 -244 522 -285 "},"ǋ":{"ha":1283,"x_min":0,"x_max":0,"o":"m 101 972 l 390 972 l 654 100 l 676 100 l 676 972 l 825 972 l 825 0 l 536 0 l 272 874 l 250 874 l 250 0 l 101 0 m 1107 778 b 1008 875 1050 778 1008 817 b 1107 972 1008 933 1050 972 b 1204 875 1163 972 1204 933 b 1107 778 1204 817 1163 778 m 901 -154 l 994 -154 b 1035 -112 1022 -154 1035 -140 l 1035 685 l 1178 685 l 1178 -140 b 1040 -278 1178 -225 1125 -278 l 901 -278 "},"Ṉ":{"ha":926,"x_min":0,"x_max":0,"o":"m 101 972 l 390 972 l 654 100 l 676 100 l 676 972 l 825 972 l 825 0 l 536 0 l 272 874 l 250 874 l 250 0 l 101 0 m 244 -108 l 686 -108 l 686 -224 l 244 -224 "},"Ǒ":{"ha":935,"x_min":0,"x_max":0,"o":"m 213 1228 l 372 1228 l 456 1131 l 478 1131 l 561 1228 l 722 1228 l 554 1053 l 379 1053 m 467 -19 b 76 372 228 -19 76 118 l 76 600 b 467 992 76 854 228 992 b 858 600 706 992 858 854 l 858 372 b 467 -19 858 118 706 -19 m 467 115 b 707 367 618 115 707 211 l 707 606 b 467 857 707 761 618 857 b 226 606 315 857 226 761 l 226 367 b 467 115 226 211 315 115 "},"Ố":{"ha":935,"x_min":0,"x_max":0,"o":"m 715 1364 l 856 1364 l 765 1185 l 651 1185 m 379 1228 l 554 1228 l 722 1053 l 561 1053 l 478 1150 l 456 1150 l 372 1053 l 213 1053 m 467 -19 b 76 372 228 -19 76 118 l 76 600 b 467 992 76 854 228 992 b 858 600 706 992 858 854 l 858 372 b 467 -19 858 118 706 -19 m 467 115 b 707 367 618 115 707 211 l 707 606 b 467 857 707 761 618 857 b 226 606 315 857 226 761 l 226 367 b 467 115 226 211 315 115 "},"Ộ":{"ha":935,"x_min":0,"x_max":0,"o":"m 379 1228 l 554 1228 l 722 1053 l 561 1053 l 478 1150 l 456 1150 l 372 1053 l 213 1053 m 467 -19 b 76 372 228 -19 76 118 l 76 600 b 467 992 76 854 228 992 b 858 600 706 992 858 854 l 858 372 b 467 -19 858 118 706 -19 m 467 115 b 707 367 618 115 707 211 l 707 606 b 467 857 707 761 618 857 b 226 606 315 857 226 761 l 226 367 b 467 115 226 211 315 115 m 467 -285 b 368 -187 411 -285 368 -244 b 467 -89 368 -129 411 -89 b 565 -187 524 -89 565 -129 b 467 -285 565 -244 524 -285 "},"Ồ":{"ha":935,"x_min":0,"x_max":0,"o":"m 586 1364 l 725 1364 l 792 1185 l 679 1185 m 379 1228 l 554 1228 l 722 1053 l 561 1053 l 478 1150 l 456 1150 l 372 1053 l 213 1053 m 467 -19 b 76 372 228 -19 76 118 l 76 600 b 467 992 76 854 228 992 b 858 600 706 992 858 854 l 858 372 b 467 -19 858 118 706 -19 m 467 115 b 707 367 618 115 707 211 l 707 606 b 467 857 707 761 618 857 b 226 606 315 857 226 761 l 226 367 b 467 115 226 211 315 115 "},"Ổ":{"ha":935,"x_min":0,"x_max":0,"o":"m 650 1296 l 703 1296 b 771 1340 747 1296 771 1311 b 704 1386 771 1371 743 1386 b 588 1358 658 1386 621 1374 l 557 1446 b 710 1479 596 1464 651 1479 b 879 1356 799 1479 879 1440 b 756 1240 879 1282 826 1240 l 760 1188 l 658 1188 m 379 1228 l 554 1228 l 722 1053 l 561 1053 l 478 1150 l 456 1150 l 372 1053 l 213 1053 m 467 -19 b 76 372 228 -19 76 118 l 76 600 b 467 992 76 854 228 992 b 858 600 706 992 858 854 l 858 372 b 467 -19 858 118 706 -19 m 467 115 b 707 367 618 115 707 211 l 707 606 b 467 857 707 761 618 857 b 226 606 315 857 226 761 l 226 367 b 467 115 226 211 315 115 "},"Ỗ":{"ha":935,"x_min":0,"x_max":0,"o":"m 226 1340 l 271 1406 b 382 1471 299 1444 332 1471 b 483 1424 425 1471 450 1454 b 546 1388 506 1403 521 1388 b 601 1425 572 1388 586 1406 l 631 1468 l 708 1411 l 664 1346 b 553 1281 636 1307 603 1281 b 450 1328 508 1281 485 1296 b 389 1364 429 1347 413 1364 b 332 1325 363 1364 347 1346 l 303 1283 m 379 1228 l 554 1228 l 722 1053 l 561 1053 l 478 1150 l 456 1150 l 372 1053 l 213 1053 m 467 -19 b 76 372 228 -19 76 118 l 76 600 b 467 992 76 854 228 992 b 858 600 706 992 858 854 l 858 372 b 467 -19 858 118 706 -19 m 467 115 b 707 367 618 115 707 211 l 707 606 b 467 857 707 761 618 857 b 226 606 315 857 226 761 l 226 367 b 467 115 226 211 315 115 "},"Ȍ":{"ha":935,"x_min":0,"x_max":0,"o":"m 192 1229 l 349 1229 l 447 1054 l 325 1054 m 433 1229 l 576 1229 l 654 1054 l 543 1054 m 467 -19 b 76 372 228 -19 76 118 l 76 600 b 467 992 76 854 228 992 b 858 600 706 992 858 854 l 858 372 b 467 -19 858 118 706 -19 m 467 115 b 707 367 618 115 707 211 l 707 606 b 467 857 707 761 618 857 b 226 606 315 857 226 761 l 226 367 b 467 115 226 211 315 115 "},"Ȫ":{"ha":935,"x_min":0,"x_max":0,"o":"m 246 1431 l 688 1431 l 688 1315 l 246 1315 m 613 1051 b 515 1149 557 1051 515 1089 b 613 1246 515 1207 557 1246 b 711 1149 669 1246 711 1207 b 613 1051 711 1089 669 1051 m 321 1051 b 224 1149 265 1051 224 1089 b 321 1246 224 1207 265 1246 b 419 1149 378 1246 419 1207 b 321 1051 419 1089 378 1051 m 467 -19 b 76 372 228 -19 76 118 l 76 600 b 467 992 76 854 228 992 b 858 600 706 992 858 854 l 858 372 b 467 -19 858 118 706 -19 m 467 115 b 707 367 618 115 707 211 l 707 606 b 467 857 707 761 618 857 b 226 606 315 857 226 761 l 226 367 b 467 115 226 211 315 115 "},"Ȱ":{"ha":935,"x_min":0,"x_max":0,"o":"m 246 1417 l 688 1417 l 688 1301 l 246 1301 m 467 1051 b 368 1149 411 1051 368 1090 b 467 1246 368 1207 411 1246 b 565 1149 524 1246 565 1207 b 467 1051 565 1090 524 1051 m 467 -19 b 76 372 228 -19 76 118 l 76 600 b 467 992 76 854 228 992 b 858 600 706 992 858 854 l 858 372 b 467 -19 858 118 706 -19 m 467 115 b 707 367 618 115 707 211 l 707 606 b 467 857 707 761 618 857 b 226 606 315 857 226 761 l 226 367 b 467 115 226 211 315 115 "},"Ọ":{"ha":935,"x_min":0,"x_max":0,"o":"m 467 -19 b 76 372 228 -19 76 118 l 76 600 b 467 992 76 854 228 992 b 858 600 706 992 858 854 l 858 372 b 467 -19 858 118 706 -19 m 467 115 b 707 367 618 115 707 211 l 707 606 b 467 857 707 761 618 857 b 226 606 315 857 226 761 l 226 367 b 467 115 226 211 315 115 m 467 -285 b 368 -187 411 -285 368 -244 b 467 -89 368 -129 411 -89 b 565 -187 524 -89 565 -129 b 467 -285 565 -244 524 -285 "},"Ω":{"ha":861,"x_min":0,"x_max":0,"o":"m 64 129 l 206 129 l 206 150 b 81 411 133 193 81 271 l 81 606 b 431 992 81 840 206 992 b 781 606 656 992 781 840 l 781 411 b 656 150 781 269 728 193 l 656 129 l 797 129 l 797 0 l 485 0 l 485 158 b 636 428 610 193 636 278 l 636 607 b 431 860 636 769 560 860 b 226 607 301 860 226 769 l 226 428 b 376 158 226 278 251 193 l 376 0 l 64 0 "},"Ỏ":{"ha":935,"x_min":0,"x_max":0,"o":"m 417 1147 l 468 1147 b 536 1190 513 1147 536 1163 b 471 1238 536 1222 508 1238 b 354 1210 424 1238 386 1224 l 324 1296 b 476 1331 363 1315 418 1331 b 644 1207 564 1331 644 1290 b 521 1092 644 1133 593 1092 l 526 1039 l 425 1039 m 467 -19 b 76 372 228 -19 76 118 l 76 600 b 467 992 76 854 228 992 b 858 600 706 992 858 854 l 858 372 b 467 -19 858 118 706 -19 m 467 115 b 707 367 618 115 707 211 l 707 606 b 467 857 707 761 618 857 b 226 606 315 857 226 761 l 226 367 b 467 115 226 211 315 115 "},"Ơ":{"ha":949,"x_min":0,"x_max":0,"o":"m 467 -19 b 76 372 228 -19 76 118 l 76 600 b 467 992 76 854 228 992 b 713 924 565 992 649 968 b 789 1036 765 933 789 963 l 789 1096 l 922 1096 l 922 1032 b 799 833 922 907 878 850 b 858 600 838 772 858 694 l 858 372 b 467 -19 858 118 706 -19 m 467 115 b 707 367 618 115 707 211 l 707 606 b 467 857 707 761 618 857 b 226 606 315 857 226 761 l 226 367 b 467 115 226 211 315 115 "},"Ớ":{"ha":949,"x_min":0,"x_max":0,"o":"m 469 1228 l 639 1228 l 506 1053 l 374 1053 m 467 -19 b 76 372 228 -19 76 118 l 76 600 b 467 992 76 854 228 992 b 713 924 565 992 649 968 b 789 1036 765 933 789 963 l 789 1096 l 922 1096 l 922 1032 b 799 833 922 907 878 850 b 858 600 838 772 858 694 l 858 372 b 467 -19 858 118 706 -19 m 467 115 b 707 367 618 115 707 211 l 707 606 b 467 857 707 761 618 857 b 226 606 315 857 226 761 l 226 367 b 467 115 226 211 315 115 "},"Ợ":{"ha":949,"x_min":0,"x_max":0,"o":"m 467 -19 b 76 372 228 -19 76 118 l 76 600 b 467 992 76 854 228 992 b 713 924 565 992 649 968 b 789 1036 765 933 789 963 l 789 1096 l 922 1096 l 922 1032 b 799 833 922 907 878 850 b 858 600 838 772 858 694 l 858 372 b 467 -19 858 118 706 -19 m 467 115 b 707 367 618 115 707 211 l 707 606 b 467 857 707 761 618 857 b 226 606 315 857 226 761 l 226 367 b 467 115 226 211 315 115 m 467 -285 b 368 -187 411 -285 368 -244 b 467 -89 368 -129 411 -89 b 565 -187 524 -89 565 -129 b 467 -285 565 -244 524 -285 "},"Ờ":{"ha":949,"x_min":0,"x_max":0,"o":"m 296 1229 l 465 1229 l 560 1054 l 429 1054 m 467 -19 b 76 372 228 -19 76 118 l 76 600 b 467 992 76 854 228 992 b 713 924 565 992 649 968 b 789 1036 765 933 789 963 l 789 1096 l 922 1096 l 922 1032 b 799 833 922 907 878 850 b 858 600 838 772 858 694 l 858 372 b 467 -19 858 118 706 -19 m 467 115 b 707 367 618 115 707 211 l 707 606 b 467 857 707 761 618 857 b 226 606 315 857 226 761 l 226 367 b 467 115 226 211 315 115 "},"Ở":{"ha":949,"x_min":0,"x_max":0,"o":"m 417 1147 l 468 1147 b 536 1190 513 1147 536 1163 b 471 1238 536 1222 508 1238 b 354 1210 424 1238 386 1224 l 324 1296 b 476 1331 363 1315 418 1331 b 644 1207 564 1331 644 1290 b 521 1092 644 1133 593 1092 l 526 1039 l 425 1039 m 467 -19 b 76 372 228 -19 76 118 l 76 600 b 467 992 76 854 228 992 b 713 924 565 992 649 968 b 789 1036 765 933 789 963 l 789 1096 l 922 1096 l 922 1032 b 799 833 922 907 878 850 b 858 600 838 772 858 694 l 858 372 b 467 -19 858 118 706 -19 m 467 115 b 707 367 618 115 707 211 l 707 606 b 467 857 707 761 618 857 b 226 606 315 857 226 761 l 226 367 b 467 115 226 211 315 115 "},"Ỡ":{"ha":949,"x_min":0,"x_max":0,"o":"m 226 1103 l 271 1167 b 382 1232 299 1207 332 1232 b 483 1185 425 1232 450 1217 b 546 1149 506 1165 521 1149 b 601 1186 572 1149 586 1167 l 631 1229 l 708 1172 l 664 1107 b 553 1042 636 1068 603 1042 b 450 1089 508 1042 485 1058 b 389 1126 429 1110 413 1126 b 332 1088 363 1126 347 1107 l 303 1044 m 467 -19 b 76 372 228 -19 76 118 l 76 600 b 467 992 76 854 228 992 b 713 924 565 992 649 968 b 789 1036 765 933 789 963 l 789 1096 l 922 1096 l 922 1032 b 799 833 922 907 878 850 b 858 600 838 772 858 694 l 858 372 b 467 -19 858 118 706 -19 m 467 115 b 707 367 618 115 707 211 l 707 606 b 467 857 707 761 618 857 b 226 606 315 857 226 761 l 226 367 b 467 115 226 211 315 115 "},"Ȏ":{"ha":935,"x_min":0,"x_max":0,"o":"m 250 1065 b 467 1260 250 1188 332 1260 b 683 1065 601 1260 683 1188 l 683 1057 l 563 1057 l 563 1064 b 467 1163 563 1119 533 1163 b 371 1064 400 1163 371 1119 l 371 1057 l 250 1057 m 467 -19 b 76 372 228 -19 76 118 l 76 600 b 467 992 76 854 228 992 b 858 600 706 992 858 854 l 858 372 b 467 -19 858 118 706 -19 m 467 115 b 707 367 618 115 707 211 l 707 606 b 467 857 707 761 618 857 b 226 606 315 857 226 761 l 226 367 b 467 115 226 211 315 115 "},"Ṓ":{"ha":935,"x_min":0,"x_max":0,"o":"m 469 1432 l 639 1432 l 506 1257 l 374 1257 m 246 1179 l 688 1179 l 688 1064 l 246 1064 m 467 -19 b 76 372 228 -19 76 118 l 76 600 b 467 992 76 854 228 992 b 858 600 706 992 858 854 l 858 372 b 467 -19 858 118 706 -19 m 467 115 b 707 367 618 115 707 211 l 707 606 b 467 857 707 761 618 857 b 226 606 315 857 226 761 l 226 367 b 467 115 226 211 315 115 "},"Ṑ":{"ha":935,"x_min":0,"x_max":0,"o":"m 296 1433 l 465 1433 l 560 1258 l 429 1258 m 246 1179 l 688 1179 l 688 1064 l 246 1064 m 467 -19 b 76 372 228 -19 76 118 l 76 600 b 467 992 76 854 228 992 b 858 600 706 992 858 854 l 858 372 b 467 -19 858 118 706 -19 m 467 115 b 707 367 618 115 707 211 l 707 606 b 467 857 707 761 618 857 b 226 606 315 857 226 761 l 226 367 b 467 115 226 211 315 115 "},"Ǫ":{"ha":935,"x_min":0,"x_max":0,"o":"m 514 -232 b 411 -139 451 -232 411 -197 b 424 -51 411 -111 417 -81 l 431 -18 b 76 372 213 -6 76 132 l 76 600 b 467 992 76 854 228 992 b 858 600 706 992 858 854 l 858 372 b 531 -15 858 142 732 7 l 522 -62 b 517 -101 519 -78 517 -89 b 549 -131 517 -121 528 -131 l 610 -131 l 610 -232 l 514 -232 m 467 115 b 707 367 618 115 707 211 l 707 606 b 467 857 707 761 618 857 b 226 606 315 857 226 761 l 226 367 b 467 115 226 211 315 115 "},"Ǿ":{"ha":935,"x_min":0,"x_max":0,"o":"m 469 1228 l 639 1228 l 506 1053 l 374 1053 m 183 -85 l 235 40 b 76 372 133 103 76 215 l 76 600 b 467 992 76 854 228 992 b 611 972 519 992 567 985 l 654 1081 l 751 1040 l 706 928 b 858 600 803 864 858 753 l 858 372 b 467 -19 858 118 706 -19 b 331 -1 418 -19 372 -14 l 281 -125 m 226 367 b 292 182 226 289 249 225 l 558 843 b 467 857 531 853 500 857 b 226 606 315 857 226 761 l 226 367 m 467 115 b 707 367 618 115 707 211 l 707 606 b 649 785 707 681 686 742 l 383 126 b 467 115 408 119 436 115 "},"Ṍ":{"ha":935,"x_min":0,"x_max":0,"o":"m 469 1451 l 639 1451 l 506 1276 l 374 1276 m 226 1103 l 271 1167 b 382 1232 299 1207 332 1232 b 483 1185 425 1232 450 1217 b 546 1149 506 1165 521 1149 b 601 1186 572 1149 586 1167 l 631 1229 l 708 1172 l 664 1107 b 553 1042 636 1068 603 1042 b 450 1089 508 1042 485 1058 b 389 1126 429 1110 413 1126 b 332 1088 363 1126 347 1107 l 303 1044 m 467 -19 b 76 372 228 -19 76 118 l 76 600 b 467 992 76 854 228 992 b 858 600 706 992 858 854 l 858 372 b 467 -19 858 118 706 -19 m 467 115 b 707 367 618 115 707 211 l 707 606 b 467 857 707 761 618 857 b 226 606 315 857 226 761 l 226 367 b 467 115 226 211 315 115 "},"Ṏ":{"ha":935,"x_min":0,"x_max":0,"o":"m 613 1275 b 515 1372 557 1275 515 1314 b 613 1469 515 1431 557 1469 b 711 1372 669 1469 711 1431 b 613 1275 711 1314 669 1275 m 321 1275 b 224 1372 265 1275 224 1314 b 321 1469 224 1431 265 1469 b 419 1372 378 1469 419 1431 b 321 1275 419 1314 378 1275 m 226 1103 l 271 1167 b 382 1232 299 1207 332 1232 b 483 1185 425 1232 450 1217 b 546 1149 506 1165 521 1149 b 601 1186 572 1149 586 1167 l 631 1229 l 708 1172 l 664 1107 b 553 1042 636 1068 603 1042 b 450 1089 508 1042 485 1058 b 389 1126 429 1110 413 1126 b 332 1088 363 1126 347 1107 l 303 1044 m 467 -19 b 76 372 228 -19 76 118 l 76 600 b 467 992 76 854 228 992 b 858 600 706 992 858 854 l 858 372 b 467 -19 858 118 706 -19 m 467 115 b 707 367 618 115 707 211 l 707 606 b 467 857 707 761 618 857 b 226 606 315 857 226 761 l 226 367 b 467 115 226 211 315 115 "},"Ȭ":{"ha":935,"x_min":0,"x_max":0,"o":"m 246 1404 l 688 1404 l 688 1288 l 246 1288 m 226 1103 l 271 1167 b 382 1232 299 1207 332 1232 b 483 1185 425 1232 450 1217 b 546 1149 506 1165 521 1149 b 601 1186 572 1149 586 1167 l 631 1229 l 708 1172 l 664 1107 b 553 1042 636 1068 603 1042 b 450 1089 508 1042 485 1058 b 389 1126 429 1110 413 1126 b 332 1088 363 1126 347 1107 l 303 1044 m 467 -19 b 76 372 228 -19 76 118 l 76 600 b 467 992 76 854 228 992 b 858 600 706 992 858 854 l 858 372 b 467 -19 858 118 706 -19 m 467 115 b 707 367 618 115 707 211 l 707 606 b 467 857 707 761 618 857 b 226 606 315 857 226 761 l 226 367 b 467 115 226 211 315 115 "},"Ŗ":{"ha":878,"x_min":0,"x_max":0,"o":"m 101 972 l 510 972 b 814 713 690 972 814 872 l 814 697 b 664 474 814 575 747 504 l 664 451 b 781 322 735 447 781 403 l 781 0 l 631 0 l 631 301 b 547 383 631 351 606 383 l 251 383 l 251 0 l 101 0 m 493 519 b 663 672 600 519 663 576 l 663 683 b 493 836 663 778 603 836 l 251 836 l 251 519 m 363 -314 l 400 -314 b 453 -264 438 -314 453 -300 l 453 -250 l 436 -250 b 344 -164 379 -250 344 -215 b 436 -78 344 -111 381 -78 b 532 -176 492 -78 532 -112 l 532 -268 b 406 -385 532 -343 489 -385 l 363 -385 "},"Ȑ":{"ha":878,"x_min":0,"x_max":0,"o":"m 147 1229 l 304 1229 l 403 1054 l 281 1054 m 389 1229 l 532 1229 l 608 1054 l 497 1054 m 101 972 l 510 972 b 814 713 690 972 814 872 l 814 697 b 664 474 814 575 747 504 l 664 451 b 781 322 735 447 781 403 l 781 0 l 631 0 l 631 301 b 547 383 631 351 606 383 l 251 383 l 251 0 l 101 0 m 493 519 b 663 672 600 519 663 576 l 663 683 b 493 836 663 778 603 836 l 251 836 l 251 519 "},"Ṛ":{"ha":878,"x_min":0,"x_max":0,"o":"m 101 972 l 510 972 b 814 713 690 972 814 872 l 814 697 b 664 474 814 575 747 504 l 664 451 b 781 322 735 447 781 403 l 781 0 l 631 0 l 631 301 b 547 383 631 351 606 383 l 251 383 l 251 0 l 101 0 m 493 519 b 663 672 600 519 663 576 l 663 683 b 493 836 663 778 603 836 l 251 836 l 251 519 m 438 -285 b 339 -187 382 -285 339 -244 b 438 -89 339 -129 382 -89 b 536 -187 494 -89 536 -129 b 438 -285 536 -244 494 -285 "},"Ȓ":{"ha":878,"x_min":0,"x_max":0,"o":"m 206 1065 b 422 1260 206 1188 288 1260 b 639 1065 557 1260 639 1188 l 639 1057 l 518 1057 l 518 1064 b 422 1163 518 1119 489 1163 b 326 1064 356 1163 326 1119 l 326 1057 l 206 1057 m 101 972 l 510 972 b 814 713 690 972 814 872 l 814 697 b 664 474 814 575 747 504 l 664 451 b 781 322 735 447 781 403 l 781 0 l 631 0 l 631 301 b 547 383 631 351 606 383 l 251 383 l 251 0 l 101 0 m 493 519 b 663 672 600 519 663 576 l 663 683 b 493 836 663 778 603 836 l 251 836 l 251 519 "},"Ṟ":{"ha":878,"x_min":0,"x_max":0,"o":"m 101 972 l 510 972 b 814 713 690 972 814 872 l 814 697 b 664 474 814 575 747 504 l 664 451 b 781 322 735 447 781 403 l 781 0 l 631 0 l 631 301 b 547 383 631 351 606 383 l 251 383 l 251 0 l 101 0 m 493 519 b 663 672 600 519 663 576 l 663 683 b 493 836 663 778 603 836 l 251 836 l 251 519 m 217 -108 l 658 -108 l 658 -224 l 217 -224 "},"Ṥ":{"ha":847,"x_min":0,"x_max":0,"o":"m 301 1051 b 203 1149 244 1051 203 1090 b 301 1246 203 1207 244 1246 b 399 1149 357 1246 399 1207 b 301 1051 399 1090 357 1051 m 543 1235 l 713 1235 l 579 1060 l 447 1060 m 432 -19 b 57 318 214 -19 57 100 l 57 353 l 206 353 l 206 318 b 432 113 206 179 294 113 b 642 269 569 113 642 178 b 436 424 642 363 564 394 l 385 436 b 79 717 197 479 79 546 b 415 992 79 888 214 992 b 768 683 618 992 768 888 l 768 633 l 619 633 l 619 683 b 415 860 619 808 538 860 b 228 721 296 860 228 808 b 417 569 228 633 293 597 l 468 557 b 790 272 656 515 790 447 b 432 -19 790 99 650 -19 "},"Ṧ":{"ha":847,"x_min":0,"x_max":0,"o":"m 421 1261 b 322 1360 365 1261 322 1301 b 421 1457 322 1417 365 1457 b 519 1360 478 1457 519 1417 b 421 1261 519 1301 478 1261 m 167 1228 l 326 1228 l 410 1131 l 432 1131 l 515 1228 l 675 1228 l 508 1053 l 333 1053 m 432 -19 b 57 318 214 -19 57 100 l 57 353 l 206 353 l 206 318 b 432 113 206 179 294 113 b 642 269 569 113 642 178 b 436 424 642 363 564 394 l 385 436 b 79 717 197 479 79 546 b 415 992 79 888 214 992 b 768 683 618 992 768 888 l 768 633 l 619 633 l 619 683 b 415 860 619 808 538 860 b 228 721 296 860 228 808 b 417 569 228 633 293 597 l 468 557 b 790 272 656 515 790 447 b 432 -19 790 99 650 -19 "},"Ə":{"ha":904,"x_min":0,"x_max":0,"o":"m 451 -19 b 76 357 215 -19 76 117 l 76 521 l 678 521 l 678 631 b 451 857 678 772 601 857 b 225 643 300 857 225 772 l 225 639 l 76 639 l 76 643 b 451 992 76 861 215 992 b 828 628 689 992 828 861 l 828 357 b 451 -19 828 117 688 -19 m 451 115 b 678 350 604 115 678 199 l 678 385 l 225 385 l 225 350 b 451 115 225 199 299 115 "},"Ș":{"ha":847,"x_min":0,"x_max":0,"o":"m 432 -19 b 57 318 214 -19 57 100 l 57 353 l 206 353 l 206 318 b 432 113 206 179 294 113 b 642 269 569 113 642 178 b 436 424 642 363 564 394 l 385 436 b 79 717 197 479 79 546 b 415 992 79 888 214 992 b 768 683 618 992 768 888 l 768 633 l 619 633 l 619 683 b 415 860 619 808 538 860 b 228 721 296 860 228 808 b 417 569 228 633 293 597 l 468 557 b 790 272 656 515 790 447 b 432 -19 790 99 650 -19 m 365 -314 l 403 -314 b 454 -264 440 -314 454 -300 l 454 -250 l 438 -250 b 346 -164 382 -250 346 -215 b 439 -78 346 -111 383 -78 b 533 -176 494 -78 533 -112 l 533 -268 b 407 -385 533 -343 492 -385 l 365 -385 "},"Ṡ":{"ha":847,"x_min":0,"x_max":0,"o":"m 421 1051 b 322 1149 365 1051 322 1090 b 421 1246 322 1207 365 1246 b 519 1149 478 1246 519 1207 b 421 1051 519 1090 478 1051 m 432 -19 b 57 318 214 -19 57 100 l 57 353 l 206 353 l 206 318 b 432 113 206 179 294 113 b 642 269 569 113 642 178 b 436 424 642 363 564 394 l 385 436 b 79 717 197 479 79 546 b 415 992 79 888 214 992 b 768 683 618 992 768 888 l 768 633 l 619 633 l 619 683 b 415 860 619 808 538 860 b 228 721 296 860 228 808 b 417 569 228 633 293 597 l 468 557 b 790 272 656 515 790 447 b 432 -19 790 99 650 -19 "},"Ṣ":{"ha":847,"x_min":0,"x_max":0,"o":"m 432 -19 b 57 318 214 -19 57 100 l 57 353 l 206 353 l 206 318 b 432 113 206 179 294 113 b 642 269 569 113 642 178 b 436 424 642 363 564 394 l 385 436 b 79 717 197 479 79 546 b 415 992 79 888 214 992 b 768 683 618 992 768 888 l 768 633 l 619 633 l 619 683 b 415 860 619 808 538 860 b 228 721 296 860 228 808 b 417 569 228 633 293 597 l 468 557 b 790 272 656 515 790 447 b 432 -19 790 99 650 -19 m 440 -285 b 342 -187 383 -285 342 -244 b 440 -89 342 -129 383 -89 b 539 -187 496 -89 539 -129 b 440 -285 539 -244 496 -285 "},"Ṩ":{"ha":847,"x_min":0,"x_max":0,"o":"m 421 1051 b 322 1149 365 1051 322 1090 b 421 1246 322 1207 365 1246 b 519 1149 478 1246 519 1207 b 421 1051 519 1090 478 1051 m 432 -19 b 57 318 214 -19 57 100 l 57 353 l 206 353 l 206 318 b 432 113 206 179 294 113 b 642 269 569 113 642 178 b 436 424 642 363 564 394 l 385 436 b 79 717 197 479 79 546 b 415 992 79 888 214 992 b 768 683 618 992 768 888 l 768 633 l 619 633 l 619 683 b 415 860 619 808 538 860 b 228 721 296 860 228 808 b 417 569 228 633 293 597 l 468 557 b 790 272 656 515 790 447 b 432 -19 790 99 650 -19 m 440 -285 b 342 -187 383 -285 342 -244 b 440 -89 342 -129 383 -89 b 539 -187 496 -89 539 -129 b 440 -285 539 -244 496 -285 "},"Ţ":{"ha":817,"x_min":0,"x_max":0,"o":"m 333 836 l 35 836 l 35 972 l 782 972 l 782 836 l 483 836 l 483 0 l 461 0 l 456 -58 b 579 -171 528 -58 579 -97 b 411 -292 579 -254 499 -292 b 258 -258 353 -292 297 -276 l 289 -171 b 406 -199 321 -186 358 -199 b 471 -156 443 -199 471 -185 b 403 -114 471 -128 449 -114 l 351 -114 l 360 0 l 333 0 "},"Ț":{"ha":817,"x_min":0,"x_max":0,"o":"m 333 836 l 35 836 l 35 972 l 782 972 l 782 836 l 483 836 l 483 0 l 333 0 m 335 -314 l 372 -314 b 424 -264 410 -314 424 -300 l 424 -250 l 407 -250 b 315 -164 351 -250 315 -215 b 408 -78 315 -111 353 -78 b 503 -176 463 -78 503 -112 l 503 -268 b 376 -385 503 -343 460 -385 l 335 -385 "},"Ṭ":{"ha":817,"x_min":0,"x_max":0,"o":"m 333 836 l 35 836 l 35 972 l 782 972 l 782 836 l 483 836 l 483 0 l 333 0 m 408 -285 b 311 -187 353 -285 311 -244 b 408 -89 311 -129 353 -89 b 507 -187 465 -89 507 -129 b 408 -285 507 -244 465 -285 "},"Ṯ":{"ha":817,"x_min":0,"x_max":0,"o":"m 333 836 l 35 836 l 35 972 l 782 972 l 782 836 l 483 836 l 483 0 l 333 0 m 188 -108 l 629 -108 l 629 -224 l 188 -224 "},"Ǔ":{"ha":929,"x_min":0,"x_max":0,"o":"m 210 1228 l 371 1228 l 454 1131 l 476 1131 l 558 1228 l 719 1228 l 553 1053 l 378 1053 m 465 -19 b 94 333 236 -19 94 110 l 94 972 l 246 972 l 246 329 b 465 115 246 192 324 115 b 685 329 606 115 685 192 l 685 972 l 835 972 l 835 333 b 465 -19 835 110 693 -19 "},"Ȕ":{"ha":929,"x_min":0,"x_max":0,"o":"m 190 1229 l 346 1229 l 444 1054 l 322 1054 m 432 1229 l 574 1229 l 651 1054 l 540 1054 m 465 -19 b 94 333 236 -19 94 110 l 94 972 l 246 972 l 246 329 b 465 115 246 192 324 115 b 685 329 606 115 685 192 l 685 972 l 835 972 l 835 333 b 465 -19 835 110 693 -19 "},"Ǘ":{"ha":929,"x_min":0,"x_max":0,"o":"m 467 1478 l 636 1478 l 503 1304 l 371 1304 m 611 1051 b 513 1149 554 1051 513 1089 b 611 1246 513 1207 554 1246 b 708 1149 667 1246 708 1207 b 611 1051 708 1089 667 1051 m 319 1051 b 221 1149 263 1051 221 1089 b 319 1246 221 1207 263 1246 b 417 1149 375 1246 417 1207 b 319 1051 417 1089 375 1051 m 465 -19 b 94 333 236 -19 94 110 l 94 972 l 246 972 l 246 329 b 465 115 246 192 324 115 b 685 329 606 115 685 192 l 685 972 l 835 972 l 835 333 b 465 -19 835 110 693 -19 "},"Ǚ":{"ha":929,"x_min":0,"x_max":0,"o":"m 210 1478 l 371 1478 l 454 1382 l 476 1382 l 558 1478 l 719 1478 l 553 1304 l 378 1304 m 611 1051 b 513 1149 554 1051 513 1089 b 611 1246 513 1207 554 1246 b 708 1149 667 1246 708 1207 b 611 1051 708 1089 667 1051 m 319 1051 b 221 1149 263 1051 221 1089 b 319 1246 221 1207 263 1246 b 417 1149 375 1246 417 1207 b 319 1051 417 1089 375 1051 m 465 -19 b 94 333 236 -19 94 110 l 94 972 l 246 972 l 246 329 b 465 115 246 192 324 115 b 685 329 606 115 685 192 l 685 972 l 835 972 l 835 333 b 465 -19 835 110 693 -19 "},"Ǜ":{"ha":929,"x_min":0,"x_max":0,"o":"m 293 1481 l 463 1481 l 558 1306 l 426 1306 m 611 1051 b 513 1149 554 1051 513 1089 b 611 1246 513 1207 554 1246 b 708 1149 667 1246 708 1207 b 611 1051 708 1089 667 1051 m 319 1051 b 221 1149 263 1051 221 1089 b 319 1246 221 1207 263 1246 b 417 1149 375 1246 417 1207 b 319 1051 417 1089 375 1051 m 465 -19 b 94 333 236 -19 94 110 l 94 972 l 246 972 l 246 329 b 465 115 246 192 324 115 b 685 329 606 115 685 192 l 685 972 l 835 972 l 835 333 b 465 -19 835 110 693 -19 "},"Ǖ":{"ha":929,"x_min":0,"x_max":0,"o":"m 244 1431 l 686 1431 l 686 1315 l 244 1315 m 611 1051 b 513 1149 554 1051 513 1089 b 611 1246 513 1207 554 1246 b 708 1149 667 1246 708 1207 b 611 1051 708 1089 667 1051 m 319 1051 b 221 1149 263 1051 221 1089 b 319 1246 221 1207 263 1246 b 417 1149 375 1246 417 1207 b 319 1051 417 1089 375 1051 m 465 -19 b 94 333 236 -19 94 110 l 94 972 l 246 972 l 246 329 b 465 115 246 192 324 115 b 685 329 606 115 685 192 l 685 972 l 835 972 l 835 333 b 465 -19 835 110 693 -19 "},"Ụ":{"ha":929,"x_min":0,"x_max":0,"o":"m 465 -19 b 94 333 236 -19 94 110 l 94 972 l 246 972 l 246 329 b 465 115 246 192 324 115 b 685 329 606 115 685 192 l 685 972 l 835 972 l 835 333 b 465 -19 835 110 693 -19 m 465 -285 b 367 -187 410 -285 367 -244 b 465 -89 367 -129 410 -89 b 564 -187 522 -89 564 -129 b 465 -285 564 -244 522 -285 "},"Ủ":{"ha":929,"x_min":0,"x_max":0,"o":"m 414 1133 l 465 1133 b 535 1176 511 1133 535 1149 b 468 1224 535 1208 506 1224 b 351 1196 421 1224 385 1210 l 321 1282 b 474 1317 360 1301 415 1317 b 642 1193 561 1317 642 1276 b 519 1078 642 1119 590 1078 l 524 1025 l 422 1025 m 465 -19 b 94 333 236 -19 94 110 l 94 972 l 246 972 l 246 329 b 465 115 246 192 324 115 b 685 329 606 115 685 192 l 685 972 l 835 972 l 835 333 b 465 -19 835 110 693 -19 "},"Ư":{"ha":1011,"x_min":0,"x_max":0,"o":"m 465 -19 b 94 333 236 -19 94 110 l 94 972 l 246 972 l 246 329 b 465 115 246 192 324 115 b 685 329 606 115 685 192 l 685 972 l 824 972 b 879 1032 861 972 879 990 l 879 1124 l 1014 1124 l 1014 1029 b 846 868 1013 917 953 868 l 835 868 l 835 333 b 465 -19 835 110 693 -19 "},"Ứ":{"ha":1011,"x_min":0,"x_max":0,"o":"m 467 1228 l 636 1228 l 503 1053 l 371 1053 m 465 -19 b 94 333 236 -19 94 110 l 94 972 l 246 972 l 246 329 b 465 115 246 192 324 115 b 685 329 606 115 685 192 l 685 972 l 824 972 b 879 1032 861 972 879 990 l 879 1124 l 1014 1124 l 1014 1029 b 846 868 1013 917 953 868 l 835 868 l 835 333 b 465 -19 835 110 693 -19 "},"Ự":{"ha":1011,"x_min":0,"x_max":0,"o":"m 465 -19 b 94 333 236 -19 94 110 l 94 972 l 246 972 l 246 329 b 465 115 246 192 324 115 b 685 329 606 115 685 192 l 685 972 l 824 972 b 879 1032 861 972 879 990 l 879 1124 l 1014 1124 l 1014 1029 b 846 868 1013 917 953 868 l 835 868 l 835 333 b 465 -19 835 110 693 -19 m 465 -285 b 367 -187 410 -285 367 -244 b 465 -89 367 -129 410 -89 b 564 -187 522 -89 564 -129 b 465 -285 564 -244 522 -285 "},"Ừ":{"ha":1011,"x_min":0,"x_max":0,"o":"m 293 1229 l 463 1229 l 558 1054 l 426 1054 m 465 -19 b 94 333 236 -19 94 110 l 94 972 l 246 972 l 246 329 b 465 115 246 192 324 115 b 685 329 606 115 685 192 l 685 972 l 824 972 b 879 1032 861 972 879 990 l 879 1124 l 1014 1124 l 1014 1029 b 846 868 1013 917 953 868 l 835 868 l 835 333 b 465 -19 835 110 693 -19 "},"Ử":{"ha":1011,"x_min":0,"x_max":0,"o":"m 414 1133 l 465 1133 b 535 1176 511 1133 535 1149 b 468 1224 535 1208 506 1224 b 351 1196 421 1224 385 1210 l 321 1282 b 474 1317 360 1301 415 1317 b 642 1193 561 1317 642 1276 b 519 1078 642 1119 590 1078 l 524 1025 l 422 1025 m 465 -19 b 94 333 236 -19 94 110 l 94 972 l 246 972 l 246 329 b 465 115 246 192 324 115 b 685 329 606 115 685 192 l 685 972 l 824 972 b 879 1032 861 972 879 990 l 879 1124 l 1014 1124 l 1014 1029 b 846 868 1013 917 953 868 l 835 868 l 835 333 b 465 -19 835 110 693 -19 "},"Ữ":{"ha":1011,"x_min":0,"x_max":0,"o":"m 224 1103 l 268 1167 b 379 1232 296 1207 329 1232 b 482 1185 424 1232 447 1217 b 543 1149 503 1165 518 1149 b 599 1186 569 1149 585 1167 l 629 1229 l 706 1172 l 661 1107 b 550 1042 633 1068 600 1042 b 447 1089 507 1042 482 1058 b 386 1126 426 1110 411 1126 b 331 1088 360 1126 344 1107 l 301 1044 m 465 -19 b 94 333 236 -19 94 110 l 94 972 l 246 972 l 246 329 b 465 115 246 192 324 115 b 685 329 606 115 685 192 l 685 972 l 824 972 b 879 1032 861 972 879 990 l 879 1124 l 1014 1124 l 1014 1029 b 846 868 1013 917 953 868 l 835 868 l 835 333 b 465 -19 835 110 693 -19 "},"Ȗ":{"ha":929,"x_min":0,"x_max":0,"o":"m 247 1065 b 465 1260 247 1188 331 1260 b 682 1065 599 1260 682 1188 l 682 1057 l 561 1057 l 561 1064 b 465 1163 561 1119 531 1163 b 368 1064 399 1163 368 1119 l 368 1057 l 247 1057 m 465 -19 b 94 333 236 -19 94 110 l 94 972 l 246 972 l 246 329 b 465 115 246 192 324 115 b 685 329 606 115 685 192 l 685 972 l 835 972 l 835 333 b 465 -19 835 110 693 -19 "},"Ṻ":{"ha":929,"x_min":0,"x_max":0,"o":"m 611 1256 b 513 1353 554 1256 513 1293 b 611 1450 513 1411 554 1450 b 708 1353 667 1450 708 1411 b 611 1256 708 1293 667 1256 m 319 1256 b 221 1353 263 1256 221 1293 b 319 1450 221 1411 263 1450 b 417 1353 375 1450 417 1411 b 319 1256 417 1293 375 1256 m 244 1179 l 686 1179 l 686 1064 l 244 1064 m 465 -19 b 94 333 236 -19 94 110 l 94 972 l 246 972 l 246 329 b 465 115 246 192 324 115 b 685 329 606 115 685 192 l 685 972 l 835 972 l 835 333 b 465 -19 835 110 693 -19 "},"Ṹ":{"ha":929,"x_min":0,"x_max":0,"o":"m 467 1451 l 636 1451 l 503 1276 l 371 1276 m 224 1103 l 268 1167 b 379 1232 296 1207 329 1232 b 482 1185 424 1232 447 1217 b 543 1149 503 1165 518 1149 b 599 1186 569 1149 585 1167 l 629 1229 l 706 1172 l 661 1107 b 550 1042 633 1068 600 1042 b 447 1089 507 1042 482 1058 b 386 1126 426 1110 411 1126 b 331 1088 360 1126 344 1107 l 301 1044 m 465 -19 b 94 333 236 -19 94 110 l 94 972 l 246 972 l 246 329 b 465 115 246 192 324 115 b 685 329 606 115 685 192 l 685 972 l 835 972 l 835 333 b 465 -19 835 110 693 -19 "},"Ẃ":{"ha":1232,"x_min":0,"x_max":0,"o":"m 618 1228 l 788 1228 l 654 1053 l 522 1053 m 47 972 l 196 972 l 313 101 l 335 101 l 485 972 l 747 972 l 897 101 l 919 101 l 1035 972 l 1185 972 l 1042 0 l 779 0 l 626 883 l 604 883 l 453 0 l 189 0 "},"Ẅ":{"ha":1232,"x_min":0,"x_max":0,"o":"m 761 1051 b 664 1149 706 1051 664 1089 b 761 1246 664 1207 706 1246 b 860 1149 818 1246 860 1207 b 761 1051 860 1089 818 1051 m 469 1051 b 372 1149 414 1051 372 1089 b 469 1246 372 1207 414 1246 b 568 1149 526 1246 568 1207 b 469 1051 568 1089 526 1051 m 47 972 l 196 972 l 313 101 l 335 101 l 485 972 l 747 972 l 897 101 l 919 101 l 1035 972 l 1185 972 l 1042 0 l 779 0 l 626 883 l 604 883 l 453 0 l 189 0 "},"Ẁ":{"ha":1232,"x_min":0,"x_max":0,"o":"m 444 1229 l 614 1229 l 710 1054 l 578 1054 m 47 972 l 196 972 l 313 101 l 335 101 l 485 972 l 747 972 l 897 101 l 919 101 l 1035 972 l 1185 972 l 1042 0 l 779 0 l 626 883 l 604 883 l 453 0 l 189 0 "},"Ẏ":{"ha":857,"x_min":0,"x_max":0,"o":"m 429 1051 b 331 1149 372 1051 331 1090 b 429 1246 331 1207 372 1246 b 526 1149 485 1246 526 1207 b 429 1051 526 1090 485 1051 m 353 353 l 15 972 l 185 972 l 418 532 l 439 532 l 672 972 l 842 972 l 504 353 l 504 0 l 353 0 "},"Ỵ":{"ha":857,"x_min":0,"x_max":0,"o":"m 353 353 l 15 972 l 185 972 l 418 532 l 439 532 l 672 972 l 842 972 l 504 353 l 504 0 l 353 0 m 429 -285 b 331 -187 372 -285 331 -244 b 429 -89 331 -129 372 -89 b 526 -187 485 -89 526 -129 b 429 -285 526 -244 485 -285 "},"Ỳ":{"ha":857,"x_min":0,"x_max":0,"o":"m 257 1229 l 426 1229 l 522 1054 l 390 1054 m 353 353 l 15 972 l 185 972 l 418 532 l 439 532 l 672 972 l 842 972 l 504 353 l 504 0 l 353 0 "},"Ỷ":{"ha":857,"x_min":0,"x_max":0,"o":"m 378 1133 l 429 1133 b 497 1176 475 1133 497 1149 b 432 1224 497 1208 469 1224 b 315 1196 385 1224 349 1210 l 285 1282 b 438 1317 324 1301 379 1317 b 606 1193 525 1317 606 1276 b 482 1078 606 1119 554 1078 l 488 1025 l 386 1025 m 353 353 l 15 972 l 185 972 l 418 532 l 439 532 l 672 972 l 842 972 l 504 353 l 504 0 l 353 0 "},"Ȳ":{"ha":857,"x_min":0,"x_max":0,"o":"m 207 1179 l 650 1179 l 650 1064 l 207 1064 m 353 353 l 15 972 l 185 972 l 418 532 l 439 532 l 672 972 l 842 972 l 504 353 l 504 0 l 353 0 "},"Ỹ":{"ha":857,"x_min":0,"x_max":0,"o":"m 188 1103 l 232 1167 b 343 1232 260 1207 293 1232 b 446 1185 388 1232 411 1217 b 507 1149 467 1165 482 1149 b 563 1186 533 1149 547 1167 l 593 1229 l 669 1172 l 625 1107 b 514 1042 597 1068 564 1042 b 411 1089 471 1042 446 1058 b 350 1126 390 1110 375 1126 b 294 1088 324 1126 308 1107 l 264 1044 m 353 353 l 15 972 l 185 972 l 418 532 l 439 532 l 672 972 l 842 972 l 504 353 l 504 0 l 353 0 "},"Ẓ":{"ha":801,"x_min":0,"x_max":0,"o":"m 67 194 l 578 818 l 578 838 l 82 838 l 82 972 l 732 972 l 732 778 l 221 154 l 221 135 l 738 135 l 738 0 l 67 0 m 399 -285 b 300 -187 343 -285 300 -244 b 399 -89 300 -129 343 -89 b 497 -187 456 -89 497 -129 b 399 -285 497 -244 456 -285 "},"ắ":{"ha":801,"x_min":0,"x_max":0,"o":"m 410 1211 l 575 1211 l 435 1014 l 306 1014 m 390 764 b 174 958 256 764 174 836 l 174 967 l 294 967 l 294 960 b 390 861 294 904 325 861 b 486 960 457 861 486 904 l 486 967 l 608 967 l 608 958 b 390 764 608 836 525 764 m 318 -19 b 61 197 172 -19 61 58 b 322 408 61 336 172 408 l 531 408 l 531 453 b 383 585 531 532 483 585 b 219 460 285 585 236 533 l 86 503 b 385 704 119 611 210 704 b 671 443 563 704 671 610 l 671 161 b 710 119 671 133 685 119 l 768 119 l 768 0 l 661 0 b 553 93 597 0 553 36 l 553 97 l 531 97 b 318 -19 510 53 460 -19 m 339 99 b 531 283 453 99 531 168 l 531 297 l 331 297 b 204 201 254 297 204 264 b 339 99 204 139 254 99 "},"ặ":{"ha":801,"x_min":0,"x_max":0,"o":"m 390 764 b 174 958 256 764 174 836 l 174 967 l 294 967 l 294 960 b 390 861 294 904 325 861 b 486 960 457 861 486 904 l 486 967 l 608 967 l 608 958 b 390 764 608 836 525 764 m 318 -19 b 61 197 172 -19 61 58 b 322 408 61 336 172 408 l 531 408 l 531 453 b 383 585 531 532 483 585 b 219 460 285 585 236 533 l 86 503 b 385 704 119 611 210 704 b 671 443 563 704 671 610 l 671 161 b 710 119 671 133 685 119 l 768 119 l 768 0 l 661 0 b 553 93 597 0 553 36 l 553 97 l 531 97 b 318 -19 510 53 460 -19 m 339 99 b 531 283 453 99 531 168 l 531 297 l 331 297 b 204 201 254 297 204 264 b 339 99 204 139 254 99 m 389 -285 b 290 -187 332 -285 290 -244 b 389 -89 290 -129 332 -89 b 488 -187 444 -89 488 -129 b 389 -285 488 -244 444 -285 "},"ằ":{"ha":801,"x_min":0,"x_max":0,"o":"m 207 1211 l 372 1211 l 476 1014 l 347 1014 m 390 764 b 174 958 256 764 174 836 l 174 967 l 294 967 l 294 960 b 390 861 294 904 325 861 b 486 960 457 861 486 904 l 486 967 l 608 967 l 608 958 b 390 764 608 836 525 764 m 318 -19 b 61 197 172 -19 61 58 b 322 408 61 336 172 408 l 531 408 l 531 453 b 383 585 531 532 483 585 b 219 460 285 585 236 533 l 86 503 b 385 704 119 611 210 704 b 671 443 563 704 671 610 l 671 161 b 710 119 671 133 685 119 l 768 119 l 768 0 l 661 0 b 553 93 597 0 553 36 l 553 97 l 531 97 b 318 -19 510 53 460 -19 m 339 99 b 531 283 453 99 531 168 l 531 297 l 331 297 b 204 201 254 297 204 264 b 339 99 204 139 254 99 "},"ẳ":{"ha":801,"x_min":0,"x_max":0,"o":"m 335 1104 l 386 1104 b 454 1147 432 1104 454 1119 b 389 1194 454 1179 426 1194 b 272 1167 342 1194 304 1181 l 242 1253 b 394 1288 281 1272 336 1288 b 563 1164 482 1288 563 1247 b 439 1049 563 1090 511 1049 l 444 996 l 343 996 m 390 764 b 174 958 256 764 174 836 l 174 967 l 294 967 l 294 960 b 390 861 294 904 325 861 b 486 960 457 861 486 904 l 486 967 l 608 967 l 608 958 b 390 764 608 836 525 764 m 318 -19 b 61 197 172 -19 61 58 b 322 408 61 336 172 408 l 531 408 l 531 453 b 383 585 531 532 483 585 b 219 460 285 585 236 533 l 86 503 b 385 704 119 611 210 704 b 671 443 563 704 671 610 l 671 161 b 710 119 671 133 685 119 l 768 119 l 768 0 l 661 0 b 553 93 597 0 553 36 l 553 97 l 531 97 b 318 -19 510 53 460 -19 m 339 99 b 531 283 453 99 531 168 l 531 297 l 331 297 b 204 201 254 297 204 264 b 339 99 204 139 254 99 "},"ẵ":{"ha":801,"x_min":0,"x_max":0,"o":"m 154 1068 l 197 1146 b 304 1210 222 1189 258 1210 b 401 1164 343 1210 371 1194 b 461 1124 422 1143 439 1124 b 513 1161 486 1124 500 1142 l 540 1208 l 622 1157 l 578 1078 b 472 1014 554 1036 518 1014 b 374 1061 432 1014 404 1029 b 314 1100 354 1081 338 1100 b 264 1063 290 1100 276 1082 l 236 1017 m 390 764 b 174 958 256 764 174 836 l 174 967 l 294 967 l 294 960 b 390 861 294 904 325 861 b 486 960 457 861 486 904 l 486 967 l 608 967 l 608 958 b 390 764 608 836 525 764 m 318 -19 b 61 197 172 -19 61 58 b 322 408 61 336 172 408 l 531 408 l 531 453 b 383 585 531 532 483 585 b 219 460 285 585 236 533 l 86 503 b 385 704 119 611 210 704 b 671 443 563 704 671 610 l 671 161 b 710 119 671 133 685 119 l 768 119 l 768 0 l 661 0 b 553 93 597 0 553 36 l 553 97 l 531 97 b 318 -19 510 53 460 -19 m 339 99 b 531 283 453 99 531 168 l 531 297 l 331 297 b 204 201 254 297 204 264 b 339 99 204 139 254 99 "},"ǎ":{"ha":801,"x_min":0,"x_max":0,"o":"m 138 967 l 289 967 l 379 857 l 401 857 l 493 967 l 644 967 l 476 768 l 304 768 m 318 -19 b 61 197 172 -19 61 58 b 322 408 61 336 172 408 l 531 408 l 531 453 b 383 585 531 532 483 585 b 219 460 285 585 236 533 l 86 503 b 385 704 119 611 210 704 b 671 443 563 704 671 610 l 671 161 b 710 119 671 133 685 119 l 768 119 l 768 0 l 661 0 b 553 93 597 0 553 36 l 553 97 l 531 97 b 318 -19 510 53 460 -19 m 339 99 b 531 283 453 99 531 168 l 531 297 l 331 297 b 204 201 254 297 204 264 b 339 99 204 139 254 99 "},"ấ":{"ha":801,"x_min":0,"x_max":0,"o":"m 663 1129 l 807 1129 l 704 924 l 586 924 m 304 967 l 476 967 l 644 768 l 493 768 l 401 878 l 379 878 l 289 768 l 138 768 m 318 -19 b 61 197 172 -19 61 58 b 322 408 61 336 172 408 l 531 408 l 531 453 b 383 585 531 532 483 585 b 219 460 285 585 236 533 l 86 503 b 385 704 119 611 210 704 b 671 443 563 704 671 610 l 671 161 b 710 119 671 133 685 119 l 768 119 l 768 0 l 661 0 b 553 93 597 0 553 36 l 553 97 l 531 97 b 318 -19 510 53 460 -19 m 339 99 b 531 283 453 99 531 168 l 531 297 l 331 297 b 204 201 254 297 204 264 b 339 99 204 139 254 99 "},"ậ":{"ha":801,"x_min":0,"x_max":0,"o":"m 304 967 l 476 967 l 644 768 l 493 768 l 401 878 l 379 878 l 289 768 l 138 768 m 318 -19 b 61 197 172 -19 61 58 b 322 408 61 336 172 408 l 531 408 l 531 453 b 383 585 531 532 483 585 b 219 460 285 585 236 533 l 86 503 b 385 704 119 611 210 704 b 671 443 563 704 671 610 l 671 161 b 710 119 671 133 685 119 l 768 119 l 768 0 l 661 0 b 553 93 597 0 553 36 l 553 97 l 531 97 b 318 -19 510 53 460 -19 m 339 99 b 531 283 453 99 531 168 l 531 297 l 331 297 b 204 201 254 297 204 264 b 339 99 204 139 254 99 m 389 -285 b 290 -187 332 -285 290 -244 b 389 -89 290 -129 332 -89 b 488 -187 444 -89 488 -129 b 389 -285 488 -244 444 -285 "},"ầ":{"ha":801,"x_min":0,"x_max":0,"o":"m 504 1129 l 649 1129 l 733 924 l 615 924 m 304 967 l 476 967 l 644 768 l 493 768 l 401 878 l 379 878 l 289 768 l 138 768 m 318 -19 b 61 197 172 -19 61 58 b 322 408 61 336 172 408 l 531 408 l 531 453 b 383 585 531 532 483 585 b 219 460 285 585 236 533 l 86 503 b 385 704 119 611 210 704 b 671 443 563 704 671 610 l 671 161 b 710 119 671 133 685 119 l 768 119 l 768 0 l 661 0 b 553 93 597 0 553 36 l 553 97 l 531 97 b 318 -19 510 53 460 -19 m 339 99 b 531 283 453 99 531 168 l 531 297 l 331 297 b 204 201 254 297 204 264 b 339 99 204 139 254 99 "},"ẩ":{"ha":801,"x_min":0,"x_max":0,"o":"m 586 1021 l 638 1021 b 707 1065 683 1021 707 1036 b 640 1111 707 1097 679 1111 b 524 1083 593 1111 557 1099 l 493 1171 b 646 1204 532 1189 588 1204 b 815 1081 735 1204 815 1165 b 692 965 815 1007 763 965 l 696 913 l 594 913 m 304 967 l 476 967 l 644 768 l 493 768 l 401 878 l 379 878 l 289 768 l 138 768 m 318 -19 b 61 197 172 -19 61 58 b 322 408 61 336 172 408 l 531 408 l 531 453 b 383 585 531 532 483 585 b 219 460 285 585 236 533 l 86 503 b 385 704 119 611 210 704 b 671 443 563 704 671 610 l 671 161 b 710 119 671 133 685 119 l 768 119 l 768 0 l 661 0 b 553 93 597 0 553 36 l 553 97 l 531 97 b 318 -19 510 53 460 -19 m 339 99 b 531 283 453 99 531 168 l 531 297 l 331 297 b 204 201 254 297 204 264 b 339 99 204 139 254 99 "},"ẫ":{"ha":801,"x_min":0,"x_max":0,"o":"m 154 1076 l 197 1154 b 304 1218 222 1197 258 1218 b 401 1172 343 1218 371 1203 b 461 1132 422 1151 439 1132 b 513 1169 486 1132 500 1150 l 540 1217 l 622 1165 l 578 1086 b 472 1022 554 1044 518 1022 b 374 1069 432 1022 404 1038 b 314 1108 354 1089 338 1108 b 264 1071 290 1108 276 1090 l 236 1025 m 304 967 l 476 967 l 644 768 l 493 768 l 401 878 l 379 878 l 289 768 l 138 768 m 318 -19 b 61 197 172 -19 61 58 b 322 408 61 336 172 408 l 531 408 l 531 453 b 383 585 531 532 483 585 b 219 460 285 585 236 533 l 86 503 b 385 704 119 611 210 704 b 671 443 563 704 671 610 l 671 161 b 710 119 671 133 685 119 l 768 119 l 768 0 l 661 0 b 553 93 597 0 553 36 l 553 97 l 531 97 b 318 -19 510 53 460 -19 m 339 99 b 531 283 453 99 531 168 l 531 297 l 331 297 b 204 201 254 297 204 264 b 339 99 204 139 254 99 "},"ȁ":{"ha":801,"x_min":0,"x_max":0,"o":"m 122 967 l 274 967 l 364 768 l 244 768 m 364 967 l 503 967 l 576 768 l 460 768 m 318 -19 b 61 197 172 -19 61 58 b 322 408 61 336 172 408 l 531 408 l 531 453 b 383 585 531 532 483 585 b 219 460 285 585 236 533 l 86 503 b 385 704 119 611 210 704 b 671 443 563 704 671 610 l 671 161 b 710 119 671 133 685 119 l 768 119 l 768 0 l 661 0 b 553 93 597 0 553 36 l 553 97 l 531 97 b 318 -19 510 53 460 -19 m 339 99 b 531 283 453 99 531 168 l 531 297 l 331 297 b 204 201 254 297 204 264 b 339 99 204 139 254 99 "},"ạ":{"ha":801,"x_min":0,"x_max":0,"o":"m 318 -19 b 61 197 172 -19 61 58 b 322 408 61 336 172 408 l 531 408 l 531 453 b 383 585 531 532 483 585 b 219 460 285 585 236 533 l 86 503 b 385 704 119 611 210 704 b 671 443 563 704 671 610 l 671 161 b 710 119 671 133 685 119 l 768 119 l 768 0 l 661 0 b 553 93 597 0 553 36 l 553 97 l 531 97 b 318 -19 510 53 460 -19 m 339 99 b 531 283 453 99 531 168 l 531 297 l 331 297 b 204 201 254 297 204 264 b 339 99 204 139 254 99 m 389 -285 b 290 -187 332 -285 290 -244 b 389 -89 290 -129 332 -89 b 488 -187 444 -89 488 -129 b 389 -285 488 -244 444 -285 "},"ǽ":{"ha":1271,"x_min":0,"x_max":0,"o":"m 649 967 l 814 967 l 674 768 l 543 768 m 335 -19 b 61 196 175 -19 61 57 b 329 406 61 335 172 406 l 539 406 l 539 453 b 382 585 539 531 482 585 b 208 460 285 585 229 533 l 81 504 b 382 704 117 611 210 704 b 613 592 499 704 572 658 l 632 592 b 869 704 689 661 772 704 b 1182 368 1064 704 1182 561 l 1182 296 l 679 296 b 875 106 685 182 760 106 b 1056 217 979 106 1028 163 l 1165 143 b 881 -19 1113 60 1038 -19 b 615 121 765 -19 674 36 l 596 121 b 335 -19 567 63 496 -19 m 1040 406 b 865 578 1036 515 968 578 b 681 406 758 578 688 511 m 347 97 b 539 285 461 97 539 169 l 539 296 l 338 296 b 201 200 256 296 201 263 b 347 97 201 138 257 97 "},"ả":{"ha":801,"x_min":0,"x_max":0,"o":"m 338 864 l 389 864 b 457 907 435 864 457 879 b 392 954 457 939 429 954 b 275 926 344 954 307 942 l 244 1013 b 397 1047 283 1032 339 1047 b 565 924 485 1047 565 1007 b 442 808 565 850 514 808 l 447 756 l 346 756 m 318 -19 b 61 197 172 -19 61 58 b 322 408 61 336 172 408 l 531 408 l 531 453 b 383 585 531 532 483 585 b 219 460 285 585 236 533 l 86 503 b 385 704 119 611 210 704 b 671 443 563 704 671 610 l 671 161 b 710 119 671 133 685 119 l 768 119 l 768 0 l 661 0 b 553 93 597 0 553 36 l 553 97 l 531 97 b 318 -19 510 53 460 -19 m 339 99 b 531 283 453 99 531 168 l 531 297 l 331 297 b 204 201 254 297 204 264 b 339 99 204 139 254 99 "},"ȃ":{"ha":801,"x_min":0,"x_max":0,"o":"m 174 776 b 390 971 174 899 256 971 b 608 776 525 971 608 899 l 608 768 l 486 768 l 486 775 b 390 874 486 832 457 874 b 294 775 325 874 294 832 l 294 768 l 174 768 m 318 -19 b 61 197 172 -19 61 58 b 322 408 61 336 172 408 l 531 408 l 531 453 b 383 585 531 532 483 585 b 219 460 285 585 236 533 l 86 503 b 385 704 119 611 210 704 b 671 443 563 704 671 610 l 671 161 b 710 119 671 133 685 119 l 768 119 l 768 0 l 661 0 b 553 93 597 0 553 36 l 553 97 l 531 97 b 318 -19 510 53 460 -19 m 339 99 b 531 283 453 99 531 168 l 531 297 l 331 297 b 204 201 254 297 204 264 b 339 99 204 139 254 99 "},"ʼ":{"ha":379,"x_min":0,"x_max":0,"o":"m 107 679 l 154 679 b 211 736 194 679 211 696 l 211 781 l 190 781 b 78 883 125 781 78 824 b 190 992 78 947 125 992 b 301 879 254 992 301 946 l 301 735 b 164 597 301 643 256 597 l 107 597 "},"ǻ":{"ha":801,"x_min":0,"x_max":0,"o":"m 390 751 b 250 888 313 751 250 808 b 390 1024 250 965 311 1024 b 407 1022 396 1024 401 1022 l 474 1140 l 606 1140 l 494 982 b 532 888 518 958 532 926 b 390 751 532 804 467 751 m 390 836 b 442 888 422 836 442 858 b 390 938 442 917 422 938 b 340 888 361 938 340 917 b 390 836 340 858 361 836 m 318 -19 b 61 197 172 -19 61 58 b 322 408 61 336 172 408 l 531 408 l 531 453 b 383 585 531 532 483 585 b 219 460 285 585 236 533 l 86 503 b 385 704 119 611 210 704 b 671 443 563 704 671 610 l 671 161 b 710 119 671 133 685 119 l 768 119 l 768 0 l 661 0 b 553 93 597 0 553 36 l 553 97 l 531 97 b 318 -19 510 53 460 -19 m 339 99 b 531 283 453 99 531 168 l 531 297 l 331 297 b 204 201 254 297 204 264 b 339 99 204 139 254 99 "},"฿":{"ha":982,"x_min":0,"x_max":0,"o":"m 65 133 l 197 133 l 197 839 l 65 839 l 65 972 l 474 972 l 474 1133 l 611 1133 l 611 972 l 621 972 b 913 728 794 972 913 876 l 913 714 b 758 504 913 579 822 522 l 758 482 b 917 269 824 464 917 407 l 917 256 b 622 0 917 94 793 0 l 611 0 l 611 -161 l 474 -161 l 474 0 l 65 0 m 474 558 l 474 836 l 347 836 l 347 558 m 763 704 b 611 836 763 785 701 836 l 611 558 b 763 690 703 560 763 610 l 763 704 m 474 136 l 474 421 l 347 421 l 347 136 m 767 285 b 611 421 767 371 707 421 l 611 136 b 767 272 708 139 767 189 l 767 285 "},"₿":{"ha":957,"x_min":0,"x_max":0,"o":"m 101 133 l 233 133 l 233 839 l 101 839 l 101 972 l 360 972 l 360 1133 l 471 1133 l 471 972 l 539 972 l 539 1133 l 650 1133 l 650 969 b 888 728 793 951 888 860 l 888 714 b 733 504 888 579 797 522 l 733 482 b 890 269 799 464 890 407 l 890 256 b 650 3 890 111 792 21 l 650 -161 l 539 -161 l 539 0 l 471 0 l 471 -161 l 360 -161 l 360 0 l 101 0 m 581 558 b 738 690 675 558 738 608 l 738 704 b 581 836 738 785 675 836 l 383 836 l 383 558 m 581 136 b 740 272 681 136 740 188 l 740 285 b 581 421 740 371 681 421 l 383 421 l 383 136 "},"̮":{"ha":0,"x_min":0,"x_max":0,"o":"m 283 -294 b 65 -100 149 -294 65 -222 l 65 -92 l 186 -92 l 186 -99 b 283 -197 186 -154 217 -197 b 379 -99 349 -197 379 -154 l 379 -92 l 500 -92 l 500 -100 b 283 -294 500 -222 417 -294 "},"̆":{"ha":0,"x_min":0,"x_max":0,"o":"m 283 764 b 65 958 149 764 65 836 l 65 967 l 186 967 l 186 960 b 283 861 186 904 217 861 b 379 960 349 861 379 904 l 379 967 l 500 967 l 500 958 b 283 764 500 836 417 764 "},"̑":{"ha":0,"x_min":0,"x_max":0,"o":"m 65 776 b 283 971 65 899 149 971 b 500 776 417 971 500 899 l 500 768 l 379 768 l 379 775 b 283 874 379 832 349 874 b 186 775 217 874 186 832 l 186 768 l 65 768 "},"ƀ":{"ha":890,"x_min":0,"x_max":0,"o":"m 501 -19 b 268 97 368 -19 303 38 l 246 97 l 246 0 l 106 0 l 106 778 l 4 778 l 4 861 l 106 861 l 106 972 l 249 972 l 249 861 l 467 861 l 467 778 l 249 778 l 249 592 l 271 592 b 501 704 303 647 368 704 b 818 353 674 704 818 574 l 818 332 b 501 -19 818 110 672 -19 m 460 106 b 674 336 583 106 674 189 l 674 349 b 460 578 674 496 585 578 b 247 349 336 578 247 496 l 247 336 b 460 106 247 189 338 106 "},"∙":{"ha":861,"x_min":0,"x_max":0,"o":"m 431 304 b 247 486 328 304 247 383 b 431 668 247 589 325 668 b 614 486 536 668 614 592 b 431 304 614 379 531 304 "},"̌":{"ha":0,"x_min":0,"x_max":0,"o":"m 65 967 l 215 967 l 307 857 l 329 857 l 421 967 l 571 967 l 404 768 l 232 768 "},"ḉ":{"ha":822,"x_min":0,"x_max":0,"o":"m 439 967 l 604 967 l 464 768 l 335 768 m 426 -292 b 274 -258 368 -292 313 -276 l 304 -171 b 421 -199 336 -186 374 -199 b 486 -156 458 -199 486 -185 b 418 -114 486 -128 464 -114 l 367 -114 l 374 -17 b 72 333 200 4 72 131 l 72 351 b 424 704 72 572 225 704 b 758 440 621 704 732 585 l 619 411 b 426 576 607 503 547 576 b 215 349 307 576 215 493 l 215 336 b 426 108 215 192 307 108 b 624 274 547 108 607 178 l 763 242 b 475 -17 733 113 639 1 l 471 -58 b 594 -171 543 -58 594 -97 b 426 -292 594 -254 514 -292 "},"₵":{"ha":893,"x_min":0,"x_max":0,"o":"m 394 -15 b 76 372 197 10 76 143 l 76 600 b 394 988 76 829 197 963 l 394 1133 l 532 1133 l 532 988 b 828 629 722 963 828 831 l 828 622 l 679 622 l 679 633 b 532 849 679 742 632 824 l 532 124 b 679 339 632 149 679 231 l 679 363 l 828 363 l 828 343 b 532 -15 828 142 722 10 l 532 -161 l 394 -161 m 226 369 b 394 122 226 238 288 149 l 394 850 b 226 603 288 824 226 735 l 226 369 "},"̧":{"ha":0,"x_min":0,"x_max":0,"o":"m 218 -292 b 65 -258 160 -292 104 -276 l 96 -171 b 213 -199 129 -186 165 -199 b 279 -156 251 -199 279 -185 b 210 -114 279 -128 256 -114 l 158 -114 l 169 29 l 271 29 l 264 -58 b 388 -171 335 -58 388 -97 b 218 -292 388 -254 307 -292 "},"̂":{"ha":0,"x_min":0,"x_max":0,"o":"m 232 967 l 404 967 l 571 768 l 421 768 l 329 878 l 307 878 l 215 768 l 65 768 "},"₡":{"ha":911,"x_min":0,"x_max":0,"o":"m 254 31 b 76 381 142 93 76 213 l 76 592 b 404 988 76 825 201 964 l 428 1133 l 528 1133 l 506 990 b 576 982 531 989 554 986 l 600 1133 l 697 1133 l 668 950 b 846 621 783 892 846 776 l 846 617 l 697 617 l 697 625 b 643 790 697 692 679 749 l 539 122 b 697 347 646 147 697 233 l 697 367 l 846 367 l 846 351 b 517 -18 846 138 728 -1 l 493 -161 l 396 -161 l 419 -17 b 347 -6 394 -15 371 -11 l 324 -161 l 224 -161 m 369 133 b 440 117 392 125 414 119 l 556 846 b 483 857 533 851 510 856 l 369 133 m 226 378 b 281 199 226 304 246 243 l 382 843 b 226 594 283 811 226 722 l 226 378 "},"̦":{"ha":0,"x_min":0,"x_max":0,"o":"m 85 -314 l 122 -314 b 174 -264 160 -314 174 -300 l 174 -250 l 157 -250 b 65 -164 101 -250 65 -215 b 158 -78 65 -111 103 -78 b 253 -176 214 -78 253 -112 l 253 -268 b 126 -385 253 -343 210 -385 l 85 -385 "},"̒":{"ha":0,"x_min":0,"x_max":0,"o":"m 233 1003 l 196 1003 b 144 954 158 1003 144 989 l 144 939 l 161 939 b 253 853 217 939 253 904 b 160 767 253 801 215 767 b 65 865 106 767 65 801 l 65 957 b 192 1075 65 1033 108 1075 l 233 1075 "},"ʻ":{"ha":379,"x_min":0,"x_max":0,"o":"m 272 910 l 225 910 b 168 853 186 910 168 893 l 168 808 l 190 808 b 301 706 254 808 301 765 b 190 597 301 642 254 597 b 78 710 125 597 78 643 l 78 854 b 215 992 78 946 124 992 l 272 992 "},"⁒":{"ha":958,"x_min":0,"x_max":0,"o":"m 221 728 b 89 860 147 728 89 785 b 221 992 89 935 144 992 b 354 860 297 992 354 936 b 221 728 354 783 293 728 m 54 54 l 814 990 l 904 918 l 144 -18 m 757 -19 b 624 113 682 -19 624 38 b 757 244 624 188 681 244 b 889 113 832 244 889 189 b 757 -19 889 36 829 -19 "},"̏":{"ha":0,"x_min":0,"x_max":0,"o":"m 65 967 l 217 967 l 307 768 l 188 768 m 306 967 l 446 967 l 519 768 l 403 768 "},"ḍ":{"ha":890,"x_min":0,"x_max":0,"o":"m 389 -19 b 72 332 218 -19 72 110 l 72 353 b 389 704 72 574 217 704 b 619 592 522 704 588 647 l 642 592 l 642 972 l 785 972 l 785 0 l 644 0 l 644 97 l 622 97 b 389 -19 588 38 522 -19 m 429 106 b 643 336 553 106 643 189 l 643 349 b 429 578 643 496 554 578 b 217 349 306 578 217 496 l 217 336 b 429 106 217 189 307 106 m 446 -285 b 347 -187 390 -285 347 -244 b 446 -89 347 -129 390 -89 b 544 -187 503 -89 544 -129 b 446 -285 544 -244 503 -285 "},"̤":{"ha":0,"x_min":0,"x_max":0,"o":"m 436 -283 b 339 -186 381 -283 339 -246 b 436 -89 339 -128 381 -89 b 535 -186 493 -89 535 -128 b 436 -283 535 -246 493 -283 m 164 -283 b 65 -186 107 -283 65 -246 b 164 -89 65 -128 107 -89 b 261 -186 219 -89 261 -128 b 164 -283 261 -246 219 -283 "},"̈":{"ha":0,"x_min":0,"x_max":0,"o":"m 436 774 b 339 871 381 774 339 813 b 436 968 339 929 381 968 b 535 871 493 968 535 929 b 436 774 535 813 493 774 m 164 774 b 65 871 107 774 65 813 b 164 968 65 929 107 968 b 261 871 219 968 261 929 b 164 774 261 813 219 774 "},"∕":{"ha":553,"x_min":0,"x_max":0,"o":"m 424 1115 l 567 1115 l 131 -210 l -11 -210 "},"ḏ":{"ha":890,"x_min":0,"x_max":0,"o":"m 389 -19 b 72 332 218 -19 72 110 l 72 353 b 389 704 72 574 217 704 b 619 592 522 704 588 647 l 642 592 l 642 972 l 785 972 l 785 0 l 644 0 l 644 97 l 622 97 b 389 -19 588 38 522 -19 m 429 106 b 643 336 553 106 643 189 l 643 349 b 429 578 643 496 554 578 b 217 349 306 578 217 496 l 217 336 b 429 106 217 189 307 106 m 225 -108 l 667 -108 l 667 -224 l 225 -224 "},"₫":{"ha":986,"x_min":0,"x_max":0,"o":"m 389 -19 b 72 332 218 -19 72 110 l 72 353 b 389 704 72 574 217 704 b 619 592 522 704 588 647 l 642 592 l 642 778 l 424 778 l 424 861 l 642 861 l 642 972 l 785 972 l 785 861 l 886 861 l 886 778 l 785 778 l 785 0 l 644 0 l 644 97 l 622 97 b 389 -19 588 38 522 -19 m 429 106 b 643 336 553 106 643 189 l 643 349 b 429 578 643 496 554 578 b 217 349 306 578 217 496 l 217 336 b 429 106 217 189 307 106 m 119 -86 l 785 -86 l 785 -171 l 119 -171 "},"̇":{"ha":0,"x_min":0,"x_max":0,"o":"m 164 778 b 65 875 107 778 65 817 b 164 972 65 933 107 972 b 263 875 219 972 263 933 b 164 778 263 817 219 778 "},"̣":{"ha":0,"x_min":0,"x_max":0,"o":"m 164 -285 b 65 -187 107 -285 65 -244 b 164 -89 65 -129 107 -89 b 263 -187 219 -89 263 -129 b 164 -285 263 -244 219 -285 "},"ʺ":{"ha":543,"x_min":0,"x_max":0,"o":"m 335 972 l 479 972 l 421 600 l 307 600 m 81 972 l 225 972 l 181 600 l 71 600 "},"↓":{"ha":861,"x_min":0,"x_max":0,"o":"m 51 319 l 143 411 l 317 236 l 350 185 l 371 192 l 361 253 l 361 972 l 500 972 l 500 253 l 490 192 l 511 185 l 544 236 l 718 411 l 810 319 l 481 -10 l 381 -10 "},"ǆ":{"ha":1611,"x_min":0,"x_max":0,"o":"m 389 -19 b 72 332 218 -19 72 110 l 72 353 b 389 704 72 574 217 704 b 619 592 522 704 588 647 l 642 592 l 642 972 l 785 972 l 785 0 l 644 0 l 644 97 l 622 97 b 389 -19 588 38 522 -19 m 994 967 l 1146 967 l 1236 857 l 1258 857 l 1350 967 l 1501 967 l 1333 768 l 1161 768 m 968 175 l 1372 544 l 1372 564 l 982 564 l 982 685 l 1526 685 l 1526 508 l 1122 139 l 1122 121 l 1538 121 l 1538 0 l 968 0 m 429 106 b 643 336 553 106 643 189 l 643 349 b 429 578 643 496 554 578 b 217 349 306 578 217 496 l 217 336 b 429 106 217 189 307 106 "},"ḝ":{"ha":811,"x_min":0,"x_max":0,"o":"m 414 764 b 196 958 279 764 196 836 l 196 967 l 318 967 l 318 960 b 414 861 318 904 347 861 b 510 960 479 861 510 904 l 510 967 l 631 967 l 631 958 b 414 764 631 836 547 764 m 421 -292 b 268 -258 363 -292 307 -276 l 299 -171 b 415 -199 332 -186 368 -199 b 482 -156 453 -199 482 -185 b 413 -114 482 -128 458 -114 l 361 -114 l 369 -17 b 72 333 189 4 72 138 l 72 350 b 414 704 72 564 213 704 b 744 357 611 704 744 565 l 744 303 l 218 303 b 422 106 222 182 307 106 b 607 225 531 106 578 161 l 726 164 b 469 -17 689 92 619 0 l 467 -58 b 589 -171 538 -58 589 -97 b 421 -292 589 -254 508 -292 m 600 413 b 413 578 592 515 519 578 b 219 413 304 578 233 515 "},"ế":{"ha":811,"x_min":0,"x_max":0,"o":"m 685 1129 l 829 1129 l 728 924 l 610 924 m 328 967 l 500 967 l 667 768 l 517 768 l 425 878 l 403 878 l 311 768 l 161 768 m 419 -19 b 72 333 211 -19 72 121 l 72 350 b 414 704 72 564 213 704 b 744 357 611 704 744 565 l 744 303 l 218 303 b 422 106 222 182 307 106 b 607 225 531 106 578 161 l 726 164 b 419 -19 685 85 604 -19 m 600 413 b 413 578 592 515 519 578 b 219 413 304 578 233 515 "},"ệ":{"ha":811,"x_min":0,"x_max":0,"o":"m 328 967 l 500 967 l 667 768 l 517 768 l 425 878 l 403 878 l 311 768 l 161 768 m 419 -19 b 72 333 211 -19 72 121 l 72 350 b 414 704 72 564 213 704 b 744 357 611 704 744 565 l 744 303 l 218 303 b 422 106 222 182 307 106 b 607 225 531 106 578 161 l 726 164 b 419 -19 685 85 604 -19 m 600 413 b 413 578 592 515 519 578 b 219 413 304 578 233 515 m 419 -285 b 321 -187 363 -285 321 -244 b 419 -89 321 -129 363 -89 b 517 -187 475 -89 517 -129 b 419 -285 517 -244 475 -285 "},"ề":{"ha":811,"x_min":0,"x_max":0,"o":"m 528 1129 l 672 1129 l 756 924 l 638 924 m 328 967 l 500 967 l 667 768 l 517 768 l 425 878 l 403 878 l 311 768 l 161 768 m 419 -19 b 72 333 211 -19 72 121 l 72 350 b 414 704 72 564 213 704 b 744 357 611 704 744 565 l 744 303 l 218 303 b 422 106 222 182 307 106 b 607 225 531 106 578 161 l 726 164 b 419 -19 685 85 604 -19 m 600 413 b 413 578 592 515 519 578 b 219 413 304 578 233 515 "},"ể":{"ha":811,"x_min":0,"x_max":0,"o":"m 610 1021 l 661 1021 b 729 1065 707 1021 729 1036 b 664 1111 729 1097 701 1111 b 547 1083 617 1111 579 1099 l 517 1171 b 669 1204 556 1189 611 1204 b 838 1081 757 1204 838 1165 b 714 965 838 1007 786 965 l 719 913 l 618 913 m 328 967 l 500 967 l 667 768 l 517 768 l 425 878 l 403 878 l 311 768 l 161 768 m 419 -19 b 72 333 211 -19 72 121 l 72 350 b 414 704 72 564 213 704 b 744 357 611 704 744 565 l 744 303 l 218 303 b 422 106 222 182 307 106 b 607 225 531 106 578 161 l 726 164 b 419 -19 685 85 604 -19 m 600 413 b 413 578 592 515 519 578 b 219 413 304 578 233 515 "},"ễ":{"ha":811,"x_min":0,"x_max":0,"o":"m 176 1076 l 221 1154 b 326 1218 246 1197 282 1218 b 425 1172 367 1218 394 1203 b 485 1132 444 1151 461 1132 b 535 1169 510 1132 522 1150 l 563 1217 l 646 1165 l 601 1086 b 496 1022 576 1044 540 1022 b 397 1069 456 1022 428 1038 b 338 1108 378 1089 360 1108 b 288 1071 313 1108 300 1090 l 260 1025 m 328 967 l 500 967 l 667 768 l 517 768 l 425 878 l 403 878 l 311 768 l 161 768 m 419 -19 b 72 333 211 -19 72 121 l 72 350 b 414 704 72 564 213 704 b 744 357 611 704 744 565 l 744 303 l 218 303 b 422 106 222 182 307 106 b 607 225 531 106 578 161 l 726 164 b 419 -19 685 85 604 -19 m 600 413 b 413 578 592 515 519 578 b 219 413 304 578 233 515 "},"ȅ":{"ha":811,"x_min":0,"x_max":0,"o":"m 146 967 l 297 967 l 386 768 l 267 768 m 386 967 l 526 967 l 600 768 l 483 768 m 419 -19 b 72 333 211 -19 72 121 l 72 350 b 414 704 72 564 213 704 b 744 357 611 704 744 565 l 744 303 l 218 303 b 422 106 222 182 307 106 b 607 225 531 106 578 161 l 726 164 b 419 -19 685 85 604 -19 m 600 413 b 413 578 592 515 519 578 b 219 413 304 578 233 515 "},"ẹ":{"ha":811,"x_min":0,"x_max":0,"o":"m 419 -19 b 72 333 211 -19 72 121 l 72 350 b 414 704 72 564 213 704 b 744 357 611 704 744 565 l 744 303 l 218 303 b 422 106 222 182 307 106 b 607 225 531 106 578 161 l 726 164 b 419 -19 685 85 604 -19 m 600 413 b 413 578 592 515 519 578 b 219 413 304 578 233 515 m 419 -285 b 321 -187 363 -285 321 -244 b 419 -89 321 -129 363 -89 b 517 -187 475 -89 517 -129 b 419 -285 517 -244 475 -285 "},"ẻ":{"ha":811,"x_min":0,"x_max":0,"o":"m 360 864 l 411 864 b 481 907 457 864 481 879 b 414 954 481 939 453 954 b 297 926 368 954 331 942 l 267 1013 b 419 1047 306 1032 361 1047 b 589 924 508 1047 589 1007 b 465 808 589 850 536 808 l 469 756 l 368 756 m 419 -19 b 72 333 211 -19 72 121 l 72 350 b 414 704 72 564 213 704 b 744 357 611 704 744 565 l 744 303 l 218 303 b 422 106 222 182 307 106 b 607 225 531 106 578 161 l 726 164 b 419 -19 685 85 604 -19 m 600 413 b 413 578 592 515 519 578 b 219 413 304 578 233 515 "},"₈":{"ha":528,"x_min":0,"x_max":0,"o":"m 264 -296 b 44 -150 124 -296 44 -236 b 133 -36 44 -74 99 -44 l 133 -17 b 53 89 103 -8 53 22 b 264 226 53 172 136 226 b 475 89 393 226 475 172 b 396 -17 475 22 426 -8 l 396 -36 b 483 -150 431 -44 483 -74 b 264 -296 483 -236 406 -296 m 264 17 b 368 76 329 17 368 40 b 264 136 368 114 329 136 b 161 76 199 136 161 114 b 264 17 161 40 199 17 m 264 -206 b 376 -139 333 -206 376 -182 b 264 -74 376 -97 333 -74 b 153 -139 194 -74 153 -97 b 264 -206 153 -182 194 -206 "},"⁸":{"ha":528,"x_min":0,"x_max":0,"o":"m 264 468 b 44 614 124 468 44 528 b 133 728 44 690 99 719 l 133 747 b 53 853 103 756 53 786 b 264 990 53 936 136 990 b 475 853 393 990 475 936 b 396 747 475 786 426 756 l 396 728 b 483 614 431 719 483 690 b 264 468 483 528 406 468 m 264 781 b 368 840 329 781 368 804 b 264 900 368 878 329 900 b 161 840 199 900 161 878 b 264 781 161 804 199 781 m 264 558 b 376 625 333 558 376 582 b 264 690 376 667 333 690 b 153 625 194 690 153 667 b 264 558 153 582 194 558 "},"ȇ":{"ha":811,"x_min":0,"x_max":0,"o":"m 196 776 b 414 971 196 899 279 971 b 631 776 547 971 631 899 l 631 768 l 510 768 l 510 775 b 414 874 510 832 479 874 b 318 775 347 874 318 832 l 318 768 l 196 768 m 419 -19 b 72 333 211 -19 72 121 l 72 350 b 414 704 72 564 213 704 b 744 357 611 704 744 565 l 744 303 l 218 303 b 422 106 222 182 307 106 b 607 225 531 106 578 161 l 726 164 b 419 -19 685 85 604 -19 m 600 413 b 413 578 592 515 519 578 b 219 413 304 578 233 515 "},"ḗ":{"ha":811,"x_min":0,"x_max":0,"o":"m 429 1192 l 594 1192 l 454 994 l 324 994 m 193 907 l 635 907 l 635 792 l 193 792 m 419 -19 b 72 333 211 -19 72 121 l 72 350 b 414 704 72 564 213 704 b 744 357 611 704 744 565 l 744 303 l 218 303 b 422 106 222 182 307 106 b 607 225 531 106 578 161 l 726 164 b 419 -19 685 85 604 -19 m 600 413 b 413 578 592 515 519 578 b 219 413 304 578 233 515 "},"ḕ":{"ha":811,"x_min":0,"x_max":0,"o":"m 233 1197 l 399 1197 l 503 1000 l 374 1000 m 193 907 l 635 907 l 635 792 l 193 792 m 419 -19 b 72 333 211 -19 72 121 l 72 350 b 414 704 72 564 213 704 b 744 357 611 704 744 565 l 744 303 l 218 303 b 422 106 222 182 307 106 b 607 225 531 106 578 161 l 726 164 b 419 -19 685 85 604 -19 m 600 413 b 413 578 592 515 519 578 b 219 413 304 578 233 515 "},"∅":{"ha":889,"x_min":0,"x_max":0,"o":"m 183 -90 l 239 36 b 75 336 139 96 75 203 l 75 349 b 444 704 75 560 235 704 b 526 696 472 704 500 701 l 583 828 l 706 775 l 650 649 b 814 349 750 588 814 482 l 814 336 b 444 -19 814 125 654 -19 b 363 -12 417 -19 389 -17 l 306 -143 m 213 333 b 293 160 213 260 243 200 l 472 572 b 444 575 464 574 454 575 b 213 351 313 575 213 479 l 213 333 m 444 110 b 678 333 576 110 678 203 l 678 351 b 596 524 678 424 646 485 l 417 111 b 444 110 425 110 435 110 "},"℮":{"ha":826,"x_min":0,"x_max":0,"o":"m 414 -19 b 72 342 206 -19 72 124 b 414 704 72 561 206 704 b 754 350 621 704 754 561 l 754 318 l 231 318 b 203 290 213 318 203 308 l 203 165 b 224 108 203 140 210 122 b 414 35 274 58 340 35 b 633 140 506 35 581 64 l 708 140 b 414 -19 647 36 546 -19 m 597 372 b 625 400 615 372 625 382 l 625 519 b 604 576 625 544 618 563 b 414 650 558 624 490 650 b 224 576 338 650 269 624 b 203 519 210 563 203 544 l 203 400 b 231 372 203 382 213 372 "},"ẽ":{"ha":811,"x_min":0,"x_max":0,"o":"m 176 806 l 221 885 b 326 949 246 928 282 949 b 425 901 367 949 394 933 b 485 863 444 882 461 863 b 535 900 510 863 522 881 l 563 947 l 646 896 l 601 817 b 496 753 576 775 540 753 b 397 800 456 753 428 768 b 338 839 378 819 360 839 b 288 801 313 839 300 821 l 260 756 m 419 -19 b 72 333 211 -19 72 121 l 72 350 b 414 704 72 564 213 704 b 744 357 611 704 744 565 l 744 303 l 218 303 b 422 106 222 182 307 106 b 607 225 531 106 578 161 l 726 164 b 419 -19 685 85 604 -19 m 600 413 b 413 578 592 515 519 578 b 219 413 304 578 233 515 "},"€":{"ha":944,"x_min":0,"x_max":0,"o":"m 54 454 l 149 454 l 149 532 l 54 532 l 54 649 l 150 649 b 524 992 169 865 307 992 b 881 639 753 992 881 856 l 881 614 l 729 614 l 729 633 b 524 856 729 765 663 856 b 301 649 392 856 315 772 l 521 649 l 521 532 l 299 532 l 299 454 l 521 454 l 521 336 l 300 336 b 524 117 310 200 383 117 b 729 339 671 117 729 207 l 729 363 l 881 363 l 881 333 b 524 -19 881 118 760 -19 b 150 336 306 -19 164 103 l 54 336 "},"ﬀ":{"ha":1060,"x_min":0,"x_max":0,"o":"m 229 564 l 38 564 l 38 685 l 229 685 l 229 835 b 367 972 229 919 282 972 l 543 972 l 543 853 l 413 853 b 372 811 386 853 372 839 l 372 685 l 679 685 l 679 835 b 817 972 679 919 732 972 l 993 972 l 993 853 l 863 853 b 822 811 835 853 822 839 l 822 685 l 1019 685 l 1019 564 l 822 564 l 822 0 l 679 0 l 679 564 l 372 564 l 372 0 l 229 0 "}}}
